<ttFont>
<head>
    <!-- Most of this table will be recalculated by the compiler -->
    <tableVersion value="1.0"/>
    <fontRevision value="2.538"/>
    <checkSumAdjustment value="0x16c11cfb"/>
    <magicNumber value="0x5f0f3cf5"/>
    <flags value="00000000 00001111"/>
    <unitsPerEm value="1000"/>
    <created value="Thu May 18 16:22:54 2017"/>
    <modified value="Thu May 18 11:45:54 2017"/>
    <xMin value="-154"/>
    <yMin value="-345"/>
    <xMax value="2253"/>
    <yMax value="935"/>
    <macStyle value="00000000 00000000"/>
    <lowestRecPPEM value="9"/>
    <fontDirectionHint value="2"/>
    <indexToLocFormat value="1"/>
    <glyphDataFormat value="0"/>
  </head>
    <TTGlyph name=".notdef" xMin="0" yMin="0" xMax="490" yMax="700">
      <contour>
        <pt x="0" y="700" on="1"/>
        <pt x="490" y="700" on="1"/>
        <pt x="490" y="0" on="1"/>
        <pt x="0" y="0" on="1"/>
      </contour>
      <contour>
        <pt x="420" y="655" on="1"/>
        <pt x="70" y="655" on="1"/>
        <pt x="245" y="390" on="1"/>
      </contour>
      <contour>
        <pt x="445" y="90" on="1"/>
        <pt x="445" y="610" on="1"/>
        <pt x="272" y="350" on="1"/>
      </contour>
      <contour>
        <pt x="420" y="45" on="1"/>
        <pt x="245" y="310" on="1"/>
        <pt x="70" y="45" on="1"/>
      </contour>
      <contour>
        <pt x="45" y="90" on="1"/>
        <pt x="217" y="350" on="1"/>
        <pt x="45" y="610" on="1"/>
      </contour>
    </TTGlyph>
    <TTGlyph name="A" xMin="12" yMin="0" xMax="571" yMax="630">
      <contour>
        <pt x="176" y="238" on="1"/>
        <pt x="404" y="238" on="1"/>
        <pt x="354" y="373" on="1"/>
        <pt x="340" y="408" on="0"/>
        <pt x="310" y="497" on="0"/>
        <pt x="293" y="550" on="1"/>
        <pt x="291" y="550" on="1"/>
        <pt x="283" y="524" on="0"/>
        <pt x="267" y="478" on="0"/>
        <pt x="252" y="436" on="0"/>
        <pt x="237" y="395" on="0"/>
        <pt x="228" y="373" on="1"/>
      </contour>
      <contour>
        <pt x="260" y="630" on="1"/>
        <pt x="327" y="630" on="1"/>
        <pt x="571" y="0" on="1"/>
        <pt x="495" y="0" on="1"/>
        <pt x="426" y="180" on="1"/>
        <pt x="156" y="180" on="1"/>
        <pt x="87" y="0" on="1"/>
        <pt x="12" y="0" on="1"/>
      </contour>
    </TTGlyph>
    <TTGlyph name="AE" xMin="9" yMin="0" xMax="734" yMax="630">
      <contour>
        <pt x="9" y="0" on="1"/>
        <pt x="333" y="630" on="1"/>
        <pt x="731" y="630" on="1"/>
        <pt x="731" y="571" on="1"/>
        <pt x="448" y="571" on="1"/>
        <pt x="448" y="355" on="1"/>
        <pt x="705" y="355" on="1"/>
        <pt x="705" y="296" on="1"/>
        <pt x="448" y="296" on="1"/>
        <pt x="448" y="59" on="1"/>
        <pt x="734" y="59" on="1"/>
        <pt x="734" y="0" on="1"/>
        <pt x="378" y="0" on="1"/>
        <pt x="378" y="184" on="1"/>
        <pt x="182" y="184" on="1"/>
        <pt x="91" y="0" on="1"/>
      </contour>
      <contour>
        <pt x="378" y="577" on="1"/>
        <pt x="208" y="240" on="1"/>
        <pt x="378" y="240" on="1"/>
      </contour>
    </TTGlyph>
    <TTGlyph name="AEacute" xMin="9" yMin="0" xMax="734" yMax="834">
      <contour>
        <pt x="9" y="0" on="1"/>
        <pt x="333" y="630" on="1"/>
        <pt x="731" y="630" on="1"/>
        <pt x="731" y="571" on="1"/>
        <pt x="448" y="571" on="1"/>
        <pt x="448" y="355" on="1"/>
        <pt x="705" y="355" on="1"/>
        <pt x="705" y="296" on="1"/>
        <pt x="448" y="296" on="1"/>
        <pt x="448" y="59" on="1"/>
        <pt x="734" y="59" on="1"/>
        <pt x="734" y="0" on="1"/>
        <pt x="378" y="0" on="1"/>
        <pt x="378" y="184" on="1"/>
        <pt x="182" y="184" on="1"/>
        <pt x="91" y="0" on="1"/>
      </contour>
      <contour>
        <pt x="378" y="577" on="1"/>
        <pt x="208" y="240" on="1"/>
        <pt x="378" y="240" on="1"/>
      </contour>
      <contour>
        <pt x="412" y="710" on="1"/>
        <pt x="355" y="710" on="1"/>
        <pt x="440" y="834" on="1"/>
        <pt x="523" y="834" on="1"/>
      </contour>
    </TTGlyph>
    <TTGlyph name="Aacute" xMin="12" yMin="0" xMax="571" yMax="834">
      <contour>
        <pt x="317" y="710" on="1"/>
        <pt x="260" y="710" on="1"/>
        <pt x="345" y="834" on="1"/>
        <pt x="428" y="834" on="1"/>
      </contour>
      <contour>
        <pt x="176" y="238" on="1"/>
        <pt x="404" y="238" on="1"/>
        <pt x="354" y="373" on="1"/>
        <pt x="340" y="408" on="0"/>
        <pt x="310" y="497" on="0"/>
        <pt x="293" y="550" on="1"/>
        <pt x="291" y="550" on="1"/>
        <pt x="283" y="524" on="0"/>
        <pt x="267" y="478" on="0"/>
        <pt x="252" y="436" on="0"/>
        <pt x="237" y="395" on="0"/>
        <pt x="228" y="373" on="1"/>
      </contour>
      <contour>
        <pt x="260" y="630" on="1"/>
        <pt x="327" y="630" on="1"/>
        <pt x="571" y="0" on="1"/>
        <pt x="495" y="0" on="1"/>
        <pt x="426" y="180" on="1"/>
        <pt x="156" y="180" on="1"/>
        <pt x="87" y="0" on="1"/>
        <pt x="12" y="0" on="1"/>
      </contour>
    </TTGlyph>
    <TTGlyph name="Aaytam.tm" xMin="20" yMin="-7" xMax="583" yMax="510">
      <contour>
        <pt x="302" y="510" on="1"/>
        <pt x="327" y="510" on="0"/>
        <pt x="371" y="493" on="0"/>
        <pt x="403" y="461" on="0"/>
        <pt x="421" y="418" on="0"/>
        <pt x="421" y="393" on="1"/>
        <pt x="421" y="365" on="0"/>
        <pt x="401" y="321" on="0"/>
        <pt x="368" y="291" on="0"/>
        <pt x="324" y="276" on="0"/>
        <pt x="300" y="276" on="1"/>
        <pt x="276" y="276" on="0"/>
        <pt x="232" y="291" on="0"/>
        <pt x="199" y="321" on="0"/>
        <pt x="180" y="364" on="0"/>
        <pt x="180" y="393" on="1"/>
        <pt x="180" y="444" on="0"/>
        <pt x="248" y="510" on="0"/>
      </contour>
      <contour>
        <pt x="299" y="467" on="1"/>
        <pt x="271" y="467" on="0"/>
        <pt x="233" y="428" on="0"/>
        <pt x="233" y="393" on="1"/>
        <pt x="233" y="357" on="0"/>
        <pt x="272" y="319" on="0"/>
        <pt x="302" y="319" on="1"/>
        <pt x="330" y="319" on="0"/>
        <pt x="368" y="358" on="0"/>
        <pt x="368" y="393" on="1"/>
        <pt x="368" y="429" on="0"/>
        <pt x="328" y="467" on="0"/>
      </contour>
      <contour>
        <pt x="143" y="228" on="1"/>
        <pt x="168" y="228" on="0"/>
        <pt x="212" y="211" on="0"/>
        <pt x="244" y="179" on="0"/>
        <pt x="262" y="136" on="0"/>
        <pt x="262" y="110" on="1"/>
        <pt x="262" y="56" on="0"/>
        <pt x="193" y="-7" on="0"/>
        <pt x="140" y="-7" on="1"/>
        <pt x="88" y="-7" on="0"/>
        <pt x="20" y="56" on="0"/>
        <pt x="20" y="110" on="1"/>
        <pt x="20" y="162" on="0"/>
        <pt x="89" y="228" on="0"/>
      </contour>
      <contour>
        <pt x="140" y="185" on="1"/>
        <pt x="111" y="185" on="0"/>
        <pt x="74" y="145" on="0"/>
        <pt x="74" y="110" on="1"/>
        <pt x="74" y="75" on="0"/>
        <pt x="113" y="37" on="0"/>
        <pt x="143" y="37" on="1"/>
        <pt x="171" y="37" on="0"/>
        <pt x="209" y="75" on="0"/>
        <pt x="209" y="110" on="1"/>
        <pt x="209" y="147" on="0"/>
        <pt x="169" y="185" on="0"/>
      </contour>
      <contour>
        <pt x="463" y="228" on="1"/>
        <pt x="488" y="228" on="0"/>
        <pt x="532" y="211" on="0"/>
        <pt x="564" y="179" on="0"/>
        <pt x="583" y="136" on="0"/>
        <pt x="583" y="110" on="1"/>
        <pt x="583" y="56" on="0"/>
        <pt x="514" y="-7" on="0"/>
        <pt x="460" y="-7" on="1"/>
        <pt x="409" y="-7" on="0"/>
        <pt x="341" y="56" on="0"/>
        <pt x="341" y="110" on="1"/>
        <pt x="341" y="162" on="0"/>
        <pt x="409" y="228" on="0"/>
      </contour>
      <contour>
        <pt x="460" y="185" on="1"/>
        <pt x="432" y="185" on="0"/>
        <pt x="395" y="145" on="0"/>
        <pt x="395" y="110" on="1"/>
        <pt x="395" y="75" on="0"/>
        <pt x="433" y="37" on="0"/>
        <pt x="463" y="37" on="1"/>
        <pt x="491" y="37" on="0"/>
        <pt x="529" y="75" on="0"/>
        <pt x="529" y="110" on="1"/>
        <pt x="529" y="147" on="0"/>
        <pt x="489" y="185" on="0"/>
      </contour>
    </TTGlyph>
    <TTGlyph name="Abreve" xMin="12" yMin="0" xMax="571" yMax="834">
      <contour>
        <pt x="211" y="834" on="1"/>
        <pt x="213" y="799" on="0"/>
        <pt x="247" y="757" on="0"/>
        <pt x="291" y="757" on="1"/>
        <pt x="328" y="757" on="0"/>
        <pt x="367" y="797" on="0"/>
        <pt x="369" y="834" on="1"/>
        <pt x="424" y="834" on="1"/>
        <pt x="424" y="780" on="0"/>
        <pt x="356" y="710" on="0"/>
        <pt x="291" y="710" on="1"/>
        <pt x="255" y="710" on="0"/>
        <pt x="204" y="731" on="0"/>
        <pt x="171" y="765" on="0"/>
        <pt x="155" y="810" on="0"/>
        <pt x="155" y="834" on="1"/>
      </contour>
      <contour>
        <pt x="176" y="238" on="1"/>
        <pt x="404" y="238" on="1"/>
        <pt x="354" y="373" on="1"/>
        <pt x="340" y="408" on="0"/>
        <pt x="310" y="497" on="0"/>
        <pt x="293" y="550" on="1"/>
        <pt x="291" y="550" on="1"/>
        <pt x="283" y="524" on="0"/>
        <pt x="267" y="478" on="0"/>
        <pt x="252" y="436" on="0"/>
        <pt x="237" y="395" on="0"/>
        <pt x="228" y="373" on="1"/>
      </contour>
      <contour>
        <pt x="260" y="630" on="1"/>
        <pt x="327" y="630" on="1"/>
        <pt x="571" y="0" on="1"/>
        <pt x="495" y="0" on="1"/>
        <pt x="426" y="180" on="1"/>
        <pt x="156" y="180" on="1"/>
        <pt x="87" y="0" on="1"/>
        <pt x="12" y="0" on="1"/>
      </contour>
    </TTGlyph>
    <TTGlyph name="Acircumflex" xMin="12" yMin="0" xMax="571" yMax="844">
      <contour>
        <pt x="263" y="844" on="1"/>
        <pt x="322" y="844" on="1"/>
        <pt x="447" y="710" on="1"/>
        <pt x="377" y="710" on="1"/>
        <pt x="292" y="801" on="1"/>
        <pt x="207" y="710" on="1"/>
        <pt x="141" y="710" on="1"/>
      </contour>
      <contour>
        <pt x="176" y="238" on="1"/>
        <pt x="404" y="238" on="1"/>
        <pt x="354" y="373" on="1"/>
        <pt x="340" y="408" on="0"/>
        <pt x="310" y="497" on="0"/>
        <pt x="293" y="550" on="1"/>
        <pt x="291" y="550" on="1"/>
        <pt x="283" y="524" on="0"/>
        <pt x="267" y="478" on="0"/>
        <pt x="252" y="436" on="0"/>
        <pt x="237" y="395" on="0"/>
        <pt x="228" y="373" on="1"/>
      </contour>
      <contour>
        <pt x="260" y="630" on="1"/>
        <pt x="327" y="630" on="1"/>
        <pt x="571" y="0" on="1"/>
        <pt x="495" y="0" on="1"/>
        <pt x="426" y="180" on="1"/>
        <pt x="156" y="180" on="1"/>
        <pt x="87" y="0" on="1"/>
        <pt x="12" y="0" on="1"/>
      </contour>
    </TTGlyph>
    <TTGlyph name="Adieresis" xMin="12" yMin="0" xMax="571" yMax="810">
      <contour>
        <pt x="164" y="763" on="1"/>
        <pt x="164" y="783" on="0"/>
        <pt x="190" y="810" on="0"/>
        <pt x="209" y="810" on="1"/>
        <pt x="227" y="810" on="0"/>
        <pt x="254" y="783" on="0"/>
        <pt x="254" y="763" on="1"/>
        <pt x="254" y="743" on="0"/>
        <pt x="227" y="716" on="0"/>
        <pt x="209" y="716" on="1"/>
        <pt x="190" y="716" on="0"/>
        <pt x="164" y="743" on="0"/>
      </contour>
      <contour>
        <pt x="332" y="763" on="1"/>
        <pt x="332" y="783" on="0"/>
        <pt x="358" y="810" on="0"/>
        <pt x="377" y="810" on="1"/>
        <pt x="395" y="810" on="0"/>
        <pt x="422" y="783" on="0"/>
        <pt x="422" y="763" on="1"/>
        <pt x="422" y="743" on="0"/>
        <pt x="395" y="716" on="0"/>
        <pt x="377" y="716" on="1"/>
        <pt x="358" y="716" on="0"/>
        <pt x="332" y="743" on="0"/>
      </contour>
      <contour>
        <pt x="176" y="238" on="1"/>
        <pt x="404" y="238" on="1"/>
        <pt x="354" y="373" on="1"/>
        <pt x="340" y="408" on="0"/>
        <pt x="310" y="497" on="0"/>
        <pt x="293" y="550" on="1"/>
        <pt x="291" y="550" on="1"/>
        <pt x="283" y="524" on="0"/>
        <pt x="267" y="478" on="0"/>
        <pt x="252" y="436" on="0"/>
        <pt x="237" y="395" on="0"/>
        <pt x="228" y="373" on="1"/>
      </contour>
      <contour>
        <pt x="260" y="630" on="1"/>
        <pt x="327" y="630" on="1"/>
        <pt x="571" y="0" on="1"/>
        <pt x="495" y="0" on="1"/>
        <pt x="426" y="180" on="1"/>
        <pt x="156" y="180" on="1"/>
        <pt x="87" y="0" on="1"/>
        <pt x="12" y="0" on="1"/>
      </contour>
    </TTGlyph>
    <TTGlyph name="Agrave" xMin="12" yMin="0" xMax="571" yMax="834">
      <contour>
        <pt x="159" y="834" on="1"/>
        <pt x="242" y="834" on="1"/>
        <pt x="327" y="710" on="1"/>
        <pt x="270" y="710" on="1"/>
      </contour>
      <contour>
        <pt x="176" y="238" on="1"/>
        <pt x="404" y="238" on="1"/>
        <pt x="354" y="373" on="1"/>
        <pt x="340" y="408" on="0"/>
        <pt x="310" y="497" on="0"/>
        <pt x="293" y="550" on="1"/>
        <pt x="291" y="550" on="1"/>
        <pt x="283" y="524" on="0"/>
        <pt x="267" y="478" on="0"/>
        <pt x="252" y="436" on="0"/>
        <pt x="237" y="395" on="0"/>
        <pt x="228" y="373" on="1"/>
      </contour>
      <contour>
        <pt x="260" y="630" on="1"/>
        <pt x="327" y="630" on="1"/>
        <pt x="571" y="0" on="1"/>
        <pt x="495" y="0" on="1"/>
        <pt x="426" y="180" on="1"/>
        <pt x="156" y="180" on="1"/>
        <pt x="87" y="0" on="1"/>
        <pt x="12" y="0" on="1"/>
      </contour>
    </TTGlyph>
    <TTGlyph name="Amacron" xMin="12" yMin="0" xMax="571" yMax="772">
      <contour>
        <pt x="413" y="772" on="1"/>
        <pt x="413" y="720" on="1"/>
        <pt x="168" y="720" on="1"/>
        <pt x="168" y="772" on="1"/>
      </contour>
      <contour>
        <pt x="176" y="238" on="1"/>
        <pt x="404" y="238" on="1"/>
        <pt x="354" y="373" on="1"/>
        <pt x="340" y="408" on="0"/>
        <pt x="310" y="497" on="0"/>
        <pt x="293" y="550" on="1"/>
        <pt x="291" y="550" on="1"/>
        <pt x="283" y="524" on="0"/>
        <pt x="267" y="478" on="0"/>
        <pt x="252" y="436" on="0"/>
        <pt x="237" y="395" on="0"/>
        <pt x="228" y="373" on="1"/>
      </contour>
      <contour>
        <pt x="260" y="630" on="1"/>
        <pt x="327" y="630" on="1"/>
        <pt x="571" y="0" on="1"/>
        <pt x="495" y="0" on="1"/>
        <pt x="426" y="180" on="1"/>
        <pt x="156" y="180" on="1"/>
        <pt x="87" y="0" on="1"/>
        <pt x="12" y="0" on="1"/>
      </contour>
    </TTGlyph>
    <TTGlyph name="Anusvara.tm" xMin="2" yMin="541" xMax="244" yMax="775">
      <contour>
        <pt x="125" y="775" on="1"/>
        <pt x="150" y="775" on="0"/>
        <pt x="194" y="757" on="0"/>
        <pt x="226" y="726" on="0"/>
        <pt x="244" y="683" on="0"/>
        <pt x="244" y="658" on="1"/>
        <pt x="244" y="629" on="0"/>
        <pt x="224" y="586" on="0"/>
        <pt x="191" y="556" on="0"/>
        <pt x="147" y="541" on="0"/>
        <pt x="122" y="541" on="1"/>
        <pt x="98" y="541" on="0"/>
        <pt x="55" y="556" on="0"/>
        <pt x="22" y="586" on="0"/>
        <pt x="2" y="629" on="0"/>
        <pt x="2" y="658" on="1"/>
        <pt x="2" y="709" on="0"/>
        <pt x="70" y="775" on="0"/>
      </contour>
      <contour>
        <pt x="122" y="731" on="1"/>
        <pt x="93" y="731" on="0"/>
        <pt x="56" y="692" on="0"/>
        <pt x="56" y="658" on="1"/>
        <pt x="56" y="622" on="0"/>
        <pt x="94" y="584" on="0"/>
        <pt x="125" y="584" on="1"/>
        <pt x="153" y="584" on="0"/>
        <pt x="190" y="623" on="0"/>
        <pt x="190" y="658" on="1"/>
        <pt x="190" y="693" on="0"/>
        <pt x="151" y="731" on="0"/>
      </contour>
    </TTGlyph>
    <TTGlyph name="Aogonek" xMin="12" yMin="-206" xMax="600" yMax="630">
      <contour>
        <pt x="260" y="630" on="1"/>
        <pt x="327" y="630" on="1"/>
        <pt x="571" y="0" on="1"/>
        <pt x="519" y="-23" on="0"/>
        <pt x="472" y="-71" on="0"/>
        <pt x="472" y="-100" on="1"/>
        <pt x="472" y="-127" on="0"/>
        <pt x="506" y="-156" on="0"/>
        <pt x="536" y="-156" on="1"/>
        <pt x="567" y="-156" on="0"/>
        <pt x="589" y="-146" on="1"/>
        <pt x="600" y="-185" on="1"/>
        <pt x="565" y="-206" on="0"/>
        <pt x="520" y="-206" on="1"/>
        <pt x="474" y="-206" on="0"/>
        <pt x="413" y="-156" on="0"/>
        <pt x="413" y="-109" on="1"/>
        <pt x="413" y="-71" on="0"/>
        <pt x="462" y="-15" on="0"/>
        <pt x="495" y="0" on="1"/>
        <pt x="426" y="180" on="1"/>
        <pt x="156" y="180" on="1"/>
        <pt x="87" y="0" on="1"/>
        <pt x="12" y="0" on="1"/>
      </contour>
      <contour>
        <pt x="176" y="238" on="1"/>
        <pt x="404" y="238" on="1"/>
        <pt x="354" y="373" on="1"/>
        <pt x="340" y="408" on="0"/>
        <pt x="310" y="497" on="0"/>
        <pt x="293" y="550" on="1"/>
        <pt x="291" y="550" on="1"/>
        <pt x="283" y="524" on="0"/>
        <pt x="267" y="478" on="0"/>
        <pt x="252" y="436" on="0"/>
        <pt x="237" y="395" on="0"/>
        <pt x="228" y="373" on="1"/>
      </contour>
    </TTGlyph>
    <TTGlyph name="Aring" xMin="12" yMin="0" xMax="571" yMax="843">
      <contour>
        <pt x="198" y="760" on="1"/>
        <pt x="198" y="803" on="0"/>
        <pt x="254" y="843" on="0"/>
        <pt x="293" y="843" on="1"/>
        <pt x="333" y="843" on="0"/>
        <pt x="388" y="803" on="0"/>
        <pt x="388" y="760" on="1"/>
        <pt x="388" y="738" on="0"/>
        <pt x="372" y="707" on="0"/>
        <pt x="346" y="687" on="0"/>
        <pt x="312" y="677" on="0"/>
        <pt x="293" y="677" on="1"/>
        <pt x="255" y="677" on="0"/>
        <pt x="198" y="718" on="0"/>
      </contour>
      <contour>
        <pt x="242" y="760" on="1"/>
        <pt x="242" y="735" on="0"/>
        <pt x="269" y="707" on="0"/>
        <pt x="293" y="707" on="1"/>
        <pt x="317" y="707" on="0"/>
        <pt x="344" y="735" on="0"/>
        <pt x="344" y="760" on="1"/>
        <pt x="344" y="784" on="0"/>
        <pt x="316" y="812" on="0"/>
        <pt x="293" y="812" on="1"/>
        <pt x="270" y="812" on="0"/>
        <pt x="242" y="784" on="0"/>
      </contour>
      <contour>
        <pt x="176" y="238" on="1"/>
        <pt x="404" y="238" on="1"/>
        <pt x="354" y="373" on="1"/>
        <pt x="340" y="408" on="0"/>
        <pt x="310" y="497" on="0"/>
        <pt x="293" y="550" on="1"/>
        <pt x="291" y="550" on="1"/>
        <pt x="283" y="524" on="0"/>
        <pt x="267" y="478" on="0"/>
        <pt x="252" y="436" on="0"/>
        <pt x="237" y="395" on="0"/>
        <pt x="228" y="373" on="1"/>
      </contour>
      <contour>
        <pt x="260" y="630" on="1"/>
        <pt x="327" y="630" on="1"/>
        <pt x="571" y="0" on="1"/>
        <pt x="495" y="0" on="1"/>
        <pt x="426" y="180" on="1"/>
        <pt x="156" y="180" on="1"/>
        <pt x="87" y="0" on="1"/>
        <pt x="12" y="0" on="1"/>
      </contour>
    </TTGlyph>
    <TTGlyph name="AsAboveSign.tm" xMin="45" yMin="-195" xMax="1713" yMax="719">
      <contour>
        <pt x="939" y="140" on="1"/>
        <pt x="939" y="174" on="0"/>
        <pt x="905" y="229" on="0"/>
        <pt x="857" y="275" on="0"/>
        <pt x="803" y="315" on="0"/>
        <pt x="782" y="335" on="1"/>
        <pt x="765" y="307" on="0"/>
        <pt x="745" y="231" on="0"/>
        <pt x="745" y="180" on="1"/>
        <pt x="745" y="111" on="0"/>
        <pt x="807" y="42" on="0"/>
        <pt x="849" y="42" on="1"/>
        <pt x="891" y="42" on="0"/>
        <pt x="939" y="93" on="0"/>
      </contour>
      <contour>
        <pt x="341" y="182" on="1"/>
        <pt x="341" y="154" on="0"/>
        <pt x="365" y="111" on="0"/>
        <pt x="404" y="81" on="0"/>
        <pt x="454" y="65" on="0"/>
        <pt x="479" y="65" on="1"/>
        <pt x="508" y="79" on="0"/>
        <pt x="546" y="136" on="0"/>
        <pt x="546" y="178" on="1"/>
        <pt x="546" y="225" on="0"/>
        <pt x="488" y="284" on="0"/>
        <pt x="442" y="284" on="1"/>
        <pt x="397" y="284" on="0"/>
        <pt x="341" y="228" on="0"/>
      </contour>
      <contour>
        <pt x="1132" y="0" on="1"/>
        <pt x="1112" y="39" on="1"/>
        <pt x="1179" y="117" on="0"/>
        <pt x="1179" y="232" on="1"/>
        <pt x="1179" y="280" on="0"/>
        <pt x="1151" y="360" on="0"/>
        <pt x="1098" y="418" on="0"/>
        <pt x="1021" y="450" on="0"/>
        <pt x="972" y="450" on="1"/>
        <pt x="919" y="450" on="0"/>
        <pt x="838" y="408" on="0"/>
        <pt x="812" y="377" on="1"/>
        <pt x="839" y="351" on="0"/>
        <pt x="902" y="304" on="0"/>
        <pt x="958" y="249" on="0"/>
        <pt x="995" y="183" on="0"/>
        <pt x="995" y="140" on="1"/>
        <pt x="995" y="105" on="0"/>
        <pt x="972" y="51" on="0"/>
        <pt x="933" y="13" on="0"/>
        <pt x="878" y="-6" on="0"/>
        <pt x="847" y="-6" on="1"/>
        <pt x="817" y="-6" on="0"/>
        <pt x="759" y="17" on="0"/>
        <pt x="715" y="64" on="0"/>
        <pt x="688" y="136" on="0"/>
        <pt x="688" y="186" on="1"/>
        <pt x="688" y="244" on="0"/>
        <pt x="722" y="339" on="0"/>
        <pt x="745" y="371" on="1"/>
        <pt x="728" y="390" on="0"/>
        <pt x="686" y="449" on="0"/>
        <pt x="662" y="489" on="1"/>
        <pt x="643" y="520" on="0"/>
        <pt x="594" y="584" on="0"/>
        <pt x="529" y="637" on="0"/>
        <pt x="445" y="670" on="0"/>
        <pt x="391" y="670" on="1"/>
        <pt x="331" y="670" on="0"/>
        <pt x="226" y="628" on="0"/>
        <pt x="148" y="547" on="0"/>
        <pt x="103" y="431" on="0"/>
        <pt x="103" y="356" on="1"/>
        <pt x="103" y="284" on="0"/>
        <pt x="146" y="167" on="0"/>
        <pt x="222" y="84" on="0"/>
        <pt x="326" y="39" on="0"/>
        <pt x="386" y="39" on="1"/>
        <pt x="401" y="39" on="0"/>
        <pt x="419" y="39" on="0"/>
        <pt x="425" y="41" on="1"/>
        <pt x="402" y="42" on="0"/>
        <pt x="353" y="63" on="0"/>
        <pt x="313" y="100" on="0"/>
        <pt x="287" y="152" on="0"/>
        <pt x="287" y="185" on="1"/>
        <pt x="287" y="216" on="0"/>
        <pt x="310" y="271" on="0"/>
        <pt x="352" y="310" on="0"/>
        <pt x="410" y="333" on="0"/>
        <pt x="444" y="333" on="1"/>
        <pt x="477" y="333" on="0"/>
        <pt x="535" y="311" on="0"/>
        <pt x="578" y="270" on="0"/>
        <pt x="602" y="215" on="0"/>
        <pt x="602" y="182" on="1"/>
        <pt x="602" y="141" on="0"/>
        <pt x="569" y="73" on="0"/>
        <pt x="509" y="23" on="0"/>
        <pt x="426" y="-4" on="0"/>
        <pt x="376" y="-4" on="1"/>
        <pt x="306" y="-4" on="0"/>
        <pt x="185" y="47" on="0"/>
        <pt x="96" y="141" on="0"/>
        <pt x="45" y="274" on="0"/>
        <pt x="45" y="356" on="1"/>
        <pt x="45" y="438" on="0"/>
        <pt x="99" y="572" on="0"/>
        <pt x="193" y="667" on="0"/>
        <pt x="320" y="719" on="0"/>
        <pt x="394" y="719" on="1"/>
        <pt x="460" y="719" on="0"/>
        <pt x="561" y="678" on="0"/>
        <pt x="637" y="613" on="0"/>
        <pt x="694" y="534" on="0"/>
        <pt x="717" y="497" on="1"/>
        <pt x="734" y="468" on="0"/>
        <pt x="763" y="427" on="0"/>
        <pt x="777" y="410" on="1"/>
        <pt x="812" y="447" on="0"/>
        <pt x="910" y="499" on="0"/>
        <pt x="976" y="499" on="1"/>
        <pt x="1033" y="499" on="0"/>
        <pt x="1129" y="459" on="0"/>
        <pt x="1198" y="388" on="0"/>
        <pt x="1237" y="292" on="0"/>
        <pt x="1237" y="235" on="1"/>
        <pt x="1237" y="203" on="0"/>
        <pt x="1227" y="146" on="0"/>
        <pt x="1211" y="98" on="0"/>
        <pt x="1192" y="60" on="0"/>
        <pt x="1183" y="47" on="1"/>
        <pt x="1386" y="47" on="1"/>
        <pt x="1478" y="236" on="1"/>
        <pt x="1401" y="236" on="0"/>
        <pt x="1307" y="309" on="0"/>
        <pt x="1307" y="371" on="1"/>
        <pt x="1307" y="400" on="0"/>
        <pt x="1328" y="447" on="0"/>
        <pt x="1366" y="481" on="0"/>
        <pt x="1416" y="499" on="0"/>
        <pt x="1445" y="499" on="1"/>
        <pt x="1474" y="499" on="0"/>
        <pt x="1524" y="480" on="0"/>
        <pt x="1560" y="445" on="0"/>
        <pt x="1581" y="397" on="0"/>
        <pt x="1581" y="369" on="1"/>
        <pt x="1581" y="347" on="0"/>
        <pt x="1567" y="301" on="0"/>
        <pt x="1558" y="281" on="1"/>
        <pt x="1627" y="279" on="0"/>
        <pt x="1713" y="211" on="0"/>
        <pt x="1713" y="147" on="1"/>
        <pt x="1713" y="82" on="0"/>
        <pt x="1621" y="0" on="0"/>
        <pt x="1526" y="0" on="1"/>
        <pt x="1423" y="0" on="1"/>
        <pt x="1325" y="-195" on="1"/>
        <pt x="1277" y="-170" on="1"/>
        <pt x="1364" y="0" on="1"/>
      </contour>
      <contour>
        <pt x="1537" y="235" on="1"/>
        <pt x="1445" y="47" on="1"/>
        <pt x="1531" y="47" on="1"/>
        <pt x="1595" y="47" on="0"/>
        <pt x="1654" y="105" on="0"/>
        <pt x="1654" y="147" on="1"/>
        <pt x="1654" y="190" on="0"/>
        <pt x="1597" y="235" on="0"/>
        <pt x="1546" y="235" on="1"/>
      </contour>
      <contour>
        <pt x="1365" y="372" on="1"/>
        <pt x="1365" y="330" on="0"/>
        <pt x="1430" y="283" on="0"/>
        <pt x="1488" y="283" on="1"/>
        <pt x="1499" y="283" on="1"/>
        <pt x="1523" y="326" on="0"/>
        <pt x="1523" y="366" on="1"/>
        <pt x="1523" y="403" on="0"/>
        <pt x="1480" y="450" on="0"/>
        <pt x="1442" y="450" on="1"/>
        <pt x="1407" y="450" on="0"/>
        <pt x="1365" y="407" on="0"/>
      </contour>
    </TTGlyph>
    <TTGlyph name="Asmall" xMin="1" yMin="0" xMax="440" yMax="470">
      <contour>
        <pt x="187" y="470" on="1"/>
        <pt x="257" y="470" on="1"/>
        <pt x="440" y="0" on="1"/>
        <pt x="373" y="0" on="1"/>
        <pt x="323" y="128" on="1"/>
        <pt x="116" y="128" on="1"/>
        <pt x="67" y="0" on="1"/>
        <pt x="1" y="0" on="1"/>
      </contour>
      <contour>
        <pt x="221" y="410" on="1"/>
        <pt x="211" y="378" on="0"/>
        <pt x="183" y="305" on="0"/>
        <pt x="173" y="280" on="1"/>
        <pt x="135" y="181" on="1"/>
        <pt x="304" y="181" on="1"/>
        <pt x="267" y="280" on="1"/>
        <pt x="258" y="305" on="0"/>
        <pt x="232" y="378" on="0"/>
        <pt x="223" y="410" on="1"/>
      </contour>
    </TTGlyph>
    <TTGlyph name="Atilde" xMin="12" yMin="0" xMax="571" yMax="820">
      <contour>
        <pt x="143" y="712" on="1"/>
        <pt x="143" y="756" on="0"/>
        <pt x="184" y="817" on="0"/>
        <pt x="230" y="817" on="1"/>
        <pt x="251" y="817" on="0"/>
        <pt x="284" y="802" on="0"/>
        <pt x="313" y="783" on="0"/>
        <pt x="340" y="768" on="0"/>
        <pt x="357" y="768" on="1"/>
        <pt x="380" y="768" on="0"/>
        <pt x="399" y="800" on="0"/>
        <pt x="401" y="820" on="1"/>
        <pt x="446" y="820" on="1"/>
        <pt x="446" y="800" on="0"/>
        <pt x="435" y="763" on="0"/>
        <pt x="414" y="735" on="0"/>
        <pt x="383" y="717" on="0"/>
        <pt x="362" y="717" on="1"/>
        <pt x="340" y="717" on="0"/>
        <pt x="304" y="732" on="0"/>
        <pt x="273" y="750" on="0"/>
        <pt x="246" y="765" on="0"/>
        <pt x="233" y="765" on="1"/>
        <pt x="209" y="765" on="0"/>
        <pt x="190" y="734" on="0"/>
        <pt x="188" y="712" on="1"/>
      </contour>
      <contour>
        <pt x="176" y="238" on="1"/>
        <pt x="404" y="238" on="1"/>
        <pt x="354" y="373" on="1"/>
        <pt x="340" y="408" on="0"/>
        <pt x="310" y="497" on="0"/>
        <pt x="293" y="550" on="1"/>
        <pt x="291" y="550" on="1"/>
        <pt x="283" y="524" on="0"/>
        <pt x="267" y="478" on="0"/>
        <pt x="252" y="436" on="0"/>
        <pt x="237" y="395" on="0"/>
        <pt x="228" y="373" on="1"/>
      </contour>
      <contour>
        <pt x="260" y="630" on="1"/>
        <pt x="327" y="630" on="1"/>
        <pt x="571" y="0" on="1"/>
        <pt x="495" y="0" on="1"/>
        <pt x="426" y="180" on="1"/>
        <pt x="156" y="180" on="1"/>
        <pt x="87" y="0" on="1"/>
        <pt x="12" y="0" on="1"/>
      </contour>
    </TTGlyph>
    <TTGlyph name="B" xMin="80" yMin="0" xMax="467" yMax="630">
      <contour>
        <pt x="249" y="630" on="1"/>
        <pt x="343" y="630" on="0"/>
        <pt x="448" y="549" on="0"/>
        <pt x="448" y="471" on="1"/>
        <pt x="448" y="413" on="0"/>
        <pt x="383" y="348" on="0"/>
        <pt x="334" y="335" on="1"/>
        <pt x="362" y="330" on="0"/>
        <pt x="410" y="305" on="0"/>
        <pt x="446" y="265" on="0"/>
        <pt x="467" y="210" on="0"/>
        <pt x="467" y="176" on="1"/>
        <pt x="467" y="137" on="0"/>
        <pt x="434" y="72" on="0"/>
        <pt x="374" y="26" on="0"/>
        <pt x="290" y="0" on="0"/>
        <pt x="240" y="0" on="1"/>
        <pt x="80" y="0" on="1"/>
        <pt x="80" y="630" on="1"/>
      </contour>
      <contour>
        <pt x="152" y="360" on="1"/>
        <pt x="228" y="360" on="1"/>
        <pt x="256" y="360" on="0"/>
        <pt x="309" y="370" on="0"/>
        <pt x="350" y="394" on="0"/>
        <pt x="374" y="435" on="0"/>
        <pt x="374" y="466" on="1"/>
        <pt x="374" y="522" on="0"/>
        <pt x="297" y="572" on="0"/>
        <pt x="235" y="572" on="1"/>
        <pt x="152" y="572" on="1"/>
      </contour>
      <contour>
        <pt x="152" y="58" on="1"/>
        <pt x="230" y="58" on="1"/>
        <pt x="263" y="58" on="0"/>
        <pt x="321" y="71" on="0"/>
        <pt x="365" y="101" on="0"/>
        <pt x="391" y="150" on="0"/>
        <pt x="391" y="185" on="1"/>
        <pt x="391" y="219" on="0"/>
        <pt x="363" y="264" on="0"/>
        <pt x="316" y="291" on="0"/>
        <pt x="255" y="303" on="0"/>
        <pt x="223" y="303" on="1"/>
        <pt x="152" y="303" on="1"/>
      </contour>
    </TTGlyph>
    <TTGlyph name="Bsmall" xMin="74" yMin="0" xMax="407" yMax="470">
      <contour>
        <pt x="237" y="470" on="1"/>
        <pt x="311" y="470" on="0"/>
        <pt x="387" y="406" on="0"/>
        <pt x="387" y="354" on="1"/>
        <pt x="387" y="316" on="0"/>
        <pt x="341" y="264" on="0"/>
        <pt x="305" y="252" on="1"/>
        <pt x="353" y="241" on="0"/>
        <pt x="407" y="183" on="0"/>
        <pt x="407" y="135" on="1"/>
        <pt x="407" y="107" on="0"/>
        <pt x="385" y="58" on="0"/>
        <pt x="342" y="21" on="0"/>
        <pt x="278" y="0" on="0"/>
        <pt x="236" y="0" on="1"/>
        <pt x="74" y="0" on="1"/>
        <pt x="74" y="470" on="1"/>
      </contour>
      <contour>
        <pt x="135" y="271" on="1"/>
        <pt x="221" y="271" on="1"/>
        <pt x="266" y="271" on="0"/>
        <pt x="317" y="309" on="0"/>
        <pt x="317" y="345" on="1"/>
        <pt x="317" y="379" on="0"/>
        <pt x="270" y="417" on="0"/>
        <pt x="216" y="417" on="1"/>
        <pt x="135" y="417" on="1"/>
      </contour>
      <contour>
        <pt x="135" y="53" on="1"/>
        <pt x="215" y="53" on="1"/>
        <pt x="272" y="53" on="0"/>
        <pt x="336" y="93" on="0"/>
        <pt x="336" y="141" on="1"/>
        <pt x="336" y="156" on="0"/>
        <pt x="325" y="184" on="0"/>
        <pt x="301" y="206" on="0"/>
        <pt x="263" y="219" on="0"/>
        <pt x="236" y="219" on="1"/>
        <pt x="135" y="219" on="1"/>
      </contour>
    </TTGlyph>
    <TTGlyph name="C" xMin="40" yMin="-9" xMax="511" yMax="638">
      <contour>
        <pt x="348" y="50" on="1"/>
        <pt x="397" y="50" on="0"/>
        <pt x="462" y="68" on="0"/>
        <pt x="491" y="82" on="1"/>
        <pt x="508" y="24" on="1"/>
        <pt x="475" y="8" on="0"/>
        <pt x="396" y="-9" on="0"/>
        <pt x="339" y="-9" on="1"/>
        <pt x="277" y="-9" on="0"/>
        <pt x="168" y="33" on="0"/>
        <pt x="87" y="115" on="0"/>
        <pt x="40" y="235" on="0"/>
        <pt x="40" y="314" on="1"/>
        <pt x="40" y="391" on="0"/>
        <pt x="85" y="512" on="0"/>
        <pt x="166" y="595" on="0"/>
        <pt x="276" y="638" on="0"/>
        <pt x="341" y="638" on="1"/>
        <pt x="400" y="638" on="0"/>
        <pt x="478" y="619" on="0"/>
        <pt x="511" y="602" on="1"/>
        <pt x="494" y="546" on="1"/>
        <pt x="459" y="563" on="0"/>
        <pt x="394" y="579" on="0"/>
        <pt x="352" y="579" on="1"/>
        <pt x="305" y="579" on="0"/>
        <pt x="220" y="549" on="0"/>
        <pt x="156" y="485" on="0"/>
        <pt x="117" y="384" on="0"/>
        <pt x="117" y="313" on="1"/>
        <pt x="117" y="240" on="0"/>
        <pt x="156" y="140" on="0"/>
        <pt x="221" y="78" on="0"/>
        <pt x="304" y="50" on="0"/>
      </contour>
    </TTGlyph>
    <TTGlyph name="Ca.tm" xMin="37" yMin="-6" xMax="575" yMax="495">
      <contour>
        <pt x="552" y="495" on="1"/>
        <pt x="552" y="449" on="1"/>
        <pt x="400" y="449" on="1"/>
        <pt x="400" y="288" on="1"/>
        <pt x="575" y="288" on="1"/>
        <pt x="575" y="243" on="1"/>
        <pt x="400" y="243" on="1"/>
        <pt x="400" y="147" on="1"/>
        <pt x="400" y="80" on="0"/>
        <pt x="309" y="-6" on="0"/>
        <pt x="225" y="-6" on="1"/>
        <pt x="183" y="-6" on="0"/>
        <pt x="114" y="17" on="0"/>
        <pt x="64" y="59" on="0"/>
        <pt x="37" y="117" on="0"/>
        <pt x="37" y="152" on="1"/>
        <pt x="37" y="178" on="0"/>
        <pt x="54" y="222" on="0"/>
        <pt x="81" y="255" on="0"/>
        <pt x="117" y="277" on="0"/>
        <pt x="137" y="281" on="1"/>
        <pt x="137" y="495" on="1"/>
      </contour>
      <contour>
        <pt x="193" y="242" on="1"/>
        <pt x="147" y="242" on="0"/>
        <pt x="93" y="194" on="0"/>
        <pt x="93" y="151" on="1"/>
        <pt x="93" y="102" on="0"/>
        <pt x="167" y="42" on="0"/>
        <pt x="228" y="42" on="1"/>
        <pt x="283" y="42" on="0"/>
        <pt x="345" y="102" on="0"/>
        <pt x="345" y="154" on="1"/>
        <pt x="345" y="242" on="1"/>
      </contour>
      <contour>
        <pt x="192" y="288" on="1"/>
        <pt x="345" y="288" on="1"/>
        <pt x="345" y="449" on="1"/>
        <pt x="192" y="449" on="1"/>
      </contour>
    </TTGlyph>
    <TTGlyph name="CaMatraI.tm" xMin="37" yMin="-6" xMax="735" yMax="749">
      <contour>
        <pt x="339" y="495" on="1"/>
        <pt x="332" y="513" on="0"/>
        <pt x="324" y="556" on="0"/>
        <pt x="324" y="579" on="1"/>
        <pt x="324" y="655" on="0"/>
        <pt x="427" y="749" on="0"/>
        <pt x="518" y="749" on="1"/>
        <pt x="624" y="749" on="0"/>
        <pt x="735" y="617" on="0"/>
        <pt x="735" y="497" on="1"/>
        <pt x="735" y="0" on="1"/>
        <pt x="680" y="0" on="1"/>
        <pt x="680" y="493" on="1"/>
        <pt x="680" y="595" on="0"/>
        <pt x="598" y="700" on="0"/>
        <pt x="513" y="700" on="1"/>
        <pt x="449" y="700" on="0"/>
        <pt x="380" y="631" on="0"/>
        <pt x="380" y="572" on="1"/>
        <pt x="380" y="528" on="0"/>
        <pt x="394" y="495" on="1"/>
        <pt x="552" y="495" on="1"/>
        <pt x="552" y="449" on="1"/>
        <pt x="400" y="449" on="1"/>
        <pt x="400" y="288" on="1"/>
        <pt x="575" y="288" on="1"/>
        <pt x="575" y="243" on="1"/>
        <pt x="400" y="243" on="1"/>
        <pt x="400" y="147" on="1"/>
        <pt x="400" y="80" on="0"/>
        <pt x="309" y="-6" on="0"/>
        <pt x="225" y="-6" on="1"/>
        <pt x="183" y="-6" on="0"/>
        <pt x="114" y="17" on="0"/>
        <pt x="64" y="59" on="0"/>
        <pt x="37" y="117" on="0"/>
        <pt x="37" y="152" on="1"/>
        <pt x="37" y="178" on="0"/>
        <pt x="54" y="222" on="0"/>
        <pt x="81" y="255" on="0"/>
        <pt x="117" y="277" on="0"/>
        <pt x="137" y="281" on="1"/>
        <pt x="137" y="495" on="1"/>
      </contour>
      <contour>
        <pt x="193" y="242" on="1"/>
        <pt x="147" y="242" on="0"/>
        <pt x="93" y="194" on="0"/>
        <pt x="93" y="151" on="1"/>
        <pt x="93" y="102" on="0"/>
        <pt x="167" y="42" on="0"/>
        <pt x="228" y="42" on="1"/>
        <pt x="283" y="42" on="0"/>
        <pt x="345" y="102" on="0"/>
        <pt x="345" y="154" on="1"/>
        <pt x="345" y="242" on="1"/>
      </contour>
      <contour>
        <pt x="192" y="288" on="1"/>
        <pt x="345" y="288" on="1"/>
        <pt x="345" y="449" on="1"/>
        <pt x="192" y="449" on="1"/>
      </contour>
    </TTGlyph>
    <TTGlyph name="CaMatraIi.tm" xMin="37" yMin="-6" xMax="624" yMax="791">
      <contour>
        <pt x="471" y="791" on="1"/>
        <pt x="544" y="791" on="0"/>
        <pt x="624" y="725" on="0"/>
        <pt x="624" y="677" on="1"/>
        <pt x="624" y="629" on="0"/>
        <pt x="561" y="573" on="0"/>
        <pt x="513" y="573" on="1"/>
        <pt x="468" y="573" on="0"/>
        <pt x="409" y="628" on="0"/>
        <pt x="409" y="670" on="1"/>
        <pt x="409" y="697" on="0"/>
        <pt x="432" y="738" on="0"/>
        <pt x="451" y="751" on="1"/>
        <pt x="402" y="748" on="0"/>
        <pt x="334" y="675" on="0"/>
        <pt x="334" y="616" on="1"/>
        <pt x="334" y="578" on="0"/>
        <pt x="367" y="515" on="0"/>
        <pt x="391" y="495" on="1"/>
        <pt x="552" y="495" on="1"/>
        <pt x="552" y="449" on="1"/>
        <pt x="400" y="449" on="1"/>
        <pt x="400" y="288" on="1"/>
        <pt x="575" y="288" on="1"/>
        <pt x="575" y="243" on="1"/>
        <pt x="400" y="243" on="1"/>
        <pt x="400" y="147" on="1"/>
        <pt x="400" y="80" on="0"/>
        <pt x="309" y="-6" on="0"/>
        <pt x="225" y="-6" on="1"/>
        <pt x="183" y="-6" on="0"/>
        <pt x="114" y="17" on="0"/>
        <pt x="64" y="59" on="0"/>
        <pt x="37" y="117" on="0"/>
        <pt x="37" y="152" on="1"/>
        <pt x="37" y="178" on="0"/>
        <pt x="54" y="222" on="0"/>
        <pt x="81" y="255" on="0"/>
        <pt x="117" y="277" on="0"/>
        <pt x="137" y="281" on="1"/>
        <pt x="137" y="495" on="1"/>
        <pt x="328" y="495" on="1"/>
        <pt x="305" y="518" on="0"/>
        <pt x="279" y="584" on="0"/>
        <pt x="279" y="618" on="1"/>
        <pt x="279" y="659" on="0"/>
        <pt x="309" y="723" on="0"/>
        <pt x="360" y="768" on="0"/>
        <pt x="430" y="791" on="0"/>
      </contour>
      <contour>
        <pt x="193" y="242" on="1"/>
        <pt x="147" y="242" on="0"/>
        <pt x="93" y="194" on="0"/>
        <pt x="93" y="151" on="1"/>
        <pt x="93" y="102" on="0"/>
        <pt x="167" y="42" on="0"/>
        <pt x="228" y="42" on="1"/>
        <pt x="283" y="42" on="0"/>
        <pt x="345" y="102" on="0"/>
        <pt x="345" y="154" on="1"/>
        <pt x="345" y="242" on="1"/>
      </contour>
      <contour>
        <pt x="192" y="288" on="1"/>
        <pt x="345" y="288" on="1"/>
        <pt x="345" y="449" on="1"/>
        <pt x="192" y="449" on="1"/>
      </contour>
      <contour>
        <pt x="573" y="677" on="1"/>
        <pt x="573" y="708" on="0"/>
        <pt x="535" y="745" on="0"/>
        <pt x="507" y="748" on="1"/>
        <pt x="485" y="740" on="0"/>
        <pt x="457" y="702" on="0"/>
        <pt x="457" y="676" on="1"/>
        <pt x="457" y="649" on="0"/>
        <pt x="489" y="616" on="0"/>
        <pt x="515" y="616" on="1"/>
        <pt x="540" y="616" on="0"/>
        <pt x="573" y="649" on="0"/>
      </contour>
    </TTGlyph>
    <TTGlyph name="CaMatraU.tm" xMin="37" yMin="-6" xMax="637" yMax="495">
      <contour>
        <pt x="559" y="495" on="1"/>
        <pt x="559" y="449" on="1"/>
        <pt x="400" y="449" on="1"/>
        <pt x="400" y="288" on="1"/>
        <pt x="637" y="288" on="1"/>
        <pt x="637" y="243" on="1"/>
        <pt x="565" y="243" on="1"/>
        <pt x="565" y="0" on="1"/>
        <pt x="510" y="0" on="1"/>
        <pt x="510" y="243" on="1"/>
        <pt x="400" y="243" on="1"/>
        <pt x="400" y="147" on="1"/>
        <pt x="400" y="80" on="0"/>
        <pt x="309" y="-6" on="0"/>
        <pt x="225" y="-6" on="1"/>
        <pt x="183" y="-6" on="0"/>
        <pt x="114" y="17" on="0"/>
        <pt x="64" y="59" on="0"/>
        <pt x="37" y="117" on="0"/>
        <pt x="37" y="152" on="1"/>
        <pt x="37" y="178" on="0"/>
        <pt x="54" y="222" on="0"/>
        <pt x="81" y="255" on="0"/>
        <pt x="117" y="277" on="0"/>
        <pt x="137" y="281" on="1"/>
        <pt x="137" y="495" on="1"/>
      </contour>
      <contour>
        <pt x="193" y="242" on="1"/>
        <pt x="147" y="242" on="0"/>
        <pt x="93" y="194" on="0"/>
        <pt x="93" y="151" on="1"/>
        <pt x="93" y="102" on="0"/>
        <pt x="167" y="42" on="0"/>
        <pt x="228" y="42" on="1"/>
        <pt x="283" y="42" on="0"/>
        <pt x="345" y="102" on="0"/>
        <pt x="345" y="154" on="1"/>
        <pt x="345" y="242" on="1"/>
      </contour>
      <contour>
        <pt x="192" y="288" on="1"/>
        <pt x="345" y="288" on="1"/>
        <pt x="345" y="449" on="1"/>
        <pt x="192" y="449" on="1"/>
      </contour>
    </TTGlyph>
    <TTGlyph name="CaMatraUu.tm" xMin="46" yMin="-263" xMax="998" yMax="502">
      <contour>
        <pt x="875" y="186" on="1"/>
        <pt x="930" y="186" on="0"/>
        <pt x="998" y="106" on="0"/>
        <pt x="998" y="43" on="1"/>
        <pt x="998" y="-22" on="0"/>
        <pt x="935" y="-134" on="0"/>
        <pt x="817" y="-216" on="0"/>
        <pt x="649" y="-263" on="0"/>
        <pt x="544" y="-263" on="1"/>
        <pt x="435" y="-263" on="0"/>
        <pt x="252" y="-206" on="0"/>
        <pt x="120" y="-100" on="0"/>
        <pt x="46" y="51" on="0"/>
        <pt x="46" y="145" on="1"/>
        <pt x="46" y="209" on="0"/>
        <pt x="74" y="317" on="0"/>
        <pt x="122" y="406" on="0"/>
        <pt x="186" y="476" on="0"/>
        <pt x="222" y="502" on="1"/>
        <pt x="254" y="462" on="1"/>
        <pt x="223" y="438" on="0"/>
        <pt x="169" y="374" on="0"/>
        <pt x="128" y="296" on="0"/>
        <pt x="104" y="201" on="0"/>
        <pt x="104" y="145" on="1"/>
        <pt x="104" y="64" on="0"/>
        <pt x="170" y="-68" on="0"/>
        <pt x="287" y="-163" on="0"/>
        <pt x="450" y="-214" on="0"/>
        <pt x="548" y="-214" on="1"/>
        <pt x="637" y="-214" on="0"/>
        <pt x="782" y="-175" on="0"/>
        <pt x="885" y="-107" on="0"/>
        <pt x="941" y="-13" on="0"/>
        <pt x="941" y="43" on="1"/>
        <pt x="941" y="88" on="0"/>
        <pt x="901" y="141" on="0"/>
        <pt x="863" y="141" on="1"/>
        <pt x="839" y="141" on="0"/>
        <pt x="794" y="109" on="0"/>
        <pt x="783" y="77" on="1"/>
        <pt x="783" y="0" on="1"/>
        <pt x="729" y="0" on="1"/>
        <pt x="729" y="242" on="1"/>
        <pt x="629" y="242" on="1"/>
        <pt x="629" y="147" on="1"/>
        <pt x="629" y="80" on="0"/>
        <pt x="539" y="-6" on="0"/>
        <pt x="454" y="-6" on="1"/>
        <pt x="412" y="-6" on="0"/>
        <pt x="343" y="17" on="0"/>
        <pt x="293" y="59" on="0"/>
        <pt x="266" y="117" on="0"/>
        <pt x="266" y="152" on="1"/>
        <pt x="266" y="178" on="0"/>
        <pt x="283" y="222" on="0"/>
        <pt x="310" y="255" on="0"/>
        <pt x="346" y="277" on="0"/>
        <pt x="366" y="281" on="1"/>
        <pt x="366" y="495" on="1"/>
        <pt x="797" y="495" on="1"/>
        <pt x="797" y="449" on="1"/>
        <pt x="629" y="449" on="1"/>
        <pt x="629" y="288" on="1"/>
        <pt x="878" y="288" on="1"/>
        <pt x="878" y="244" on="1"/>
        <pt x="781" y="244" on="1"/>
        <pt x="781" y="137" on="1"/>
        <pt x="796" y="159" on="0"/>
        <pt x="845" y="186" on="0"/>
      </contour>
      <contour>
        <pt x="423" y="242" on="1"/>
        <pt x="376" y="242" on="0"/>
        <pt x="322" y="194" on="0"/>
        <pt x="322" y="151" on="1"/>
        <pt x="322" y="102" on="0"/>
        <pt x="397" y="42" on="0"/>
        <pt x="457" y="42" on="1"/>
        <pt x="512" y="42" on="0"/>
        <pt x="574" y="102" on="0"/>
        <pt x="574" y="154" on="1"/>
        <pt x="574" y="242" on="1"/>
      </contour>
      <contour>
        <pt x="421" y="288" on="1"/>
        <pt x="574" y="288" on="1"/>
        <pt x="574" y="449" on="1"/>
        <pt x="421" y="449" on="1"/>
      </contour>
    </TTGlyph>
    <TTGlyph name="CaPulli.tm" xMin="37" yMin="-6" xMax="575" yMax="696">
      <contour>
        <pt x="552" y="495" on="1"/>
        <pt x="552" y="449" on="1"/>
        <pt x="400" y="449" on="1"/>
        <pt x="400" y="288" on="1"/>
        <pt x="575" y="288" on="1"/>
        <pt x="575" y="243" on="1"/>
        <pt x="400" y="243" on="1"/>
        <pt x="400" y="147" on="1"/>
        <pt x="400" y="80" on="0"/>
        <pt x="309" y="-6" on="0"/>
        <pt x="225" y="-6" on="1"/>
        <pt x="183" y="-6" on="0"/>
        <pt x="114" y="17" on="0"/>
        <pt x="64" y="59" on="0"/>
        <pt x="37" y="117" on="0"/>
        <pt x="37" y="152" on="1"/>
        <pt x="37" y="178" on="0"/>
        <pt x="54" y="222" on="0"/>
        <pt x="81" y="255" on="0"/>
        <pt x="117" y="277" on="0"/>
        <pt x="137" y="281" on="1"/>
        <pt x="137" y="495" on="1"/>
      </contour>
      <contour>
        <pt x="193" y="242" on="1"/>
        <pt x="147" y="242" on="0"/>
        <pt x="93" y="194" on="0"/>
        <pt x="93" y="151" on="1"/>
        <pt x="93" y="102" on="0"/>
        <pt x="167" y="42" on="0"/>
        <pt x="228" y="42" on="1"/>
        <pt x="283" y="42" on="0"/>
        <pt x="345" y="102" on="0"/>
        <pt x="345" y="154" on="1"/>
        <pt x="345" y="242" on="1"/>
      </contour>
      <contour>
        <pt x="192" y="288" on="1"/>
        <pt x="345" y="288" on="1"/>
        <pt x="345" y="449" on="1"/>
        <pt x="192" y="449" on="1"/>
      </contour>
      <contour>
        <pt x="304" y="696" on="1"/>
        <pt x="326" y="696" on="0"/>
        <pt x="354" y="667" on="0"/>
        <pt x="354" y="647" on="1"/>
        <pt x="354" y="627" on="0"/>
        <pt x="326" y="598" on="0"/>
        <pt x="306" y="598" on="1"/>
        <pt x="283" y="598" on="0"/>
        <pt x="255" y="627" on="0"/>
        <pt x="255" y="647" on="1"/>
        <pt x="255" y="667" on="0"/>
        <pt x="283" y="696" on="0"/>
      </contour>
    </TTGlyph>
    <TTGlyph name="Cacute" xMin="40" yMin="-9" xMax="511" yMax="834">
      <contour>
        <pt x="348" y="50" on="1"/>
        <pt x="397" y="50" on="0"/>
        <pt x="462" y="68" on="0"/>
        <pt x="491" y="82" on="1"/>
        <pt x="508" y="24" on="1"/>
        <pt x="475" y="8" on="0"/>
        <pt x="396" y="-9" on="0"/>
        <pt x="339" y="-9" on="1"/>
        <pt x="277" y="-9" on="0"/>
        <pt x="168" y="33" on="0"/>
        <pt x="87" y="115" on="0"/>
        <pt x="40" y="235" on="0"/>
        <pt x="40" y="314" on="1"/>
        <pt x="40" y="391" on="0"/>
        <pt x="85" y="512" on="0"/>
        <pt x="166" y="595" on="0"/>
        <pt x="276" y="638" on="0"/>
        <pt x="341" y="638" on="1"/>
        <pt x="400" y="638" on="0"/>
        <pt x="478" y="619" on="0"/>
        <pt x="511" y="602" on="1"/>
        <pt x="494" y="546" on="1"/>
        <pt x="459" y="563" on="0"/>
        <pt x="394" y="579" on="0"/>
        <pt x="352" y="579" on="1"/>
        <pt x="305" y="579" on="0"/>
        <pt x="220" y="549" on="0"/>
        <pt x="156" y="485" on="0"/>
        <pt x="117" y="384" on="0"/>
        <pt x="117" y="313" on="1"/>
        <pt x="117" y="240" on="0"/>
        <pt x="156" y="140" on="0"/>
        <pt x="221" y="78" on="0"/>
        <pt x="304" y="50" on="0"/>
      </contour>
      <contour>
        <pt x="307" y="710" on="1"/>
        <pt x="250" y="710" on="1"/>
        <pt x="335" y="834" on="1"/>
        <pt x="418" y="834" on="1"/>
      </contour>
    </TTGlyph>
    <TTGlyph name="Ccaron" xMin="40" yMin="-9" xMax="511" yMax="845">
      <contour>
        <pt x="348" y="50" on="1"/>
        <pt x="397" y="50" on="0"/>
        <pt x="462" y="68" on="0"/>
        <pt x="491" y="82" on="1"/>
        <pt x="508" y="24" on="1"/>
        <pt x="475" y="8" on="0"/>
        <pt x="396" y="-9" on="0"/>
        <pt x="339" y="-9" on="1"/>
        <pt x="277" y="-9" on="0"/>
        <pt x="168" y="33" on="0"/>
        <pt x="87" y="115" on="0"/>
        <pt x="40" y="235" on="0"/>
        <pt x="40" y="314" on="1"/>
        <pt x="40" y="391" on="0"/>
        <pt x="85" y="512" on="0"/>
        <pt x="166" y="595" on="0"/>
        <pt x="276" y="638" on="0"/>
        <pt x="341" y="638" on="1"/>
        <pt x="400" y="638" on="0"/>
        <pt x="478" y="619" on="0"/>
        <pt x="511" y="602" on="1"/>
        <pt x="494" y="546" on="1"/>
        <pt x="459" y="563" on="0"/>
        <pt x="394" y="579" on="0"/>
        <pt x="352" y="579" on="1"/>
        <pt x="305" y="579" on="0"/>
        <pt x="220" y="549" on="0"/>
        <pt x="156" y="485" on="0"/>
        <pt x="117" y="384" on="0"/>
        <pt x="117" y="313" on="1"/>
        <pt x="117" y="240" on="0"/>
        <pt x="156" y="140" on="0"/>
        <pt x="221" y="78" on="0"/>
        <pt x="304" y="50" on="0"/>
      </contour>
      <contour>
        <pt x="186" y="845" on="1"/>
        <pt x="254" y="845" on="1"/>
        <pt x="338" y="752" on="1"/>
        <pt x="422" y="845" on="1"/>
        <pt x="492" y="845" on="1"/>
        <pt x="367" y="711" on="1"/>
        <pt x="308" y="711" on="1"/>
      </contour>
    </TTGlyph>
    <TTGlyph name="Ccedilla" xMin="40" yMin="-214" xMax="511" yMax="638">
      <contour>
        <pt x="348" y="50" on="1"/>
        <pt x="397" y="50" on="0"/>
        <pt x="462" y="68" on="0"/>
        <pt x="491" y="82" on="1"/>
        <pt x="508" y="24" on="1"/>
        <pt x="476" y="9" on="0"/>
        <pt x="402" y="-8" on="0"/>
        <pt x="348" y="-9" on="1"/>
        <pt x="331" y="-47" on="1"/>
        <pt x="359" y="-48" on="0"/>
        <pt x="398" y="-62" on="0"/>
        <pt x="423" y="-84" on="0"/>
        <pt x="434" y="-111" on="0"/>
        <pt x="434" y="-126" on="1"/>
        <pt x="434" y="-168" on="0"/>
        <pt x="365" y="-214" on="0"/>
        <pt x="313" y="-214" on="1"/>
        <pt x="290" y="-214" on="0"/>
        <pt x="251" y="-207" on="0"/>
        <pt x="239" y="-202" on="1"/>
        <pt x="250" y="-165" on="1"/>
        <pt x="263" y="-170" on="0"/>
        <pt x="292" y="-174" on="0"/>
        <pt x="306" y="-174" on="1"/>
        <pt x="344" y="-174" on="0"/>
        <pt x="379" y="-149" on="0"/>
        <pt x="379" y="-128" on="1"/>
        <pt x="379" y="-118" on="0"/>
        <pt x="371" y="-100" on="0"/>
        <pt x="349" y="-86" on="0"/>
        <pt x="307" y="-78" on="0"/>
        <pt x="273" y="-78" on="1"/>
        <pt x="307" y="-7" on="1"/>
        <pt x="250" y="-2" on="0"/>
        <pt x="153" y="44" on="0"/>
        <pt x="81" y="125" on="0"/>
        <pt x="40" y="240" on="0"/>
        <pt x="40" y="314" on="1"/>
        <pt x="40" y="391" on="0"/>
        <pt x="85" y="512" on="0"/>
        <pt x="166" y="595" on="0"/>
        <pt x="276" y="638" on="0"/>
        <pt x="341" y="638" on="1"/>
        <pt x="400" y="638" on="0"/>
        <pt x="478" y="619" on="0"/>
        <pt x="511" y="602" on="1"/>
        <pt x="494" y="546" on="1"/>
        <pt x="459" y="563" on="0"/>
        <pt x="394" y="579" on="0"/>
        <pt x="352" y="579" on="1"/>
        <pt x="305" y="579" on="0"/>
        <pt x="220" y="549" on="0"/>
        <pt x="156" y="485" on="0"/>
        <pt x="117" y="384" on="0"/>
        <pt x="117" y="313" on="1"/>
        <pt x="117" y="240" on="0"/>
        <pt x="156" y="140" on="0"/>
        <pt x="221" y="78" on="0"/>
        <pt x="304" y="50" on="0"/>
      </contour>
    </TTGlyph>
    <TTGlyph name="Ccircumflex" xMin="40" yMin="-9" xMax="511" yMax="844">
      <contour>
        <pt x="348" y="50" on="1"/>
        <pt x="397" y="50" on="0"/>
        <pt x="462" y="68" on="0"/>
        <pt x="491" y="82" on="1"/>
        <pt x="508" y="24" on="1"/>
        <pt x="475" y="8" on="0"/>
        <pt x="396" y="-9" on="0"/>
        <pt x="339" y="-9" on="1"/>
        <pt x="277" y="-9" on="0"/>
        <pt x="168" y="33" on="0"/>
        <pt x="87" y="115" on="0"/>
        <pt x="40" y="235" on="0"/>
        <pt x="40" y="314" on="1"/>
        <pt x="40" y="391" on="0"/>
        <pt x="85" y="512" on="0"/>
        <pt x="166" y="595" on="0"/>
        <pt x="276" y="638" on="0"/>
        <pt x="341" y="638" on="1"/>
        <pt x="400" y="638" on="0"/>
        <pt x="478" y="619" on="0"/>
        <pt x="511" y="602" on="1"/>
        <pt x="494" y="546" on="1"/>
        <pt x="459" y="563" on="0"/>
        <pt x="394" y="579" on="0"/>
        <pt x="352" y="579" on="1"/>
        <pt x="305" y="579" on="0"/>
        <pt x="220" y="549" on="0"/>
        <pt x="156" y="485" on="0"/>
        <pt x="117" y="384" on="0"/>
        <pt x="117" y="313" on="1"/>
        <pt x="117" y="240" on="0"/>
        <pt x="156" y="140" on="0"/>
        <pt x="221" y="78" on="0"/>
        <pt x="304" y="50" on="0"/>
      </contour>
      <contour>
        <pt x="303" y="844" on="1"/>
        <pt x="362" y="844" on="1"/>
        <pt x="487" y="710" on="1"/>
        <pt x="417" y="710" on="1"/>
        <pt x="332" y="801" on="1"/>
        <pt x="247" y="710" on="1"/>
        <pt x="181" y="710" on="1"/>
      </contour>
    </TTGlyph>
    <TTGlyph name="Cdotaccent" xMin="40" yMin="-9" xMax="511" yMax="822">
      <contour>
        <pt x="348" y="50" on="1"/>
        <pt x="397" y="50" on="0"/>
        <pt x="462" y="68" on="0"/>
        <pt x="491" y="82" on="1"/>
        <pt x="508" y="24" on="1"/>
        <pt x="475" y="8" on="0"/>
        <pt x="396" y="-9" on="0"/>
        <pt x="339" y="-9" on="1"/>
        <pt x="277" y="-9" on="0"/>
        <pt x="168" y="33" on="0"/>
        <pt x="87" y="115" on="0"/>
        <pt x="40" y="235" on="0"/>
        <pt x="40" y="314" on="1"/>
        <pt x="40" y="391" on="0"/>
        <pt x="85" y="512" on="0"/>
        <pt x="166" y="595" on="0"/>
        <pt x="276" y="638" on="0"/>
        <pt x="341" y="638" on="1"/>
        <pt x="400" y="638" on="0"/>
        <pt x="478" y="619" on="0"/>
        <pt x="511" y="602" on="1"/>
        <pt x="494" y="546" on="1"/>
        <pt x="459" y="563" on="0"/>
        <pt x="394" y="579" on="0"/>
        <pt x="352" y="579" on="1"/>
        <pt x="305" y="579" on="0"/>
        <pt x="220" y="549" on="0"/>
        <pt x="156" y="485" on="0"/>
        <pt x="117" y="384" on="0"/>
        <pt x="117" y="313" on="1"/>
        <pt x="117" y="240" on="0"/>
        <pt x="156" y="140" on="0"/>
        <pt x="221" y="78" on="0"/>
        <pt x="304" y="50" on="0"/>
      </contour>
      <contour>
        <pt x="290" y="772" on="1"/>
        <pt x="290" y="792" on="0"/>
        <pt x="318" y="822" on="0"/>
        <pt x="338" y="822" on="1"/>
        <pt x="358" y="822" on="0"/>
        <pt x="386" y="792" on="0"/>
        <pt x="386" y="772" on="1"/>
        <pt x="386" y="750" on="0"/>
        <pt x="358" y="722" on="0"/>
        <pt x="338" y="722" on="1"/>
        <pt x="318" y="722" on="0"/>
        <pt x="290" y="750" on="0"/>
      </contour>
    </TTGlyph>
    <TTGlyph name="CreditSign.tm" xMin="47" yMin="-6" xMax="1242" yMax="495">
      <contour>
        <pt x="874" y="393" on="1"/>
        <pt x="925" y="393" on="0"/>
        <pt x="1006" y="361" on="0"/>
        <pt x="1064" y="305" on="0"/>
        <pt x="1095" y="228" on="0"/>
        <pt x="1095" y="183" on="1"/>
        <pt x="1095" y="138" on="0"/>
        <pt x="1072" y="69" on="0"/>
        <pt x="1059" y="47" on="1"/>
        <pt x="1242" y="47" on="1"/>
        <pt x="1242" y="0" on="1"/>
        <pt x="1014" y="0" on="1"/>
        <pt x="996" y="39" on="1"/>
        <pt x="1015" y="68" on="0"/>
        <pt x="1039" y="137" on="0"/>
        <pt x="1039" y="182" on="1"/>
        <pt x="1039" y="257" on="0"/>
        <pt x="950" y="346" on="0"/>
        <pt x="870" y="346" on="1"/>
        <pt x="813" y="346" on="0"/>
        <pt x="734" y="294" on="0"/>
        <pt x="719" y="250" on="1"/>
        <pt x="735" y="259" on="0"/>
        <pt x="772" y="270" on="0"/>
        <pt x="794" y="270" on="1"/>
        <pt x="823" y="270" on="0"/>
        <pt x="876" y="252" on="0"/>
        <pt x="915" y="217" on="0"/>
        <pt x="938" y="165" on="0"/>
        <pt x="938" y="132" on="1"/>
        <pt x="938" y="102" on="0"/>
        <pt x="918" y="51" on="0"/>
        <pt x="880" y="15" on="0"/>
        <pt x="828" y="-6" on="0"/>
        <pt x="796" y="-6" on="1"/>
        <pt x="763" y="-6" on="0"/>
        <pt x="710" y="18" on="0"/>
        <pt x="673" y="62" on="0"/>
        <pt x="654" y="121" on="0"/>
        <pt x="654" y="156" on="1"/>
        <pt x="654" y="157" on="0"/>
        <pt x="653" y="159" on="0"/>
        <pt x="653" y="160" on="1"/>
        <pt x="639" y="147" on="0"/>
        <pt x="609" y="109" on="0"/>
        <pt x="581" y="65" on="0"/>
        <pt x="558" y="19" on="0"/>
        <pt x="551" y="0" on="1"/>
        <pt x="499" y="0" on="1"/>
        <pt x="499" y="448" on="1"/>
        <pt x="355" y="448" on="1"/>
        <pt x="242" y="448" on="0"/>
        <pt x="104" y="325" on="0"/>
        <pt x="99" y="210" on="1"/>
        <pt x="116" y="246" on="0"/>
        <pt x="182" y="288" on="0"/>
        <pt x="224" y="288" on="1"/>
        <pt x="255" y="288" on="0"/>
        <pt x="308" y="266" on="0"/>
        <pt x="347" y="228" on="0"/>
        <pt x="369" y="175" on="0"/>
        <pt x="369" y="145" on="1"/>
        <pt x="369" y="112" on="0"/>
        <pt x="346" y="56" on="0"/>
        <pt x="305" y="16" on="0"/>
        <pt x="249" y="-6" on="0"/>
        <pt x="215" y="-6" on="1"/>
        <pt x="178" y="-6" on="0"/>
        <pt x="117" y="24" on="0"/>
        <pt x="72" y="79" on="0"/>
        <pt x="47" y="158" on="0"/>
        <pt x="47" y="207" on="1"/>
        <pt x="47" y="277" on="0"/>
        <pt x="94" y="384" on="0"/>
        <pt x="178" y="457" on="0"/>
        <pt x="292" y="495" on="0"/>
        <pt x="358" y="495" on="1"/>
        <pt x="669" y="495" on="1"/>
        <pt x="669" y="448" on="1"/>
        <pt x="555" y="448" on="1"/>
        <pt x="555" y="95" on="1"/>
        <pt x="573" y="130" on="0"/>
        <pt x="631" y="196" on="0"/>
        <pt x="658" y="216" on="1"/>
        <pt x="665" y="256" on="0"/>
        <pt x="703" y="321" on="0"/>
        <pt x="760" y="368" on="0"/>
        <pt x="832" y="393" on="0"/>
      </contour>
      <contour>
        <pt x="213" y="241" on="1"/>
        <pt x="193" y="241" on="0"/>
        <pt x="158" y="225" on="0"/>
        <pt x="130" y="199" on="0"/>
        <pt x="110" y="164" on="0"/>
        <pt x="106" y="145" on="1"/>
        <pt x="117" y="92" on="0"/>
        <pt x="178" y="41" on="0"/>
        <pt x="215" y="41" on="1"/>
        <pt x="259" y="41" on="0"/>
        <pt x="313" y="97" on="0"/>
        <pt x="313" y="142" on="1"/>
        <pt x="313" y="187" on="0"/>
        <pt x="259" y="241" on="0"/>
      </contour>
      <contour>
        <pt x="788" y="225" on="1"/>
        <pt x="764" y="225" on="0"/>
        <pt x="723" y="210" on="0"/>
        <pt x="707" y="196" on="1"/>
        <pt x="706" y="188" on="0"/>
        <pt x="705" y="171" on="0"/>
        <pt x="705" y="160" on="1"/>
        <pt x="705" y="106" on="0"/>
        <pt x="755" y="42" on="0"/>
        <pt x="799" y="42" on="1"/>
        <pt x="835" y="42" on="0"/>
        <pt x="884" y="90" on="0"/>
        <pt x="884" y="132" on="1"/>
        <pt x="884" y="175" on="0"/>
        <pt x="830" y="225" on="0"/>
      </contour>
    </TTGlyph>
    <TTGlyph name="Csmall" xMin="41" yMin="-9" xMax="408" yMax="476">
      <contour>
        <pt x="288" y="43" on="1"/>
        <pt x="320" y="43" on="0"/>
        <pt x="370" y="57" on="0"/>
        <pt x="393" y="68" on="1"/>
        <pt x="408" y="18" on="1"/>
        <pt x="354" y="-9" on="0"/>
        <pt x="281" y="-9" on="1"/>
        <pt x="231" y="-9" on="0"/>
        <pt x="144" y="21" on="0"/>
        <pt x="79" y="82" on="0"/>
        <pt x="41" y="173" on="0"/>
        <pt x="41" y="234" on="1"/>
        <pt x="41" y="290" on="0"/>
        <pt x="76" y="380" on="0"/>
        <pt x="140" y="443" on="0"/>
        <pt x="227" y="476" on="0"/>
        <pt x="280" y="476" on="1"/>
        <pt x="312" y="476" on="0"/>
        <pt x="373" y="465" on="0"/>
        <pt x="406" y="451" on="1"/>
        <pt x="390" y="399" on="1"/>
        <pt x="366" y="412" on="0"/>
        <pt x="314" y="423" on="0"/>
        <pt x="288" y="423" on="1"/>
        <pt x="208" y="423" on="0"/>
        <pt x="111" y="324" on="0"/>
        <pt x="111" y="237" on="1"/>
        <pt x="111" y="182" on="0"/>
        <pt x="142" y="107" on="0"/>
        <pt x="191" y="62" on="0"/>
        <pt x="255" y="43" on="0"/>
      </contour>
    </TTGlyph>
    <TTGlyph name="D" xMin="80" yMin="0" xMax="576" yMax="630">
      <contour>
        <pt x="275" y="630" on="1"/>
        <pt x="339" y="630" on="0"/>
        <pt x="450" y="592" on="0"/>
        <pt x="530" y="517" on="0"/>
        <pt x="576" y="404" on="0"/>
        <pt x="576" y="329" on="1"/>
        <pt x="576" y="238" on="0"/>
        <pt x="522" y="112" on="0"/>
        <pt x="430" y="34" on="0"/>
        <pt x="308" y="0" on="0"/>
        <pt x="240" y="0" on="1"/>
        <pt x="80" y="0" on="1"/>
        <pt x="80" y="630" on="1"/>
      </contour>
      <contour>
        <pt x="152" y="59" on="1"/>
        <pt x="231" y="59" on="1"/>
        <pt x="281" y="59" on="0"/>
        <pt x="377" y="82" on="0"/>
        <pt x="453" y="143" on="0"/>
        <pt x="499" y="248" on="0"/>
        <pt x="499" y="329" on="1"/>
        <pt x="499" y="387" on="0"/>
        <pt x="464" y="477" on="0"/>
        <pt x="401" y="539" on="0"/>
        <pt x="311" y="571" on="0"/>
        <pt x="257" y="571" on="1"/>
        <pt x="152" y="571" on="1"/>
      </contour>
    </TTGlyph>
    <TTGlyph name="DaySign.tm" xMin="51" yMin="-6" xMax="762" yMax="499">
      <contour>
        <pt x="322" y="499" on="1"/>
        <pt x="378" y="499" on="0"/>
        <pt x="473" y="460" on="0"/>
        <pt x="542" y="390" on="0"/>
        <pt x="581" y="293" on="0"/>
        <pt x="581" y="235" on="1"/>
        <pt x="581" y="170" on="0"/>
        <pt x="546" y="72" on="0"/>
        <pt x="529" y="47" on="1"/>
        <pt x="762" y="47" on="1"/>
        <pt x="762" y="0" on="1"/>
        <pt x="479" y="0" on="1"/>
        <pt x="460" y="39" on="1"/>
        <pt x="490" y="77" on="0"/>
        <pt x="522" y="175" on="0"/>
        <pt x="522" y="232" on="1"/>
        <pt x="522" y="282" on="0"/>
        <pt x="493" y="362" on="0"/>
        <pt x="440" y="419" on="0"/>
        <pt x="364" y="450" on="0"/>
        <pt x="317" y="450" on="1"/>
        <pt x="269" y="450" on="0"/>
        <pt x="190" y="416" on="0"/>
        <pt x="133" y="355" on="0"/>
        <pt x="102" y="269" on="0"/>
        <pt x="102" y="218" on="1"/>
        <pt x="102" y="208" on="1"/>
        <pt x="119" y="245" on="0"/>
        <pt x="186" y="288" on="0"/>
        <pt x="228" y="288" on="1"/>
        <pt x="259" y="288" on="0"/>
        <pt x="312" y="266" on="0"/>
        <pt x="351" y="228" on="0"/>
        <pt x="373" y="175" on="0"/>
        <pt x="373" y="145" on="1"/>
        <pt x="373" y="112" on="0"/>
        <pt x="350" y="56" on="0"/>
        <pt x="309" y="16" on="0"/>
        <pt x="253" y="-6" on="0"/>
        <pt x="219" y="-6" on="1"/>
        <pt x="182" y="-6" on="0"/>
        <pt x="120" y="25" on="0"/>
        <pt x="76" y="82" on="0"/>
        <pt x="51" y="164" on="0"/>
        <pt x="51" y="215" on="1"/>
        <pt x="51" y="279" on="0"/>
        <pt x="91" y="383" on="0"/>
        <pt x="163" y="458" on="0"/>
        <pt x="262" y="499" on="0"/>
      </contour>
      <contour>
        <pt x="217" y="241" on="1"/>
        <pt x="197" y="241" on="0"/>
        <pt x="162" y="226" on="0"/>
        <pt x="134" y="200" on="0"/>
        <pt x="114" y="165" on="0"/>
        <pt x="110" y="146" on="1"/>
        <pt x="120" y="92" on="0"/>
        <pt x="182" y="41" on="0"/>
        <pt x="219" y="41" on="1"/>
        <pt x="263" y="41" on="0"/>
        <pt x="316" y="97" on="0"/>
        <pt x="316" y="142" on="1"/>
        <pt x="316" y="187" on="0"/>
        <pt x="263" y="241" on="0"/>
      </contour>
    </TTGlyph>
    <TTGlyph name="Dcaron" xMin="80" yMin="0" xMax="576" yMax="844">
      <contour>
        <pt x="275" y="630" on="1"/>
        <pt x="339" y="630" on="0"/>
        <pt x="450" y="592" on="0"/>
        <pt x="530" y="517" on="0"/>
        <pt x="576" y="404" on="0"/>
        <pt x="576" y="329" on="1"/>
        <pt x="576" y="238" on="0"/>
        <pt x="522" y="112" on="0"/>
        <pt x="430" y="34" on="0"/>
        <pt x="308" y="0" on="0"/>
        <pt x="240" y="0" on="1"/>
        <pt x="80" y="0" on="1"/>
        <pt x="80" y="630" on="1"/>
      </contour>
      <contour>
        <pt x="152" y="59" on="1"/>
        <pt x="231" y="59" on="1"/>
        <pt x="281" y="59" on="0"/>
        <pt x="377" y="82" on="0"/>
        <pt x="453" y="143" on="0"/>
        <pt x="499" y="248" on="0"/>
        <pt x="499" y="329" on="1"/>
        <pt x="499" y="387" on="0"/>
        <pt x="464" y="477" on="0"/>
        <pt x="401" y="539" on="0"/>
        <pt x="311" y="571" on="0"/>
        <pt x="257" y="571" on="1"/>
        <pt x="152" y="571" on="1"/>
      </contour>
      <contour>
        <pt x="123" y="844" on="1"/>
        <pt x="189" y="844" on="1"/>
        <pt x="274" y="753" on="1"/>
        <pt x="359" y="844" on="1"/>
        <pt x="429" y="844" on="1"/>
        <pt x="304" y="710" on="1"/>
        <pt x="245" y="710" on="1"/>
      </contour>
    </TTGlyph>
    <TTGlyph name="Dcroat" xMin="30" yMin="0" xMax="606" yMax="630">
      <contour>
        <pt x="305" y="630" on="1"/>
        <pt x="369" y="630" on="0"/>
        <pt x="480" y="592" on="0"/>
        <pt x="560" y="517" on="0"/>
        <pt x="606" y="404" on="0"/>
        <pt x="606" y="329" on="1"/>
        <pt x="606" y="238" on="0"/>
        <pt x="552" y="112" on="0"/>
        <pt x="460" y="34" on="0"/>
        <pt x="338" y="0" on="0"/>
        <pt x="270" y="0" on="1"/>
        <pt x="110" y="0" on="1"/>
        <pt x="110" y="303" on="1"/>
        <pt x="30" y="303" on="1"/>
        <pt x="30" y="355" on="1"/>
        <pt x="110" y="355" on="1"/>
        <pt x="110" y="630" on="1"/>
      </contour>
      <contour>
        <pt x="330" y="355" on="1"/>
        <pt x="330" y="303" on="1"/>
        <pt x="182" y="303" on="1"/>
        <pt x="182" y="59" on="1"/>
        <pt x="261" y="59" on="1"/>
        <pt x="311" y="59" on="0"/>
        <pt x="407" y="82" on="0"/>
        <pt x="483" y="143" on="0"/>
        <pt x="529" y="248" on="0"/>
        <pt x="529" y="329" on="1"/>
        <pt x="529" y="387" on="0"/>
        <pt x="494" y="477" on="0"/>
        <pt x="431" y="539" on="0"/>
        <pt x="341" y="571" on="0"/>
        <pt x="287" y="571" on="1"/>
        <pt x="182" y="571" on="1"/>
        <pt x="182" y="355" on="1"/>
      </contour>
    </TTGlyph>
    <TTGlyph name="DebitSign.tm" xMin="55" yMin="-282" xMax="785" yMax="495">
      <contour>
        <pt x="785" y="495" on="1"/>
        <pt x="785" y="-115" on="1"/>
        <pt x="567" y="-115" on="1"/>
        <pt x="556" y="-190" on="0"/>
        <pt x="412" y="-282" on="0"/>
        <pt x="290" y="-282" on="1"/>
        <pt x="237" y="-282" on="0"/>
        <pt x="150" y="-262" on="0"/>
        <pt x="88" y="-227" on="0"/>
        <pt x="55" y="-177" on="0"/>
        <pt x="55" y="-147" on="1"/>
        <pt x="55" y="-109" on="0"/>
        <pt x="104" y="-69" on="0"/>
        <pt x="146" y="-69" on="1"/>
        <pt x="516" y="-69" on="1"/>
        <pt x="516" y="0" on="1"/>
        <pt x="74" y="0" on="1"/>
        <pt x="74" y="495" on="1"/>
        <pt x="132" y="495" on="1"/>
        <pt x="132" y="49" on="1"/>
        <pt x="513" y="49" on="1"/>
        <pt x="513" y="495" on="1"/>
        <pt x="571" y="495" on="1"/>
        <pt x="571" y="-69" on="1"/>
        <pt x="728" y="-69" on="1"/>
        <pt x="728" y="495" on="1"/>
      </contour>
      <contour>
        <pt x="293" y="-234" on="1"/>
        <pt x="386" y="-234" on="0"/>
        <pt x="501" y="-170" on="0"/>
        <pt x="512" y="-115" on="1"/>
        <pt x="149" y="-115" on="1"/>
        <pt x="130" y="-115" on="0"/>
        <pt x="111" y="-135" on="0"/>
        <pt x="111" y="-150" on="1"/>
        <pt x="111" y="-168" on="0"/>
        <pt x="137" y="-199" on="0"/>
        <pt x="185" y="-222" on="0"/>
        <pt x="252" y="-234" on="0"/>
      </contour>
    </TTGlyph>
    <TTGlyph name="DottedCircle" xMin="11" yMin="-8" xMax="513" yMax="503">
      <contour>
        <pt x="234" y="20" on="1"/>
        <pt x="234" y="32" on="0"/>
        <pt x="250" y="49" on="0"/>
        <pt x="261" y="49" on="1"/>
        <pt x="273" y="49" on="0"/>
        <pt x="291" y="32" on="0"/>
        <pt x="291" y="20" on="1"/>
        <pt x="291" y="8" on="0"/>
        <pt x="273" y="-8" on="0"/>
        <pt x="261" y="-8" on="1"/>
        <pt x="250" y="-8" on="0"/>
        <pt x="234" y="9" on="0"/>
      </contour>
      <contour>
        <pt x="234" y="474" on="1"/>
        <pt x="234" y="487" on="0"/>
        <pt x="250" y="503" on="0"/>
        <pt x="261" y="503" on="1"/>
        <pt x="273" y="503" on="0"/>
        <pt x="291" y="487" on="0"/>
        <pt x="291" y="474" on="1"/>
        <pt x="291" y="463" on="0"/>
        <pt x="273" y="446" on="0"/>
        <pt x="261" y="446" on="1"/>
        <pt x="249" y="446" on="0"/>
        <pt x="234" y="462" on="0"/>
      </contour>
      <contour>
        <pt x="11" y="247" on="1"/>
        <pt x="11" y="259" on="0"/>
        <pt x="27" y="275" on="0"/>
        <pt x="39" y="275" on="1"/>
        <pt x="51" y="275" on="0"/>
        <pt x="68" y="259" on="0"/>
        <pt x="68" y="247" on="1"/>
        <pt x="68" y="235" on="0"/>
        <pt x="51" y="219" on="0"/>
        <pt x="39" y="219" on="1"/>
        <pt x="27" y="219" on="0"/>
        <pt x="11" y="235" on="0"/>
      </contour>
      <contour>
        <pt x="456" y="247" on="1"/>
        <pt x="456" y="259" on="0"/>
        <pt x="472" y="275" on="0"/>
        <pt x="484" y="275" on="1"/>
        <pt x="497" y="275" on="0"/>
        <pt x="513" y="259" on="0"/>
        <pt x="513" y="247" on="1"/>
        <pt x="513" y="235" on="0"/>
        <pt x="497" y="219" on="0"/>
        <pt x="484" y="219" on="1"/>
        <pt x="472" y="219" on="0"/>
        <pt x="456" y="235" on="0"/>
      </contour>
      <contour>
        <pt x="78" y="403" on="1"/>
        <pt x="78" y="415" on="0"/>
        <pt x="94" y="432" on="0"/>
        <pt x="106" y="432" on="1"/>
        <pt x="118" y="432" on="0"/>
        <pt x="135" y="415" on="0"/>
        <pt x="135" y="403" on="1"/>
        <pt x="135" y="391" on="0"/>
        <pt x="117" y="375" on="0"/>
        <pt x="106" y="375" on="1"/>
        <pt x="94" y="375" on="0"/>
        <pt x="78" y="391" on="0"/>
      </contour>
      <contour>
        <pt x="78" y="91" on="1"/>
        <pt x="78" y="104" on="0"/>
        <pt x="93" y="120" on="0"/>
        <pt x="106" y="120" on="1"/>
        <pt x="118" y="120" on="0"/>
        <pt x="135" y="103" on="0"/>
        <pt x="135" y="91" on="1"/>
        <pt x="135" y="79" on="0"/>
        <pt x="118" y="63" on="0"/>
        <pt x="106" y="63" on="1"/>
        <pt x="94" y="63" on="0"/>
        <pt x="78" y="79" on="0"/>
      </contour>
      <contour>
        <pt x="390" y="91" on="1"/>
        <pt x="390" y="104" on="0"/>
        <pt x="405" y="120" on="0"/>
        <pt x="417" y="120" on="1"/>
        <pt x="430" y="120" on="0"/>
        <pt x="446" y="104" on="0"/>
        <pt x="446" y="91" on="1"/>
        <pt x="446" y="79" on="0"/>
        <pt x="429" y="63" on="0"/>
        <pt x="417" y="63" on="1"/>
        <pt x="406" y="63" on="0"/>
        <pt x="390" y="79" on="0"/>
      </contour>
      <contour>
        <pt x="390" y="403" on="1"/>
        <pt x="390" y="415" on="0"/>
        <pt x="406" y="432" on="0"/>
        <pt x="417" y="432" on="1"/>
        <pt x="429" y="432" on="0"/>
        <pt x="446" y="415" on="0"/>
        <pt x="446" y="403" on="1"/>
        <pt x="446" y="391" on="0"/>
        <pt x="430" y="375" on="0"/>
        <pt x="417" y="375" on="1"/>
        <pt x="405" y="375" on="0"/>
        <pt x="390" y="391" on="0"/>
      </contour>
    </TTGlyph>
    <TTGlyph name="Dsmall" xMin="74" yMin="0" xMax="464" yMax="470">
      <contour>
        <pt x="217" y="470" on="1"/>
        <pt x="265" y="470" on="0"/>
        <pt x="354" y="446" on="0"/>
        <pt x="423" y="392" on="0"/>
        <pt x="464" y="307" on="0"/>
        <pt x="464" y="246" on="1"/>
        <pt x="464" y="182" on="0"/>
        <pt x="425" y="89" on="0"/>
        <pt x="357" y="29" on="0"/>
        <pt x="264" y="0" on="0"/>
        <pt x="211" y="0" on="1"/>
        <pt x="74" y="0" on="1"/>
        <pt x="74" y="470" on="1"/>
      </contour>
      <contour>
        <pt x="142" y="53" on="1"/>
        <pt x="191" y="53" on="1"/>
        <pt x="222" y="53" on="0"/>
        <pt x="294" y="66" on="0"/>
        <pt x="354" y="106" on="0"/>
        <pt x="394" y="181" on="0"/>
        <pt x="394" y="243" on="1"/>
        <pt x="394" y="331" on="0"/>
        <pt x="291" y="416" on="0"/>
        <pt x="191" y="416" on="1"/>
        <pt x="142" y="416" on="1"/>
      </contour>
    </TTGlyph>
    <TTGlyph name="E" xMin="80" yMin="0" xMax="453" yMax="630">
      <contour>
        <pt x="80" y="630" on="1"/>
        <pt x="450" y="630" on="1"/>
        <pt x="450" y="571" on="1"/>
        <pt x="152" y="571" on="1"/>
        <pt x="152" y="355" on="1"/>
        <pt x="424" y="355" on="1"/>
        <pt x="424" y="296" on="1"/>
        <pt x="152" y="296" on="1"/>
        <pt x="152" y="59" on="1"/>
        <pt x="453" y="59" on="1"/>
        <pt x="453" y="0" on="1"/>
        <pt x="80" y="0" on="1"/>
      </contour>
    </TTGlyph>
    <TTGlyph name="Eacute" xMin="80" yMin="0" xMax="453" yMax="834">
      <contour>
        <pt x="80" y="630" on="1"/>
        <pt x="450" y="630" on="1"/>
        <pt x="450" y="571" on="1"/>
        <pt x="152" y="571" on="1"/>
        <pt x="152" y="355" on="1"/>
        <pt x="424" y="355" on="1"/>
        <pt x="424" y="296" on="1"/>
        <pt x="152" y="296" on="1"/>
        <pt x="152" y="59" on="1"/>
        <pt x="453" y="59" on="1"/>
        <pt x="453" y="0" on="1"/>
        <pt x="80" y="0" on="1"/>
      </contour>
      <contour>
        <pt x="257" y="710" on="1"/>
        <pt x="200" y="710" on="1"/>
        <pt x="285" y="834" on="1"/>
        <pt x="368" y="834" on="1"/>
      </contour>
    </TTGlyph>
    <TTGlyph name="Ebreve" xMin="80" yMin="0" xMax="453" yMax="840">
      <contour>
        <pt x="80" y="630" on="1"/>
        <pt x="450" y="630" on="1"/>
        <pt x="450" y="571" on="1"/>
        <pt x="152" y="571" on="1"/>
        <pt x="152" y="355" on="1"/>
        <pt x="424" y="355" on="1"/>
        <pt x="424" y="296" on="1"/>
        <pt x="152" y="296" on="1"/>
        <pt x="152" y="59" on="1"/>
        <pt x="453" y="59" on="1"/>
        <pt x="453" y="0" on="1"/>
        <pt x="80" y="0" on="1"/>
      </contour>
      <contour>
        <pt x="192" y="840" on="1"/>
        <pt x="194" y="805" on="0"/>
        <pt x="228" y="763" on="0"/>
        <pt x="272" y="763" on="1"/>
        <pt x="309" y="763" on="0"/>
        <pt x="348" y="803" on="0"/>
        <pt x="350" y="840" on="1"/>
        <pt x="405" y="840" on="1"/>
        <pt x="405" y="786" on="0"/>
        <pt x="337" y="716" on="0"/>
        <pt x="272" y="716" on="1"/>
        <pt x="236" y="716" on="0"/>
        <pt x="185" y="737" on="0"/>
        <pt x="152" y="771" on="0"/>
        <pt x="136" y="816" on="0"/>
        <pt x="136" y="840" on="1"/>
      </contour>
    </TTGlyph>
    <TTGlyph name="Ecaron" xMin="80" yMin="0" xMax="453" yMax="845">
      <contour>
        <pt x="80" y="630" on="1"/>
        <pt x="450" y="630" on="1"/>
        <pt x="450" y="571" on="1"/>
        <pt x="152" y="571" on="1"/>
        <pt x="152" y="355" on="1"/>
        <pt x="424" y="355" on="1"/>
        <pt x="424" y="296" on="1"/>
        <pt x="152" y="296" on="1"/>
        <pt x="152" y="59" on="1"/>
        <pt x="453" y="59" on="1"/>
        <pt x="453" y="0" on="1"/>
        <pt x="80" y="0" on="1"/>
      </contour>
      <contour>
        <pt x="121" y="845" on="1"/>
        <pt x="189" y="845" on="1"/>
        <pt x="273" y="752" on="1"/>
        <pt x="358" y="845" on="1"/>
        <pt x="427" y="845" on="1"/>
        <pt x="302" y="711" on="1"/>
        <pt x="243" y="711" on="1"/>
      </contour>
    </TTGlyph>
    <TTGlyph name="Ecircumflex" xMin="80" yMin="0" xMax="453" yMax="844">
      <contour>
        <pt x="80" y="630" on="1"/>
        <pt x="450" y="630" on="1"/>
        <pt x="450" y="571" on="1"/>
        <pt x="152" y="571" on="1"/>
        <pt x="152" y="355" on="1"/>
        <pt x="424" y="355" on="1"/>
        <pt x="424" y="296" on="1"/>
        <pt x="152" y="296" on="1"/>
        <pt x="152" y="59" on="1"/>
        <pt x="453" y="59" on="1"/>
        <pt x="453" y="0" on="1"/>
        <pt x="80" y="0" on="1"/>
      </contour>
      <contour>
        <pt x="234" y="844" on="1"/>
        <pt x="293" y="844" on="1"/>
        <pt x="418" y="710" on="1"/>
        <pt x="348" y="710" on="1"/>
        <pt x="263" y="801" on="1"/>
        <pt x="178" y="710" on="1"/>
        <pt x="112" y="710" on="1"/>
      </contour>
    </TTGlyph>
    <TTGlyph name="Edieresis" xMin="80" yMin="0" xMax="453" yMax="810">
      <contour>
        <pt x="80" y="630" on="1"/>
        <pt x="450" y="630" on="1"/>
        <pt x="450" y="571" on="1"/>
        <pt x="152" y="571" on="1"/>
        <pt x="152" y="355" on="1"/>
        <pt x="424" y="355" on="1"/>
        <pt x="424" y="296" on="1"/>
        <pt x="152" y="296" on="1"/>
        <pt x="152" y="59" on="1"/>
        <pt x="453" y="59" on="1"/>
        <pt x="453" y="0" on="1"/>
        <pt x="80" y="0" on="1"/>
      </contour>
      <contour>
        <pt x="139" y="763" on="1"/>
        <pt x="139" y="783" on="0"/>
        <pt x="165" y="810" on="0"/>
        <pt x="184" y="810" on="1"/>
        <pt x="202" y="810" on="0"/>
        <pt x="229" y="783" on="0"/>
        <pt x="229" y="763" on="1"/>
        <pt x="229" y="743" on="0"/>
        <pt x="202" y="716" on="0"/>
        <pt x="184" y="716" on="1"/>
        <pt x="165" y="716" on="0"/>
        <pt x="139" y="743" on="0"/>
      </contour>
      <contour>
        <pt x="307" y="763" on="1"/>
        <pt x="307" y="783" on="0"/>
        <pt x="333" y="810" on="0"/>
        <pt x="352" y="810" on="1"/>
        <pt x="370" y="810" on="0"/>
        <pt x="397" y="783" on="0"/>
        <pt x="397" y="763" on="1"/>
        <pt x="397" y="743" on="0"/>
        <pt x="370" y="716" on="0"/>
        <pt x="352" y="716" on="1"/>
        <pt x="333" y="716" on="0"/>
        <pt x="307" y="743" on="0"/>
      </contour>
    </TTGlyph>
    <TTGlyph name="Edotaccent" xMin="80" yMin="0" xMax="453" yMax="822">
      <contour>
        <pt x="80" y="630" on="1"/>
        <pt x="450" y="630" on="1"/>
        <pt x="450" y="571" on="1"/>
        <pt x="152" y="571" on="1"/>
        <pt x="152" y="355" on="1"/>
        <pt x="424" y="355" on="1"/>
        <pt x="424" y="296" on="1"/>
        <pt x="152" y="296" on="1"/>
        <pt x="152" y="59" on="1"/>
        <pt x="453" y="59" on="1"/>
        <pt x="453" y="0" on="1"/>
        <pt x="80" y="0" on="1"/>
      </contour>
      <contour>
        <pt x="226" y="772" on="1"/>
        <pt x="226" y="792" on="0"/>
        <pt x="254" y="822" on="0"/>
        <pt x="274" y="822" on="1"/>
        <pt x="294" y="822" on="0"/>
        <pt x="322" y="792" on="0"/>
        <pt x="322" y="772" on="1"/>
        <pt x="322" y="750" on="0"/>
        <pt x="294" y="722" on="0"/>
        <pt x="274" y="722" on="1"/>
        <pt x="254" y="722" on="0"/>
        <pt x="226" y="750" on="0"/>
      </contour>
    </TTGlyph>
    <TTGlyph name="Egrave" xMin="80" yMin="0" xMax="453" yMax="834">
      <contour>
        <pt x="80" y="630" on="1"/>
        <pt x="450" y="630" on="1"/>
        <pt x="450" y="571" on="1"/>
        <pt x="152" y="571" on="1"/>
        <pt x="152" y="355" on="1"/>
        <pt x="424" y="355" on="1"/>
        <pt x="424" y="296" on="1"/>
        <pt x="152" y="296" on="1"/>
        <pt x="152" y="59" on="1"/>
        <pt x="453" y="59" on="1"/>
        <pt x="453" y="0" on="1"/>
        <pt x="80" y="0" on="1"/>
      </contour>
      <contour>
        <pt x="180" y="834" on="1"/>
        <pt x="263" y="834" on="1"/>
        <pt x="348" y="710" on="1"/>
        <pt x="291" y="710" on="1"/>
      </contour>
    </TTGlyph>
    <TTGlyph name="Eight.tm" xMin="19" yMin="-83" xMax="903" yMax="499">
      <contour>
        <pt x="657" y="191" on="1"/>
        <pt x="659" y="199" on="0"/>
        <pt x="661" y="227" on="0"/>
        <pt x="661" y="243" on="1"/>
        <pt x="661" y="289" on="0"/>
        <pt x="634" y="366" on="0"/>
        <pt x="584" y="420" on="0"/>
        <pt x="515" y="450" on="0"/>
        <pt x="472" y="450" on="1"/>
        <pt x="415" y="450" on="0"/>
        <pt x="358" y="397" on="0"/>
        <pt x="358" y="358" on="1"/>
        <pt x="358" y="323" on="0"/>
        <pt x="397" y="285" on="0"/>
        <pt x="418" y="277" on="1"/>
        <pt x="403" y="234" on="1"/>
        <pt x="383" y="238" on="0"/>
        <pt x="347" y="259" on="0"/>
        <pt x="319" y="291" on="0"/>
        <pt x="302" y="333" on="0"/>
        <pt x="302" y="359" on="1"/>
        <pt x="302" y="389" on="0"/>
        <pt x="326" y="440" on="0"/>
        <pt x="371" y="477" on="0"/>
        <pt x="435" y="499" on="0"/>
        <pt x="475" y="499" on="1"/>
        <pt x="529" y="499" on="0"/>
        <pt x="619" y="461" on="0"/>
        <pt x="683" y="392" on="0"/>
        <pt x="719" y="298" on="0"/>
        <pt x="719" y="243" on="1"/>
        <pt x="719" y="227" on="0"/>
        <pt x="718" y="199" on="0"/>
        <pt x="716" y="191" on="1"/>
        <pt x="847" y="191" on="1"/>
        <pt x="847" y="495" on="1"/>
        <pt x="903" y="495" on="1"/>
        <pt x="903" y="-83" on="1"/>
        <pt x="847" y="-83" on="1"/>
        <pt x="847" y="145" on="1"/>
        <pt x="708" y="145" on="1"/>
        <pt x="692" y="91" on="0"/>
        <pt x="624" y="13" on="0"/>
        <pt x="526" y="-38" on="0"/>
        <pt x="405" y="-62" on="0"/>
        <pt x="337" y="-62" on="1"/>
        <pt x="268" y="-62" on="0"/>
        <pt x="152" y="-39" on="0"/>
        <pt x="67" y="3" on="0"/>
        <pt x="19" y="64" on="0"/>
        <pt x="19" y="103" on="1"/>
        <pt x="19" y="145" on="0"/>
        <pt x="74" y="191" on="0"/>
        <pt x="131" y="191" on="1"/>
      </contour>
      <contour>
        <pt x="340" y="-12" on="1"/>
        <pt x="397" y="-12" on="0"/>
        <pt x="497" y="7" on="0"/>
        <pt x="576" y="46" on="0"/>
        <pt x="633" y="105" on="0"/>
        <pt x="648" y="145" on="1"/>
        <pt x="132" y="145" on="1"/>
        <pt x="103" y="145" on="0"/>
        <pt x="77" y="121" on="0"/>
        <pt x="77" y="100" on="1"/>
        <pt x="77" y="76" on="0"/>
        <pt x="114" y="35" on="0"/>
        <pt x="183" y="5" on="0"/>
        <pt x="280" y="-12" on="0"/>
      </contour>
    </TTGlyph>
    <TTGlyph name="Ek_Type" xMin="100" yMin="-312" xMax="1089" yMax="636">
      <contour>
        <pt x="800" y="531" on="1"/>
        <pt x="800" y="403" on="1"/>
        <pt x="814" y="421" on="0"/>
        <pt x="867" y="447" on="0"/>
        <pt x="902" y="447" on="1"/>
        <pt x="977" y="447" on="0"/>
        <pt x="1062" y="351" on="0"/>
        <pt x="1062" y="266" on="1"/>
        <pt x="1062" y="224" on="0"/>
        <pt x="1037" y="156" on="0"/>
        <pt x="991" y="107" on="0"/>
        <pt x="925" y="81" on="0"/>
        <pt x="885" y="81" on="1"/>
        <pt x="876" y="81" on="0"/>
        <pt x="852" y="84" on="0"/>
        <pt x="841" y="87" on="1"/>
        <pt x="854" y="184" on="1"/>
        <pt x="869" y="184" on="1"/>
        <pt x="927" y="184" on="0"/>
        <pt x="927" y="266" on="1"/>
        <pt x="927" y="301" on="0"/>
        <pt x="894" y="340" on="0"/>
        <pt x="865" y="340" on="1"/>
        <pt x="836" y="340" on="0"/>
        <pt x="807" y="299" on="0"/>
        <pt x="803" y="276" on="1"/>
        <pt x="803" y="0" on="1"/>
        <pt x="672" y="0" on="1"/>
        <pt x="672" y="113" on="1"/>
        <pt x="657" y="95" on="0"/>
        <pt x="603" y="74" on="0"/>
        <pt x="579" y="74" on="1"/>
        <pt x="549" y="74" on="0"/>
        <pt x="489" y="94" on="0"/>
        <pt x="441" y="139" on="0"/>
        <pt x="411" y="211" on="0"/>
        <pt x="411" y="263" on="1"/>
        <pt x="411" y="352" on="0"/>
        <pt x="493" y="447" on="0"/>
        <pt x="568" y="447" on="1"/>
        <pt x="600" y="447" on="0"/>
        <pt x="654" y="428" on="0"/>
        <pt x="672" y="411" on="1"/>
        <pt x="672" y="531" on="1"/>
        <pt x="330" y="531" on="1"/>
        <pt x="330" y="50" on="1"/>
        <pt x="549" y="-40" on="0"/>
        <pt x="818" y="-164" on="0"/>
        <pt x="883" y="-197" on="1"/>
        <pt x="822" y="-312" on="1"/>
        <pt x="778" y="-291" on="0"/>
        <pt x="661" y="-235" on="0"/>
        <pt x="507" y="-163" on="0"/>
        <pt x="314" y="-73" on="0"/>
        <pt x="195" y="-18" on="1"/>
        <pt x="195" y="531" on="1"/>
        <pt x="100" y="531" on="1"/>
        <pt x="100" y="636" on="1"/>
        <pt x="1089" y="636" on="1"/>
        <pt x="1089" y="531" on="1"/>
      </contour>
      <contour>
        <pt x="675" y="309" on="1"/>
        <pt x="665" y="320" on="0"/>
        <pt x="633" y="338" on="0"/>
        <pt x="613" y="338" on="1"/>
        <pt x="584" y="338" on="0"/>
        <pt x="548" y="297" on="0"/>
        <pt x="548" y="262" on="1"/>
        <pt x="548" y="225" on="0"/>
        <pt x="582" y="182" on="0"/>
        <pt x="611" y="182" on="1"/>
        <pt x="667" y="182" on="0"/>
        <pt x="675" y="236" on="1"/>
      </contour>
    </TTGlyph>
    <TTGlyph name="Emacron" xMin="80" yMin="0" xMax="453" yMax="772">
      <contour>
        <pt x="80" y="630" on="1"/>
        <pt x="450" y="630" on="1"/>
        <pt x="450" y="571" on="1"/>
        <pt x="152" y="571" on="1"/>
        <pt x="152" y="355" on="1"/>
        <pt x="424" y="355" on="1"/>
        <pt x="424" y="296" on="1"/>
        <pt x="152" y="296" on="1"/>
        <pt x="152" y="59" on="1"/>
        <pt x="453" y="59" on="1"/>
        <pt x="453" y="0" on="1"/>
        <pt x="80" y="0" on="1"/>
      </contour>
      <contour>
        <pt x="390" y="772" on="1"/>
        <pt x="390" y="720" on="1"/>
        <pt x="145" y="720" on="1"/>
        <pt x="145" y="772" on="1"/>
      </contour>
    </TTGlyph>
    <TTGlyph name="Eng" xMin="80" yMin="-228" xMax="563" yMax="630">
      <contour>
        <pt x="241" y="385" on="1"/>
        <pt x="144" y="570" on="1"/>
        <pt x="141" y="570" on="1"/>
        <pt x="150" y="366" on="1"/>
        <pt x="150" y="0" on="1"/>
        <pt x="80" y="0" on="1"/>
        <pt x="80" y="630" on="1"/>
        <pt x="175" y="630" on="1"/>
        <pt x="416" y="228" on="1"/>
        <pt x="497" y="77" on="1"/>
        <pt x="499" y="77" on="1"/>
        <pt x="493" y="246" on="1"/>
        <pt x="493" y="630" on="1"/>
        <pt x="563" y="630" on="1"/>
        <pt x="563" y="61" on="1"/>
        <pt x="563" y="5" on="0"/>
        <pt x="550" y="-83" on="0"/>
        <pt x="515" y="-153" on="0"/>
        <pt x="457" y="-207" on="0"/>
        <pt x="412" y="-228" on="1"/>
        <pt x="379" y="-174" on="1"/>
        <pt x="434" y="-146" on="0"/>
        <pt x="486" y="-75" on="0"/>
        <pt x="491" y="-16" on="1"/>
      </contour>
    </TTGlyph>
    <TTGlyph name="Eogonek" xMin="80" yMin="-206" xMax="479" yMax="630">
      <contour>
        <pt x="453" y="0" on="1"/>
        <pt x="405" y="-19" on="0"/>
        <pt x="351" y="-69" on="0"/>
        <pt x="351" y="-101" on="1"/>
        <pt x="351" y="-127" on="0"/>
        <pt x="386" y="-156" on="0"/>
        <pt x="415" y="-156" on="1"/>
        <pt x="446" y="-156" on="0"/>
        <pt x="468" y="-146" on="1"/>
        <pt x="479" y="-185" on="1"/>
        <pt x="444" y="-206" on="0"/>
        <pt x="399" y="-206" on="1"/>
        <pt x="353" y="-206" on="0"/>
        <pt x="292" y="-156" on="0"/>
        <pt x="292" y="-109" on="1"/>
        <pt x="292" y="-71" on="0"/>
        <pt x="339" y="-16" on="0"/>
        <pt x="373" y="-2" on="1"/>
        <pt x="373" y="0" on="1"/>
        <pt x="80" y="0" on="1"/>
        <pt x="80" y="630" on="1"/>
        <pt x="450" y="630" on="1"/>
        <pt x="450" y="571" on="1"/>
        <pt x="152" y="571" on="1"/>
        <pt x="152" y="355" on="1"/>
        <pt x="424" y="355" on="1"/>
        <pt x="424" y="296" on="1"/>
        <pt x="152" y="296" on="1"/>
        <pt x="152" y="59" on="1"/>
        <pt x="453" y="59" on="1"/>
      </contour>
    </TTGlyph>
    <TTGlyph name="Esmall" xMin="74" yMin="0" xMax="378" yMax="470">
      <contour>
        <pt x="74" y="470" on="1"/>
        <pt x="376" y="470" on="1"/>
        <pt x="376" y="417" on="1"/>
        <pt x="141" y="417" on="1"/>
        <pt x="141" y="269" on="1"/>
        <pt x="356" y="269" on="1"/>
        <pt x="356" y="217" on="1"/>
        <pt x="141" y="217" on="1"/>
        <pt x="141" y="53" on="1"/>
        <pt x="378" y="53" on="1"/>
        <pt x="378" y="0" on="1"/>
        <pt x="74" y="0" on="1"/>
      </contour>
    </TTGlyph>
    <TTGlyph name="Eth" xMin="30" yMin="0" xMax="606" yMax="630">
      <contour>
        <pt x="305" y="630" on="1"/>
        <pt x="369" y="630" on="0"/>
        <pt x="480" y="592" on="0"/>
        <pt x="560" y="517" on="0"/>
        <pt x="606" y="404" on="0"/>
        <pt x="606" y="329" on="1"/>
        <pt x="606" y="238" on="0"/>
        <pt x="552" y="112" on="0"/>
        <pt x="460" y="34" on="0"/>
        <pt x="338" y="0" on="0"/>
        <pt x="270" y="0" on="1"/>
        <pt x="110" y="0" on="1"/>
        <pt x="110" y="303" on="1"/>
        <pt x="30" y="303" on="1"/>
        <pt x="30" y="355" on="1"/>
        <pt x="110" y="355" on="1"/>
        <pt x="110" y="630" on="1"/>
      </contour>
      <contour>
        <pt x="330" y="355" on="1"/>
        <pt x="330" y="303" on="1"/>
        <pt x="182" y="303" on="1"/>
        <pt x="182" y="59" on="1"/>
        <pt x="261" y="59" on="1"/>
        <pt x="311" y="59" on="0"/>
        <pt x="407" y="82" on="0"/>
        <pt x="483" y="143" on="0"/>
        <pt x="529" y="248" on="0"/>
        <pt x="529" y="329" on="1"/>
        <pt x="529" y="387" on="0"/>
        <pt x="494" y="477" on="0"/>
        <pt x="431" y="539" on="0"/>
        <pt x="341" y="571" on="0"/>
        <pt x="287" y="571" on="1"/>
        <pt x="182" y="571" on="1"/>
        <pt x="182" y="355" on="1"/>
      </contour>
    </TTGlyph>
    <TTGlyph name="Euro" xMin="26" yMin="-6" xMax="442" yMax="510">
      <contour>
        <pt x="308" y="510" on="1"/>
        <pt x="356" y="510" on="0"/>
        <pt x="415" y="494" on="0"/>
        <pt x="442" y="480" on="1"/>
        <pt x="427" y="435" on="1"/>
        <pt x="399" y="449" on="0"/>
        <pt x="349" y="462" on="0"/>
        <pt x="318" y="462" on="1"/>
        <pt x="286" y="462" on="0"/>
        <pt x="227" y="444" on="0"/>
        <pt x="180" y="406" on="0"/>
        <pt x="148" y="350" on="0"/>
        <pt x="142" y="311" on="1"/>
        <pt x="381" y="311" on="1"/>
        <pt x="381" y="272" on="1"/>
        <pt x="137" y="272" on="1"/>
        <pt x="137" y="256" on="1"/>
        <pt x="137" y="247" on="0"/>
        <pt x="138" y="230" on="0"/>
        <pt x="139" y="219" on="1"/>
        <pt x="381" y="219" on="1"/>
        <pt x="381" y="180" on="1"/>
        <pt x="143" y="180" on="1"/>
        <pt x="150" y="142" on="0"/>
        <pt x="184" y="90" on="0"/>
        <pt x="230" y="57" on="0"/>
        <pt x="285" y="42" on="0"/>
        <pt x="314" y="42" on="1"/>
        <pt x="351" y="42" on="0"/>
        <pt x="402" y="56" on="0"/>
        <pt x="425" y="67" on="1"/>
        <pt x="440" y="21" on="1"/>
        <pt x="414" y="7" on="0"/>
        <pt x="353" y="-6" on="0"/>
        <pt x="307" y="-6" on="1"/>
        <pt x="265" y="-6" on="0"/>
        <pt x="191" y="18" on="0"/>
        <pt x="132" y="64" on="0"/>
        <pt x="92" y="134" on="0"/>
        <pt x="84" y="180" on="1"/>
        <pt x="26" y="180" on="1"/>
        <pt x="26" y="219" on="1"/>
        <pt x="79" y="219" on="1"/>
        <pt x="78" y="229" on="0"/>
        <pt x="77" y="244" on="0"/>
        <pt x="77" y="254" on="1"/>
        <pt x="77" y="272" on="1"/>
        <pt x="26" y="272" on="1"/>
        <pt x="26" y="311" on="1"/>
        <pt x="83" y="311" on="1"/>
        <pt x="97" y="407" on="0"/>
        <pt x="216" y="510" on="0"/>
      </contour>
    </TTGlyph>
    <TTGlyph name="Euro.lat" xMin="5" yMin="-9" xMax="521" yMax="638">
      <contour>
        <pt x="363" y="50" on="1"/>
        <pt x="408" y="50" on="0"/>
        <pt x="472" y="68" on="0"/>
        <pt x="501" y="82" on="1"/>
        <pt x="518" y="24" on="1"/>
        <pt x="485" y="8" on="0"/>
        <pt x="411" y="-9" on="0"/>
        <pt x="354" y="-9" on="1"/>
        <pt x="302" y="-9" on="0"/>
        <pt x="210" y="21" on="0"/>
        <pt x="137" y="81" on="0"/>
        <pt x="87" y="169" on="0"/>
        <pt x="77" y="228" on="1"/>
        <pt x="5" y="228" on="1"/>
        <pt x="5" y="274" on="1"/>
        <pt x="71" y="274" on="1"/>
        <pt x="70" y="291" on="0"/>
        <pt x="70" y="307" on="0"/>
        <pt x="70" y="316" on="1"/>
        <pt x="70" y="339" on="1"/>
        <pt x="5" y="339" on="1"/>
        <pt x="5" y="385" on="1"/>
        <pt x="77" y="385" on="1"/>
        <pt x="94" y="505" on="0"/>
        <pt x="241" y="638" on="0"/>
        <pt x="356" y="638" on="1"/>
        <pt x="415" y="638" on="0"/>
        <pt x="488" y="619" on="0"/>
        <pt x="521" y="602" on="1"/>
        <pt x="504" y="546" on="1"/>
        <pt x="469" y="563" on="0"/>
        <pt x="405" y="579" on="0"/>
        <pt x="367" y="579" on="1"/>
        <pt x="328" y="579" on="0"/>
        <pt x="256" y="555" on="0"/>
        <pt x="197" y="507" on="0"/>
        <pt x="157" y="434" on="0"/>
        <pt x="151" y="385" on="1"/>
        <pt x="446" y="385" on="1"/>
        <pt x="446" y="339" on="1"/>
        <pt x="145" y="339" on="1"/>
        <pt x="145" y="320" on="1"/>
        <pt x="145" y="309" on="0"/>
        <pt x="145" y="288" on="0"/>
        <pt x="146" y="274" on="1"/>
        <pt x="446" y="274" on="1"/>
        <pt x="446" y="228" on="1"/>
        <pt x="153" y="228" on="1"/>
        <pt x="161" y="179" on="0"/>
        <pt x="202" y="111" on="0"/>
        <pt x="259" y="69" on="0"/>
        <pt x="327" y="50" on="0"/>
      </contour>
    </TTGlyph>
    <TTGlyph name="F" xMin="80" yMin="0" xMax="440" yMax="630">
      <contour>
        <pt x="440" y="630" on="1"/>
        <pt x="440" y="571" on="1"/>
        <pt x="152" y="571" on="1"/>
        <pt x="152" y="343" on="1"/>
        <pt x="418" y="343" on="1"/>
        <pt x="418" y="285" on="1"/>
        <pt x="152" y="285" on="1"/>
        <pt x="152" y="0" on="1"/>
        <pt x="80" y="0" on="1"/>
        <pt x="80" y="630" on="1"/>
      </contour>
    </TTGlyph>
    <TTGlyph name="Five.tm" xMin="51" yMin="-240" xMax="892" yMax="739">
      <contour>
        <pt x="740" y="315" on="1"/>
        <pt x="807" y="315" on="0"/>
        <pt x="892" y="209" on="0"/>
        <pt x="892" y="112" on="1"/>
        <pt x="892" y="36" on="0"/>
        <pt x="835" y="-93" on="0"/>
        <pt x="730" y="-187" on="0"/>
        <pt x="581" y="-240" on="0"/>
        <pt x="489" y="-240" on="1"/>
        <pt x="392" y="-240" on="0"/>
        <pt x="231" y="-175" on="0"/>
        <pt x="115" y="-53" on="0"/>
        <pt x="51" y="124" on="0"/>
        <pt x="51" y="236" on="1"/>
        <pt x="51" y="343" on="0"/>
        <pt x="114" y="527" on="0"/>
        <pt x="237" y="662" on="0"/>
        <pt x="415" y="739" on="0"/>
        <pt x="531" y="739" on="1"/>
        <pt x="590" y="739" on="0"/>
        <pt x="691" y="718" on="0"/>
        <pt x="776" y="682" on="0"/>
        <pt x="846" y="633" on="0"/>
        <pt x="873" y="605" on="1"/>
        <pt x="842" y="572" on="1"/>
        <pt x="785" y="625" on="0"/>
        <pt x="633" y="690" on="0"/>
        <pt x="526" y="690" on="1"/>
        <pt x="424" y="690" on="0"/>
        <pt x="268" y="622" on="0"/>
        <pt x="162" y="501" on="0"/>
        <pt x="108" y="334" on="0"/>
        <pt x="108" y="236" on="1"/>
        <pt x="108" y="137" on="0"/>
        <pt x="161" y="-22" on="0"/>
        <pt x="261" y="-132" on="0"/>
        <pt x="404" y="-191" on="0"/>
        <pt x="494" y="-191" on="1"/>
        <pt x="572" y="-191" on="0"/>
        <pt x="699" y="-146" on="0"/>
        <pt x="787" y="-67" on="0"/>
        <pt x="835" y="43" on="0"/>
        <pt x="835" y="108" on="1"/>
        <pt x="835" y="185" on="0"/>
        <pt x="777" y="268" on="0"/>
        <pt x="725" y="268" on="1"/>
        <pt x="692" y="268" on="0"/>
        <pt x="642" y="226" on="0"/>
        <pt x="631" y="192" on="1"/>
        <pt x="631" y="0" on="1"/>
        <pt x="574" y="0" on="1"/>
        <pt x="574" y="448" on="1"/>
        <pt x="391" y="448" on="1"/>
        <pt x="391" y="0" on="1"/>
        <pt x="335" y="0" on="1"/>
        <pt x="335" y="495" on="1"/>
        <pt x="813" y="495" on="1"/>
        <pt x="813" y="448" on="1"/>
        <pt x="631" y="448" on="1"/>
        <pt x="631" y="258" on="1"/>
        <pt x="645" y="281" on="0"/>
        <pt x="702" y="315" on="0"/>
      </contour>
    </TTGlyph>
    <TTGlyph name="Four.tm" xMin="37" yMin="-6" xMax="668" yMax="495">
      <contour>
        <pt x="668" y="495" on="1"/>
        <pt x="668" y="241" on="1"/>
        <pt x="400" y="241" on="1"/>
        <pt x="400" y="147" on="1"/>
        <pt x="400" y="80" on="0"/>
        <pt x="309" y="-6" on="0"/>
        <pt x="225" y="-6" on="1"/>
        <pt x="183" y="-6" on="0"/>
        <pt x="114" y="17" on="0"/>
        <pt x="64" y="59" on="0"/>
        <pt x="37" y="117" on="0"/>
        <pt x="37" y="152" on="1"/>
        <pt x="37" y="178" on="0"/>
        <pt x="54" y="222" on="0"/>
        <pt x="81" y="255" on="0"/>
        <pt x="117" y="277" on="0"/>
        <pt x="137" y="281" on="1"/>
        <pt x="137" y="495" on="1"/>
        <pt x="548" y="495" on="1"/>
        <pt x="548" y="449" on="1"/>
        <pt x="400" y="449" on="1"/>
        <pt x="400" y="287" on="1"/>
        <pt x="612" y="287" on="1"/>
        <pt x="612" y="495" on="1"/>
      </contour>
      <contour>
        <pt x="193" y="242" on="1"/>
        <pt x="147" y="242" on="0"/>
        <pt x="93" y="194" on="0"/>
        <pt x="93" y="151" on="1"/>
        <pt x="93" y="102" on="0"/>
        <pt x="167" y="42" on="0"/>
        <pt x="228" y="42" on="1"/>
        <pt x="283" y="42" on="0"/>
        <pt x="345" y="102" on="0"/>
        <pt x="345" y="154" on="1"/>
        <pt x="345" y="242" on="1"/>
      </contour>
      <contour>
        <pt x="192" y="288" on="1"/>
        <pt x="345" y="288" on="1"/>
        <pt x="345" y="449" on="1"/>
        <pt x="192" y="449" on="1"/>
      </contour>
    </TTGlyph>
    <TTGlyph name="Fsmall" xMin="74" yMin="0" xMax="362" yMax="470">
      <contour>
        <pt x="362" y="470" on="1"/>
        <pt x="362" y="417" on="1"/>
        <pt x="142" y="417" on="1"/>
        <pt x="142" y="260" on="1"/>
        <pt x="344" y="260" on="1"/>
        <pt x="344" y="207" on="1"/>
        <pt x="142" y="207" on="1"/>
        <pt x="142" y="0" on="1"/>
        <pt x="74" y="0" on="1"/>
        <pt x="74" y="470" on="1"/>
      </contour>
    </TTGlyph>
    <TTGlyph name="G" xMin="45" yMin="-9" xMax="541" yMax="638">
      <contour>
        <pt x="351" y="638" on="1"/>
        <pt x="405" y="638" on="0"/>
        <pt x="489" y="622" on="0"/>
        <pt x="527" y="602" on="1"/>
        <pt x="509" y="545" on="1"/>
        <pt x="474" y="562" on="0"/>
        <pt x="401" y="580" on="0"/>
        <pt x="362" y="580" on="1"/>
        <pt x="314" y="580" on="0"/>
        <pt x="227" y="552" on="0"/>
        <pt x="161" y="489" on="0"/>
        <pt x="121" y="387" on="0"/>
        <pt x="121" y="314" on="1"/>
        <pt x="121" y="251" on="0"/>
        <pt x="155" y="152" on="0"/>
        <pt x="218" y="85" on="0"/>
        <pt x="304" y="50" on="0"/>
        <pt x="357" y="50" on="1"/>
        <pt x="395" y="50" on="0"/>
        <pt x="452" y="60" on="0"/>
        <pt x="472" y="68" on="1"/>
        <pt x="472" y="268" on="1"/>
        <pt x="345" y="268" on="1"/>
        <pt x="345" y="324" on="1"/>
        <pt x="541" y="324" on="1"/>
        <pt x="541" y="25" on="1"/>
        <pt x="504" y="10" on="0"/>
        <pt x="417" y="-9" on="0"/>
        <pt x="354" y="-9" on="1"/>
        <pt x="290" y="-9" on="0"/>
        <pt x="178" y="33" on="0"/>
        <pt x="94" y="115" on="0"/>
        <pt x="45" y="235" on="0"/>
        <pt x="45" y="314" on="1"/>
        <pt x="45" y="393" on="0"/>
        <pt x="91" y="515" on="0"/>
        <pt x="173" y="596" on="0"/>
        <pt x="285" y="638" on="0"/>
      </contour>
    </TTGlyph>
    <TTGlyph name="Gbreve" xMin="45" yMin="-9" xMax="541" yMax="846">
      <contour>
        <pt x="351" y="638" on="1"/>
        <pt x="405" y="638" on="0"/>
        <pt x="489" y="622" on="0"/>
        <pt x="527" y="602" on="1"/>
        <pt x="509" y="545" on="1"/>
        <pt x="474" y="562" on="0"/>
        <pt x="401" y="580" on="0"/>
        <pt x="362" y="580" on="1"/>
        <pt x="314" y="580" on="0"/>
        <pt x="227" y="552" on="0"/>
        <pt x="161" y="489" on="0"/>
        <pt x="121" y="387" on="0"/>
        <pt x="121" y="314" on="1"/>
        <pt x="121" y="251" on="0"/>
        <pt x="155" y="152" on="0"/>
        <pt x="218" y="85" on="0"/>
        <pt x="304" y="50" on="0"/>
        <pt x="357" y="50" on="1"/>
        <pt x="395" y="50" on="0"/>
        <pt x="452" y="60" on="0"/>
        <pt x="472" y="68" on="1"/>
        <pt x="472" y="268" on="1"/>
        <pt x="345" y="268" on="1"/>
        <pt x="345" y="324" on="1"/>
        <pt x="541" y="324" on="1"/>
        <pt x="541" y="25" on="1"/>
        <pt x="504" y="10" on="0"/>
        <pt x="417" y="-9" on="0"/>
        <pt x="354" y="-9" on="1"/>
        <pt x="290" y="-9" on="0"/>
        <pt x="178" y="33" on="0"/>
        <pt x="94" y="115" on="0"/>
        <pt x="45" y="235" on="0"/>
        <pt x="45" y="314" on="1"/>
        <pt x="45" y="393" on="0"/>
        <pt x="91" y="515" on="0"/>
        <pt x="173" y="596" on="0"/>
        <pt x="285" y="638" on="0"/>
      </contour>
      <contour>
        <pt x="274" y="846" on="1"/>
        <pt x="276" y="811" on="0"/>
        <pt x="310" y="769" on="0"/>
        <pt x="354" y="769" on="1"/>
        <pt x="391" y="769" on="0"/>
        <pt x="430" y="809" on="0"/>
        <pt x="432" y="846" on="1"/>
        <pt x="487" y="846" on="1"/>
        <pt x="487" y="792" on="0"/>
        <pt x="419" y="722" on="0"/>
        <pt x="354" y="722" on="1"/>
        <pt x="318" y="722" on="0"/>
        <pt x="267" y="743" on="0"/>
        <pt x="234" y="777" on="0"/>
        <pt x="218" y="822" on="0"/>
        <pt x="218" y="846" on="1"/>
      </contour>
    </TTGlyph>
    <TTGlyph name="Gcircumflex" xMin="45" yMin="-9" xMax="541" yMax="844">
      <contour>
        <pt x="351" y="638" on="1"/>
        <pt x="405" y="638" on="0"/>
        <pt x="489" y="622" on="0"/>
        <pt x="527" y="602" on="1"/>
        <pt x="509" y="545" on="1"/>
        <pt x="474" y="562" on="0"/>
        <pt x="401" y="580" on="0"/>
        <pt x="362" y="580" on="1"/>
        <pt x="314" y="580" on="0"/>
        <pt x="227" y="552" on="0"/>
        <pt x="161" y="489" on="0"/>
        <pt x="121" y="387" on="0"/>
        <pt x="121" y="314" on="1"/>
        <pt x="121" y="251" on="0"/>
        <pt x="155" y="152" on="0"/>
        <pt x="218" y="85" on="0"/>
        <pt x="304" y="50" on="0"/>
        <pt x="357" y="50" on="1"/>
        <pt x="395" y="50" on="0"/>
        <pt x="452" y="60" on="0"/>
        <pt x="472" y="68" on="1"/>
        <pt x="472" y="268" on="1"/>
        <pt x="345" y="268" on="1"/>
        <pt x="345" y="324" on="1"/>
        <pt x="541" y="324" on="1"/>
        <pt x="541" y="25" on="1"/>
        <pt x="504" y="10" on="0"/>
        <pt x="417" y="-9" on="0"/>
        <pt x="354" y="-9" on="1"/>
        <pt x="290" y="-9" on="0"/>
        <pt x="178" y="33" on="0"/>
        <pt x="94" y="115" on="0"/>
        <pt x="45" y="235" on="0"/>
        <pt x="45" y="314" on="1"/>
        <pt x="45" y="393" on="0"/>
        <pt x="91" y="515" on="0"/>
        <pt x="173" y="596" on="0"/>
        <pt x="285" y="638" on="0"/>
      </contour>
      <contour>
        <pt x="315" y="844" on="1"/>
        <pt x="374" y="844" on="1"/>
        <pt x="499" y="710" on="1"/>
        <pt x="429" y="710" on="1"/>
        <pt x="344" y="801" on="1"/>
        <pt x="259" y="710" on="1"/>
        <pt x="193" y="710" on="1"/>
      </contour>
    </TTGlyph>
    <TTGlyph name="Gcommaaccent" xMin="45" yMin="-310" xMax="541" yMax="638">
      <contour>
        <pt x="351" y="638" on="1"/>
        <pt x="405" y="638" on="0"/>
        <pt x="489" y="622" on="0"/>
        <pt x="527" y="602" on="1"/>
        <pt x="509" y="545" on="1"/>
        <pt x="473" y="562" on="0"/>
        <pt x="402" y="580" on="0"/>
        <pt x="362" y="580" on="1"/>
        <pt x="314" y="580" on="0"/>
        <pt x="227" y="552" on="0"/>
        <pt x="161" y="489" on="0"/>
        <pt x="121" y="387" on="0"/>
        <pt x="121" y="314" on="1"/>
        <pt x="121" y="251" on="0"/>
        <pt x="155" y="152" on="0"/>
        <pt x="218" y="85" on="0"/>
        <pt x="304" y="50" on="0"/>
        <pt x="357" y="50" on="1"/>
        <pt x="395" y="50" on="0"/>
        <pt x="452" y="60" on="0"/>
        <pt x="472" y="68" on="1"/>
        <pt x="472" y="268" on="1"/>
        <pt x="345" y="268" on="1"/>
        <pt x="345" y="324" on="1"/>
        <pt x="541" y="324" on="1"/>
        <pt x="541" y="25" on="1"/>
        <pt x="504" y="10" on="0"/>
        <pt x="417" y="-9" on="0"/>
        <pt x="354" y="-9" on="1"/>
        <pt x="290" y="-9" on="0"/>
        <pt x="178" y="33" on="0"/>
        <pt x="94" y="115" on="0"/>
        <pt x="45" y="235" on="0"/>
        <pt x="45" y="314" on="1"/>
        <pt x="45" y="393" on="0"/>
        <pt x="91" y="515" on="0"/>
        <pt x="173" y="596" on="0"/>
        <pt x="285" y="638" on="0"/>
      </contour>
      <contour>
        <pt x="342" y="-184" on="1"/>
        <pt x="326" y="-181" on="0"/>
        <pt x="297" y="-155" on="0"/>
        <pt x="297" y="-131" on="1"/>
        <pt x="297" y="-110" on="0"/>
        <pt x="324" y="-81" on="0"/>
        <pt x="347" y="-81" on="1"/>
        <pt x="357" y="-81" on="0"/>
        <pt x="378" y="-89" on="0"/>
        <pt x="395" y="-107" on="0"/>
        <pt x="406" y="-136" on="0"/>
        <pt x="406" y="-158" on="1"/>
        <pt x="406" y="-181" on="0"/>
        <pt x="390" y="-225" on="0"/>
        <pt x="362" y="-265" on="0"/>
        <pt x="324" y="-299" on="0"/>
        <pt x="303" y="-310" on="1"/>
        <pt x="280" y="-279" on="1"/>
        <pt x="309" y="-263" on="0"/>
        <pt x="350" y="-212" on="0"/>
        <pt x="354" y="-187" on="1"/>
      </contour>
    </TTGlyph>
    <TTGlyph name="Gdotaccent" xMin="45" yMin="-9" xMax="541" yMax="822">
      <contour>
        <pt x="351" y="638" on="1"/>
        <pt x="405" y="638" on="0"/>
        <pt x="489" y="622" on="0"/>
        <pt x="527" y="602" on="1"/>
        <pt x="509" y="545" on="1"/>
        <pt x="474" y="562" on="0"/>
        <pt x="401" y="580" on="0"/>
        <pt x="362" y="580" on="1"/>
        <pt x="314" y="580" on="0"/>
        <pt x="227" y="552" on="0"/>
        <pt x="161" y="489" on="0"/>
        <pt x="121" y="387" on="0"/>
        <pt x="121" y="314" on="1"/>
        <pt x="121" y="251" on="0"/>
        <pt x="155" y="152" on="0"/>
        <pt x="218" y="85" on="0"/>
        <pt x="304" y="50" on="0"/>
        <pt x="357" y="50" on="1"/>
        <pt x="395" y="50" on="0"/>
        <pt x="452" y="60" on="0"/>
        <pt x="472" y="68" on="1"/>
        <pt x="472" y="268" on="1"/>
        <pt x="345" y="268" on="1"/>
        <pt x="345" y="324" on="1"/>
        <pt x="541" y="324" on="1"/>
        <pt x="541" y="25" on="1"/>
        <pt x="504" y="10" on="0"/>
        <pt x="417" y="-9" on="0"/>
        <pt x="354" y="-9" on="1"/>
        <pt x="290" y="-9" on="0"/>
        <pt x="178" y="33" on="0"/>
        <pt x="94" y="115" on="0"/>
        <pt x="45" y="235" on="0"/>
        <pt x="45" y="314" on="1"/>
        <pt x="45" y="393" on="0"/>
        <pt x="91" y="515" on="0"/>
        <pt x="173" y="596" on="0"/>
        <pt x="285" y="638" on="0"/>
      </contour>
      <contour>
        <pt x="304" y="772" on="1"/>
        <pt x="304" y="792" on="0"/>
        <pt x="332" y="822" on="0"/>
        <pt x="352" y="822" on="1"/>
        <pt x="372" y="822" on="0"/>
        <pt x="400" y="792" on="0"/>
        <pt x="400" y="772" on="1"/>
        <pt x="400" y="750" on="0"/>
        <pt x="372" y="722" on="0"/>
        <pt x="352" y="722" on="1"/>
        <pt x="332" y="722" on="0"/>
        <pt x="304" y="750" on="0"/>
      </contour>
    </TTGlyph>
    <TTGlyph name="Gsmall" xMin="42" yMin="-9" xMax="437" yMax="476">
      <contour>
        <pt x="294" y="44" on="1"/>
        <pt x="316" y="44" on="0"/>
        <pt x="362" y="51" on="0"/>
        <pt x="379" y="57" on="1"/>
        <pt x="379" y="195" on="1"/>
        <pt x="273" y="195" on="1"/>
        <pt x="273" y="245" on="1"/>
        <pt x="437" y="245" on="1"/>
        <pt x="437" y="19" on="1"/>
        <pt x="407" y="5" on="0"/>
        <pt x="330" y="-9" on="0"/>
        <pt x="289" y="-9" on="1"/>
        <pt x="237" y="-9" on="0"/>
        <pt x="147" y="21" on="0"/>
        <pt x="80" y="82" on="0"/>
        <pt x="42" y="173" on="0"/>
        <pt x="42" y="234" on="1"/>
        <pt x="42" y="290" on="0"/>
        <pt x="78" y="380" on="0"/>
        <pt x="143" y="443" on="0"/>
        <pt x="233" y="476" on="0"/>
        <pt x="288" y="476" on="1"/>
        <pt x="319" y="476" on="0"/>
        <pt x="387" y="468" on="0"/>
        <pt x="421" y="454" on="1"/>
        <pt x="406" y="402" on="1"/>
        <pt x="381" y="413" on="0"/>
        <pt x="326" y="423" on="0"/>
        <pt x="295" y="423" on="1"/>
        <pt x="211" y="423" on="0"/>
        <pt x="112" y="326" on="0"/>
        <pt x="112" y="237" on="1"/>
        <pt x="112" y="182" on="0"/>
        <pt x="143" y="108" on="0"/>
        <pt x="194" y="63" on="0"/>
        <pt x="259" y="44" on="0"/>
      </contour>
    </TTGlyph>
    <TTGlyph name="H" xMin="80" yMin="0" xMax="543" yMax="630">
      <contour>
        <pt x="80" y="0" on="1"/>
        <pt x="80" y="630" on="1"/>
        <pt x="152" y="630" on="1"/>
        <pt x="152" y="356" on="1"/>
        <pt x="471" y="356" on="1"/>
        <pt x="471" y="630" on="1"/>
        <pt x="543" y="630" on="1"/>
        <pt x="543" y="0" on="1"/>
        <pt x="471" y="0" on="1"/>
        <pt x="471" y="296" on="1"/>
        <pt x="152" y="296" on="1"/>
        <pt x="152" y="0" on="1"/>
      </contour>
    </TTGlyph>
    <TTGlyph name="Ha.tm" xMin="30" yMin="-277" xMax="1277" yMax="499">
      <contour>
        <pt x="850" y="499" on="1"/>
        <pt x="874" y="499" on="0"/>
        <pt x="914" y="483" on="0"/>
        <pt x="945" y="458" on="0"/>
        <pt x="965" y="427" on="0"/>
        <pt x="969" y="412" on="1"/>
        <pt x="972" y="427" on="0"/>
        <pt x="990" y="458" on="0"/>
        <pt x="1020" y="483" on="0"/>
        <pt x="1063" y="499" on="0"/>
        <pt x="1090" y="499" on="1"/>
        <pt x="1124" y="499" on="0"/>
        <pt x="1191" y="466" on="0"/>
        <pt x="1244" y="394" on="0"/>
        <pt x="1277" y="280" on="0"/>
        <pt x="1277" y="199" on="1"/>
        <pt x="1277" y="38" on="0"/>
        <pt x="1122" y="-132" on="0"/>
        <pt x="966" y="-132" on="1"/>
        <pt x="150" y="-132" on="1"/>
        <pt x="119" y="-132" on="0"/>
        <pt x="87" y="-161" on="0"/>
        <pt x="87" y="-187" on="1"/>
        <pt x="87" y="-206" on="0"/>
        <pt x="102" y="-238" on="0"/>
        <pt x="111" y="-251" on="1"/>
        <pt x="66" y="-277" on="1"/>
        <pt x="52" y="-260" on="0"/>
        <pt x="30" y="-211" on="0"/>
        <pt x="30" y="-182" on="1"/>
        <pt x="30" y="-129" on="0"/>
        <pt x="95" y="-84" on="0"/>
        <pt x="142" y="-84" on="1"/>
        <pt x="968" y="-84" on="1"/>
        <pt x="1097" y="-84" on="0"/>
        <pt x="1217" y="63" on="0"/>
        <pt x="1217" y="202" on="1"/>
        <pt x="1217" y="270" on="0"/>
        <pt x="1194" y="365" on="0"/>
        <pt x="1156" y="424" on="0"/>
        <pt x="1108" y="451" on="0"/>
        <pt x="1083" y="451" on="1"/>
        <pt x="1043" y="451" on="0"/>
        <pt x="997" y="396" on="0"/>
        <pt x="997" y="345" on="1"/>
        <pt x="997" y="0" on="1"/>
        <pt x="941" y="0" on="1"/>
        <pt x="941" y="340" on="1"/>
        <pt x="941" y="390" on="0"/>
        <pt x="893" y="451" on="0"/>
        <pt x="850" y="451" on="1"/>
        <pt x="808" y="451" on="0"/>
        <pt x="764" y="396" on="0"/>
        <pt x="764" y="345" on="1"/>
        <pt x="764" y="0" on="1"/>
        <pt x="479" y="0" on="1"/>
        <pt x="460" y="39" on="1"/>
        <pt x="490" y="77" on="0"/>
        <pt x="522" y="175" on="0"/>
        <pt x="522" y="232" on="1"/>
        <pt x="522" y="282" on="0"/>
        <pt x="493" y="362" on="0"/>
        <pt x="440" y="419" on="0"/>
        <pt x="364" y="450" on="0"/>
        <pt x="317" y="450" on="1"/>
        <pt x="269" y="450" on="0"/>
        <pt x="189" y="416" on="0"/>
        <pt x="133" y="355" on="0"/>
        <pt x="102" y="269" on="0"/>
        <pt x="102" y="218" on="1"/>
        <pt x="102" y="208" on="1"/>
        <pt x="119" y="245" on="0"/>
        <pt x="186" y="288" on="0"/>
        <pt x="228" y="288" on="1"/>
        <pt x="259" y="288" on="0"/>
        <pt x="312" y="266" on="0"/>
        <pt x="351" y="228" on="0"/>
        <pt x="373" y="175" on="0"/>
        <pt x="373" y="145" on="1"/>
        <pt x="373" y="112" on="0"/>
        <pt x="350" y="56" on="0"/>
        <pt x="309" y="16" on="0"/>
        <pt x="253" y="-6" on="0"/>
        <pt x="219" y="-6" on="1"/>
        <pt x="182" y="-6" on="0"/>
        <pt x="120" y="25" on="0"/>
        <pt x="76" y="82" on="0"/>
        <pt x="51" y="164" on="0"/>
        <pt x="51" y="215" on="1"/>
        <pt x="51" y="279" on="0"/>
        <pt x="91" y="383" on="0"/>
        <pt x="163" y="458" on="0"/>
        <pt x="262" y="499" on="0"/>
        <pt x="322" y="499" on="1"/>
        <pt x="378" y="499" on="0"/>
        <pt x="473" y="460" on="0"/>
        <pt x="542" y="390" on="0"/>
        <pt x="581" y="293" on="0"/>
        <pt x="581" y="235" on="1"/>
        <pt x="581" y="170" on="0"/>
        <pt x="546" y="72" on="0"/>
        <pt x="529" y="47" on="1"/>
        <pt x="708" y="47" on="1"/>
        <pt x="708" y="339" on="1"/>
        <pt x="708" y="422" on="0"/>
        <pt x="786" y="499" on="0"/>
      </contour>
      <contour>
        <pt x="217" y="241" on="1"/>
        <pt x="197" y="241" on="0"/>
        <pt x="162" y="226" on="0"/>
        <pt x="134" y="200" on="0"/>
        <pt x="114" y="165" on="0"/>
        <pt x="110" y="146" on="1"/>
        <pt x="120" y="92" on="0"/>
        <pt x="182" y="41" on="0"/>
        <pt x="219" y="41" on="1"/>
        <pt x="263" y="41" on="0"/>
        <pt x="316" y="97" on="0"/>
        <pt x="316" y="142" on="1"/>
        <pt x="316" y="187" on="0"/>
        <pt x="263" y="241" on="0"/>
      </contour>
    </TTGlyph>
    <TTGlyph name="HaMatraI.tm" xMin="30" yMin="-277" xMax="1462" yMax="743">
      <contour>
        <pt x="217" y="241" on="1"/>
        <pt x="197" y="241" on="0"/>
        <pt x="162" y="226" on="0"/>
        <pt x="134" y="200" on="0"/>
        <pt x="114" y="165" on="0"/>
        <pt x="110" y="146" on="1"/>
        <pt x="120" y="92" on="0"/>
        <pt x="182" y="41" on="0"/>
        <pt x="219" y="41" on="1"/>
        <pt x="263" y="41" on="0"/>
        <pt x="316" y="97" on="0"/>
        <pt x="316" y="142" on="1"/>
        <pt x="316" y="187" on="0"/>
        <pt x="263" y="241" on="0"/>
      </contour>
      <contour>
        <pt x="1277" y="199" on="1"/>
        <pt x="1277" y="38" on="0"/>
        <pt x="1122" y="-132" on="0"/>
        <pt x="966" y="-132" on="1"/>
        <pt x="150" y="-132" on="1"/>
        <pt x="119" y="-132" on="0"/>
        <pt x="87" y="-161" on="0"/>
        <pt x="87" y="-187" on="1"/>
        <pt x="87" y="-206" on="0"/>
        <pt x="102" y="-238" on="0"/>
        <pt x="111" y="-251" on="1"/>
        <pt x="66" y="-277" on="1"/>
        <pt x="52" y="-260" on="0"/>
        <pt x="30" y="-211" on="0"/>
        <pt x="30" y="-182" on="1"/>
        <pt x="30" y="-129" on="0"/>
        <pt x="95" y="-84" on="0"/>
        <pt x="142" y="-84" on="1"/>
        <pt x="968" y="-84" on="1"/>
        <pt x="1097" y="-84" on="0"/>
        <pt x="1217" y="63" on="0"/>
        <pt x="1217" y="202" on="1"/>
        <pt x="1217" y="270" on="0"/>
        <pt x="1194" y="365" on="0"/>
        <pt x="1156" y="424" on="0"/>
        <pt x="1108" y="451" on="0"/>
        <pt x="1083" y="451" on="1"/>
        <pt x="1042" y="451" on="0"/>
        <pt x="997" y="396" on="0"/>
        <pt x="997" y="345" on="1"/>
        <pt x="997" y="0" on="1"/>
        <pt x="940" y="0" on="1"/>
        <pt x="940" y="340" on="1"/>
        <pt x="940" y="390" on="0"/>
        <pt x="892" y="451" on="0"/>
        <pt x="850" y="451" on="1"/>
        <pt x="807" y="451" on="0"/>
        <pt x="764" y="396" on="0"/>
        <pt x="764" y="345" on="1"/>
        <pt x="764" y="0" on="1"/>
        <pt x="479" y="0" on="1"/>
        <pt x="460" y="39" on="1"/>
        <pt x="490" y="77" on="0"/>
        <pt x="522" y="175" on="0"/>
        <pt x="522" y="232" on="1"/>
        <pt x="522" y="282" on="0"/>
        <pt x="493" y="362" on="0"/>
        <pt x="440" y="419" on="0"/>
        <pt x="364" y="450" on="0"/>
        <pt x="317" y="450" on="1"/>
        <pt x="269" y="450" on="0"/>
        <pt x="189" y="416" on="0"/>
        <pt x="133" y="355" on="0"/>
        <pt x="102" y="269" on="0"/>
        <pt x="102" y="218" on="1"/>
        <pt x="102" y="209" on="1"/>
        <pt x="119" y="245" on="0"/>
        <pt x="186" y="288" on="0"/>
        <pt x="228" y="288" on="1"/>
        <pt x="259" y="288" on="0"/>
        <pt x="312" y="266" on="0"/>
        <pt x="351" y="228" on="0"/>
        <pt x="373" y="175" on="0"/>
        <pt x="373" y="145" on="1"/>
        <pt x="373" y="112" on="0"/>
        <pt x="350" y="56" on="0"/>
        <pt x="309" y="16" on="0"/>
        <pt x="253" y="-6" on="0"/>
        <pt x="219" y="-6" on="1"/>
        <pt x="182" y="-6" on="0"/>
        <pt x="120" y="25" on="0"/>
        <pt x="76" y="82" on="0"/>
        <pt x="51" y="164" on="0"/>
        <pt x="51" y="215" on="1"/>
        <pt x="51" y="279" on="0"/>
        <pt x="91" y="383" on="0"/>
        <pt x="163" y="458" on="0"/>
        <pt x="262" y="499" on="0"/>
        <pt x="322" y="499" on="1"/>
        <pt x="378" y="499" on="0"/>
        <pt x="473" y="460" on="0"/>
        <pt x="542" y="390" on="0"/>
        <pt x="581" y="293" on="0"/>
        <pt x="581" y="235" on="1"/>
        <pt x="581" y="170" on="0"/>
        <pt x="546" y="72" on="0"/>
        <pt x="529" y="47" on="1"/>
        <pt x="707" y="47" on="1"/>
        <pt x="707" y="339" on="1"/>
        <pt x="707" y="422" on="0"/>
        <pt x="785" y="499" on="0"/>
        <pt x="849" y="499" on="1"/>
        <pt x="873" y="499" on="0"/>
        <pt x="914" y="483" on="0"/>
        <pt x="945" y="458" on="0"/>
        <pt x="965" y="427" on="0"/>
        <pt x="969" y="412" on="1"/>
        <pt x="972" y="427" on="0"/>
        <pt x="990" y="457" on="0"/>
        <pt x="1020" y="481" on="0"/>
        <pt x="1061" y="497" on="0"/>
        <pt x="1088" y="497" on="1"/>
        <pt x="1098" y="497" on="0"/>
        <pt x="1119" y="493" on="0"/>
        <pt x="1130" y="490" on="1"/>
        <pt x="1117" y="510" on="0"/>
        <pt x="1103" y="556" on="0"/>
        <pt x="1103" y="585" on="1"/>
        <pt x="1103" y="619" on="0"/>
        <pt x="1128" y="677" on="0"/>
        <pt x="1173" y="719" on="0"/>
        <pt x="1238" y="743" on="0"/>
        <pt x="1279" y="743" on="1"/>
        <pt x="1363" y="743" on="0"/>
        <pt x="1462" y="639" on="0"/>
        <pt x="1462" y="543" on="1"/>
        <pt x="1462" y="0" on="1"/>
        <pt x="1407" y="0" on="1"/>
        <pt x="1407" y="537" on="1"/>
        <pt x="1407" y="615" on="0"/>
        <pt x="1339" y="695" on="0"/>
        <pt x="1275" y="695" on="1"/>
        <pt x="1221" y="695" on="0"/>
        <pt x="1158" y="633" on="0"/>
        <pt x="1158" y="580" on="1"/>
        <pt x="1158" y="542" on="0"/>
        <pt x="1187" y="472" on="0"/>
        <pt x="1213" y="430" on="1"/>
        <pt x="1225" y="411" on="0"/>
        <pt x="1248" y="366" on="0"/>
        <pt x="1266" y="310" on="0"/>
        <pt x="1277" y="241" on="0"/>
      </contour>
    </TTGlyph>
    <TTGlyph name="HaMatraIi.tm" xMin="30" yMin="-277" xMax="1392" yMax="781">
      <contour>
        <pt x="217" y="241" on="1"/>
        <pt x="197" y="241" on="0"/>
        <pt x="162" y="226" on="0"/>
        <pt x="134" y="200" on="0"/>
        <pt x="114" y="165" on="0"/>
        <pt x="110" y="146" on="1"/>
        <pt x="120" y="92" on="0"/>
        <pt x="182" y="41" on="0"/>
        <pt x="219" y="41" on="1"/>
        <pt x="263" y="41" on="0"/>
        <pt x="316" y="97" on="0"/>
        <pt x="316" y="142" on="1"/>
        <pt x="316" y="187" on="0"/>
        <pt x="263" y="241" on="0"/>
      </contour>
      <contour>
        <pt x="1277" y="199" on="1"/>
        <pt x="1277" y="38" on="0"/>
        <pt x="1122" y="-132" on="0"/>
        <pt x="966" y="-132" on="1"/>
        <pt x="150" y="-132" on="1"/>
        <pt x="119" y="-132" on="0"/>
        <pt x="87" y="-161" on="0"/>
        <pt x="87" y="-187" on="1"/>
        <pt x="87" y="-206" on="0"/>
        <pt x="102" y="-238" on="0"/>
        <pt x="111" y="-251" on="1"/>
        <pt x="66" y="-277" on="1"/>
        <pt x="52" y="-260" on="0"/>
        <pt x="30" y="-211" on="0"/>
        <pt x="30" y="-182" on="1"/>
        <pt x="30" y="-129" on="0"/>
        <pt x="95" y="-84" on="0"/>
        <pt x="142" y="-84" on="1"/>
        <pt x="968" y="-84" on="1"/>
        <pt x="1097" y="-84" on="0"/>
        <pt x="1217" y="63" on="0"/>
        <pt x="1217" y="202" on="1"/>
        <pt x="1217" y="270" on="0"/>
        <pt x="1193" y="365" on="0"/>
        <pt x="1154" y="424" on="0"/>
        <pt x="1106" y="451" on="0"/>
        <pt x="1082" y="451" on="1"/>
        <pt x="1042" y="451" on="0"/>
        <pt x="997" y="396" on="0"/>
        <pt x="997" y="345" on="1"/>
        <pt x="997" y="0" on="1"/>
        <pt x="940" y="0" on="1"/>
        <pt x="940" y="340" on="1"/>
        <pt x="940" y="390" on="0"/>
        <pt x="892" y="451" on="0"/>
        <pt x="850" y="451" on="1"/>
        <pt x="807" y="451" on="0"/>
        <pt x="764" y="396" on="0"/>
        <pt x="764" y="345" on="1"/>
        <pt x="764" y="0" on="1"/>
        <pt x="479" y="0" on="1"/>
        <pt x="460" y="39" on="1"/>
        <pt x="490" y="77" on="0"/>
        <pt x="522" y="175" on="0"/>
        <pt x="522" y="232" on="1"/>
        <pt x="522" y="282" on="0"/>
        <pt x="493" y="362" on="0"/>
        <pt x="440" y="419" on="0"/>
        <pt x="364" y="450" on="0"/>
        <pt x="317" y="450" on="1"/>
        <pt x="269" y="450" on="0"/>
        <pt x="189" y="416" on="0"/>
        <pt x="133" y="355" on="0"/>
        <pt x="102" y="269" on="0"/>
        <pt x="102" y="218" on="1"/>
        <pt x="102" y="209" on="1"/>
        <pt x="120" y="245" on="0"/>
        <pt x="186" y="288" on="0"/>
        <pt x="228" y="288" on="1"/>
        <pt x="259" y="288" on="0"/>
        <pt x="312" y="266" on="0"/>
        <pt x="351" y="228" on="0"/>
        <pt x="373" y="175" on="0"/>
        <pt x="373" y="145" on="1"/>
        <pt x="373" y="112" on="0"/>
        <pt x="350" y="56" on="0"/>
        <pt x="309" y="16" on="0"/>
        <pt x="253" y="-6" on="0"/>
        <pt x="219" y="-6" on="1"/>
        <pt x="182" y="-6" on="0"/>
        <pt x="120" y="25" on="0"/>
        <pt x="76" y="82" on="0"/>
        <pt x="51" y="164" on="0"/>
        <pt x="51" y="215" on="1"/>
        <pt x="51" y="279" on="0"/>
        <pt x="91" y="383" on="0"/>
        <pt x="163" y="458" on="0"/>
        <pt x="262" y="499" on="0"/>
        <pt x="322" y="499" on="1"/>
        <pt x="378" y="499" on="0"/>
        <pt x="473" y="460" on="0"/>
        <pt x="542" y="390" on="0"/>
        <pt x="581" y="293" on="0"/>
        <pt x="581" y="235" on="1"/>
        <pt x="581" y="170" on="0"/>
        <pt x="546" y="72" on="0"/>
        <pt x="529" y="47" on="1"/>
        <pt x="707" y="47" on="1"/>
        <pt x="707" y="339" on="1"/>
        <pt x="707" y="422" on="0"/>
        <pt x="785" y="499" on="0"/>
        <pt x="849" y="499" on="1"/>
        <pt x="873" y="499" on="0"/>
        <pt x="914" y="483" on="0"/>
        <pt x="945" y="458" on="0"/>
        <pt x="965" y="427" on="0"/>
        <pt x="969" y="412" on="1"/>
        <pt x="972" y="427" on="0"/>
        <pt x="990" y="457" on="0"/>
        <pt x="1020" y="481" on="0"/>
        <pt x="1062" y="497" on="0"/>
        <pt x="1089" y="497" on="1"/>
        <pt x="1094" y="497" on="1"/>
        <pt x="1072" y="520" on="0"/>
        <pt x="1048" y="582" on="0"/>
        <pt x="1048" y="613" on="1"/>
        <pt x="1048" y="650" on="0"/>
        <pt x="1076" y="712" on="0"/>
        <pt x="1126" y="757" on="0"/>
        <pt x="1197" y="781" on="0"/>
        <pt x="1240" y="781" on="1"/>
        <pt x="1313" y="781" on="0"/>
        <pt x="1392" y="716" on="0"/>
        <pt x="1392" y="667" on="1"/>
        <pt x="1392" y="621" on="0"/>
        <pt x="1331" y="563" on="0"/>
        <pt x="1282" y="563" on="1"/>
        <pt x="1235" y="563" on="0"/>
        <pt x="1177" y="619" on="0"/>
        <pt x="1177" y="661" on="1"/>
        <pt x="1177" y="688" on="0"/>
        <pt x="1200" y="729" on="0"/>
        <pt x="1220" y="742" on="1"/>
        <pt x="1170" y="738" on="0"/>
        <pt x="1104" y="667" on="0"/>
        <pt x="1104" y="611" on="1"/>
        <pt x="1104" y="586" on="0"/>
        <pt x="1119" y="544" on="0"/>
        <pt x="1142" y="507" on="0"/>
        <pt x="1171" y="474" on="0"/>
        <pt x="1186" y="459" on="1"/>
        <pt x="1203" y="442" on="0"/>
        <pt x="1236" y="395" on="0"/>
        <pt x="1261" y="332" on="0"/>
        <pt x="1277" y="251" on="0"/>
      </contour>
      <contour>
        <pt x="1341" y="668" on="1"/>
        <pt x="1341" y="699" on="0"/>
        <pt x="1303" y="736" on="0"/>
        <pt x="1275" y="739" on="1"/>
        <pt x="1254" y="731" on="0"/>
        <pt x="1225" y="692" on="0"/>
        <pt x="1225" y="666" on="1"/>
        <pt x="1225" y="640" on="0"/>
        <pt x="1258" y="607" on="0"/>
        <pt x="1284" y="607" on="1"/>
        <pt x="1310" y="607" on="0"/>
        <pt x="1341" y="640" on="0"/>
      </contour>
    </TTGlyph>
    <TTGlyph name="HaMatraU.tm" xMin="30" yMin="-277" xMax="1586" yMax="499">
      <contour>
        <pt x="837" y="499" on="1"/>
        <pt x="861" y="499" on="0"/>
        <pt x="901" y="483" on="0"/>
        <pt x="932" y="458" on="0"/>
        <pt x="952" y="427" on="0"/>
        <pt x="956" y="412" on="1"/>
        <pt x="959" y="426" on="0"/>
        <pt x="977" y="456" on="0"/>
        <pt x="1007" y="480" on="0"/>
        <pt x="1050" y="495" on="0"/>
        <pt x="1077" y="495" on="1"/>
        <pt x="1428" y="495" on="1"/>
        <pt x="1503" y="495" on="0"/>
        <pt x="1586" y="426" on="0"/>
        <pt x="1586" y="369" on="1"/>
        <pt x="1586" y="321" on="0"/>
        <pt x="1523" y="256" on="0"/>
        <pt x="1468" y="256" on="1"/>
        <pt x="1417" y="256" on="0"/>
        <pt x="1353" y="317" on="0"/>
        <pt x="1353" y="363" on="1"/>
        <pt x="1353" y="391" on="0"/>
        <pt x="1376" y="435" on="0"/>
        <pt x="1396" y="450" on="1"/>
        <pt x="1175" y="450" on="1"/>
        <pt x="1213" y="418" on="0"/>
        <pt x="1264" y="294" on="0"/>
        <pt x="1264" y="199" on="1"/>
        <pt x="1264" y="38" on="0"/>
        <pt x="1109" y="-132" on="0"/>
        <pt x="953" y="-132" on="1"/>
        <pt x="150" y="-132" on="1"/>
        <pt x="119" y="-132" on="0"/>
        <pt x="87" y="-161" on="0"/>
        <pt x="87" y="-187" on="1"/>
        <pt x="87" y="-206" on="0"/>
        <pt x="102" y="-238" on="0"/>
        <pt x="111" y="-251" on="1"/>
        <pt x="66" y="-277" on="1"/>
        <pt x="52" y="-260" on="0"/>
        <pt x="30" y="-211" on="0"/>
        <pt x="30" y="-182" on="1"/>
        <pt x="30" y="-129" on="0"/>
        <pt x="95" y="-84" on="0"/>
        <pt x="142" y="-84" on="1"/>
        <pt x="955" y="-84" on="1"/>
        <pt x="1084" y="-84" on="0"/>
        <pt x="1204" y="63" on="0"/>
        <pt x="1204" y="202" on="1"/>
        <pt x="1204" y="270" on="0"/>
        <pt x="1181" y="364" on="0"/>
        <pt x="1143" y="423" on="0"/>
        <pt x="1095" y="449" on="0"/>
        <pt x="1070" y="449" on="1"/>
        <pt x="1030" y="449" on="0"/>
        <pt x="984" y="396" on="0"/>
        <pt x="984" y="345" on="1"/>
        <pt x="984" y="0" on="1"/>
        <pt x="928" y="0" on="1"/>
        <pt x="928" y="340" on="1"/>
        <pt x="928" y="390" on="0"/>
        <pt x="880" y="451" on="0"/>
        <pt x="837" y="451" on="1"/>
        <pt x="795" y="451" on="0"/>
        <pt x="751" y="396" on="0"/>
        <pt x="751" y="345" on="1"/>
        <pt x="751" y="0" on="1"/>
        <pt x="479" y="0" on="1"/>
        <pt x="460" y="39" on="1"/>
        <pt x="490" y="77" on="0"/>
        <pt x="522" y="175" on="0"/>
        <pt x="522" y="232" on="1"/>
        <pt x="522" y="282" on="0"/>
        <pt x="493" y="362" on="0"/>
        <pt x="440" y="419" on="0"/>
        <pt x="364" y="450" on="0"/>
        <pt x="317" y="450" on="1"/>
        <pt x="269" y="450" on="0"/>
        <pt x="189" y="416" on="0"/>
        <pt x="133" y="355" on="0"/>
        <pt x="102" y="269" on="0"/>
        <pt x="102" y="218" on="1"/>
        <pt x="102" y="209" on="1"/>
        <pt x="120" y="245" on="0"/>
        <pt x="186" y="288" on="0"/>
        <pt x="228" y="288" on="1"/>
        <pt x="259" y="288" on="0"/>
        <pt x="312" y="266" on="0"/>
        <pt x="351" y="228" on="0"/>
        <pt x="373" y="175" on="0"/>
        <pt x="373" y="145" on="1"/>
        <pt x="373" y="112" on="0"/>
        <pt x="350" y="56" on="0"/>
        <pt x="309" y="16" on="0"/>
        <pt x="253" y="-6" on="0"/>
        <pt x="219" y="-6" on="1"/>
        <pt x="182" y="-6" on="0"/>
        <pt x="120" y="25" on="0"/>
        <pt x="76" y="82" on="0"/>
        <pt x="51" y="164" on="0"/>
        <pt x="51" y="215" on="1"/>
        <pt x="51" y="279" on="0"/>
        <pt x="91" y="383" on="0"/>
        <pt x="163" y="458" on="0"/>
        <pt x="262" y="499" on="0"/>
        <pt x="322" y="499" on="1"/>
        <pt x="378" y="499" on="0"/>
        <pt x="473" y="460" on="0"/>
        <pt x="542" y="390" on="0"/>
        <pt x="581" y="293" on="0"/>
        <pt x="581" y="235" on="1"/>
        <pt x="581" y="170" on="0"/>
        <pt x="546" y="72" on="0"/>
        <pt x="529" y="47" on="1"/>
        <pt x="695" y="47" on="1"/>
        <pt x="695" y="339" on="1"/>
        <pt x="695" y="422" on="0"/>
        <pt x="773" y="499" on="0"/>
      </contour>
      <contour>
        <pt x="217" y="241" on="1"/>
        <pt x="197" y="241" on="0"/>
        <pt x="162" y="226" on="0"/>
        <pt x="134" y="200" on="0"/>
        <pt x="114" y="165" on="0"/>
        <pt x="110" y="146" on="1"/>
        <pt x="120" y="92" on="0"/>
        <pt x="182" y="41" on="0"/>
        <pt x="219" y="41" on="1"/>
        <pt x="263" y="41" on="0"/>
        <pt x="316" y="97" on="0"/>
        <pt x="316" y="142" on="1"/>
        <pt x="316" y="187" on="0"/>
        <pt x="263" y="241" on="0"/>
      </contour>
      <contour>
        <pt x="1533" y="369" on="1"/>
        <pt x="1533" y="404" on="0"/>
        <pt x="1492" y="444" on="0"/>
        <pt x="1464" y="447" on="1"/>
        <pt x="1436" y="439" on="0"/>
        <pt x="1404" y="393" on="0"/>
        <pt x="1404" y="367" on="1"/>
        <pt x="1404" y="337" on="0"/>
        <pt x="1441" y="301" on="0"/>
        <pt x="1470" y="301" on="1"/>
        <pt x="1497" y="301" on="0"/>
        <pt x="1533" y="338" on="0"/>
      </contour>
    </TTGlyph>
    <TTGlyph name="HaMatraUu.tm" xMin="30" yMin="-277" xMax="1784" yMax="620">
      <contour>
        <pt x="1571" y="620" on="1"/>
        <pt x="1620" y="620" on="0"/>
        <pt x="1698" y="589" on="0"/>
        <pt x="1754" y="533" on="0"/>
        <pt x="1784" y="455" on="0"/>
        <pt x="1784" y="409" on="1"/>
        <pt x="1784" y="328" on="0"/>
        <pt x="1700" y="209" on="0"/>
        <pt x="1625" y="177" on="1"/>
        <pt x="1601" y="223" on="1"/>
        <pt x="1659" y="249" on="0"/>
        <pt x="1727" y="348" on="0"/>
        <pt x="1727" y="409" on="1"/>
        <pt x="1727" y="484" on="0"/>
        <pt x="1645" y="573" on="0"/>
        <pt x="1567" y="573" on="1"/>
        <pt x="1518" y="573" on="0"/>
        <pt x="1443" y="529" on="0"/>
        <pt x="1427" y="494" on="1"/>
        <pt x="1444" y="494" on="1"/>
        <pt x="1515" y="494" on="0"/>
        <pt x="1587" y="428" on="0"/>
        <pt x="1587" y="379" on="1"/>
        <pt x="1587" y="334" on="0"/>
        <pt x="1523" y="273" on="0"/>
        <pt x="1470" y="273" on="1"/>
        <pt x="1416" y="273" on="0"/>
        <pt x="1353" y="347" on="0"/>
        <pt x="1353" y="401" on="1"/>
        <pt x="1353" y="413" on="0"/>
        <pt x="1357" y="439" on="0"/>
        <pt x="1359" y="450" on="1"/>
        <pt x="1175" y="450" on="1"/>
        <pt x="1213" y="418" on="0"/>
        <pt x="1264" y="294" on="0"/>
        <pt x="1264" y="199" on="1"/>
        <pt x="1264" y="38" on="0"/>
        <pt x="1109" y="-132" on="0"/>
        <pt x="953" y="-132" on="1"/>
        <pt x="150" y="-132" on="1"/>
        <pt x="119" y="-132" on="0"/>
        <pt x="87" y="-161" on="0"/>
        <pt x="87" y="-187" on="1"/>
        <pt x="87" y="-206" on="0"/>
        <pt x="102" y="-238" on="0"/>
        <pt x="111" y="-251" on="1"/>
        <pt x="66" y="-277" on="1"/>
        <pt x="52" y="-260" on="0"/>
        <pt x="30" y="-211" on="0"/>
        <pt x="30" y="-182" on="1"/>
        <pt x="30" y="-129" on="0"/>
        <pt x="95" y="-84" on="0"/>
        <pt x="142" y="-84" on="1"/>
        <pt x="955" y="-84" on="1"/>
        <pt x="1084" y="-84" on="0"/>
        <pt x="1204" y="63" on="0"/>
        <pt x="1204" y="202" on="1"/>
        <pt x="1204" y="270" on="0"/>
        <pt x="1181" y="364" on="0"/>
        <pt x="1143" y="423" on="0"/>
        <pt x="1095" y="449" on="0"/>
        <pt x="1070" y="449" on="1"/>
        <pt x="1030" y="449" on="0"/>
        <pt x="984" y="396" on="0"/>
        <pt x="984" y="345" on="1"/>
        <pt x="984" y="0" on="1"/>
        <pt x="928" y="0" on="1"/>
        <pt x="928" y="340" on="1"/>
        <pt x="928" y="390" on="0"/>
        <pt x="880" y="451" on="0"/>
        <pt x="837" y="451" on="1"/>
        <pt x="795" y="451" on="0"/>
        <pt x="751" y="396" on="0"/>
        <pt x="751" y="345" on="1"/>
        <pt x="751" y="0" on="1"/>
        <pt x="479" y="0" on="1"/>
        <pt x="460" y="39" on="1"/>
        <pt x="490" y="77" on="0"/>
        <pt x="522" y="175" on="0"/>
        <pt x="522" y="232" on="1"/>
        <pt x="522" y="282" on="0"/>
        <pt x="493" y="362" on="0"/>
        <pt x="440" y="419" on="0"/>
        <pt x="364" y="450" on="0"/>
        <pt x="317" y="450" on="1"/>
        <pt x="269" y="450" on="0"/>
        <pt x="189" y="416" on="0"/>
        <pt x="133" y="355" on="0"/>
        <pt x="102" y="269" on="0"/>
        <pt x="102" y="218" on="1"/>
        <pt x="102" y="208" on="1"/>
        <pt x="119" y="245" on="0"/>
        <pt x="186" y="288" on="0"/>
        <pt x="228" y="288" on="1"/>
        <pt x="259" y="288" on="0"/>
        <pt x="312" y="266" on="0"/>
        <pt x="351" y="228" on="0"/>
        <pt x="373" y="175" on="0"/>
        <pt x="373" y="145" on="1"/>
        <pt x="373" y="112" on="0"/>
        <pt x="350" y="56" on="0"/>
        <pt x="309" y="16" on="0"/>
        <pt x="253" y="-6" on="0"/>
        <pt x="219" y="-6" on="1"/>
        <pt x="182" y="-6" on="0"/>
        <pt x="120" y="25" on="0"/>
        <pt x="76" y="82" on="0"/>
        <pt x="51" y="164" on="0"/>
        <pt x="51" y="215" on="1"/>
        <pt x="51" y="279" on="0"/>
        <pt x="91" y="383" on="0"/>
        <pt x="163" y="458" on="0"/>
        <pt x="262" y="499" on="0"/>
        <pt x="322" y="499" on="1"/>
        <pt x="378" y="499" on="0"/>
        <pt x="473" y="460" on="0"/>
        <pt x="542" y="390" on="0"/>
        <pt x="581" y="293" on="0"/>
        <pt x="581" y="235" on="1"/>
        <pt x="581" y="170" on="0"/>
        <pt x="546" y="72" on="0"/>
        <pt x="529" y="47" on="1"/>
        <pt x="695" y="47" on="1"/>
        <pt x="695" y="339" on="1"/>
        <pt x="695" y="422" on="0"/>
        <pt x="773" y="499" on="0"/>
        <pt x="837" y="499" on="1"/>
        <pt x="861" y="499" on="0"/>
        <pt x="901" y="483" on="0"/>
        <pt x="932" y="458" on="0"/>
        <pt x="952" y="427" on="0"/>
        <pt x="956" y="412" on="1"/>
        <pt x="959" y="426" on="0"/>
        <pt x="977" y="456" on="0"/>
        <pt x="1007" y="480" on="0"/>
        <pt x="1050" y="495" on="0"/>
        <pt x="1077" y="495" on="1"/>
        <pt x="1372" y="495" on="1"/>
        <pt x="1381" y="516" on="0"/>
        <pt x="1414" y="561" on="0"/>
        <pt x="1464" y="597" on="0"/>
        <pt x="1530" y="620" on="0"/>
      </contour>
      <contour>
        <pt x="217" y="241" on="1"/>
        <pt x="197" y="241" on="0"/>
        <pt x="162" y="226" on="0"/>
        <pt x="134" y="200" on="0"/>
        <pt x="114" y="165" on="0"/>
        <pt x="110" y="146" on="1"/>
        <pt x="120" y="92" on="0"/>
        <pt x="182" y="41" on="0"/>
        <pt x="219" y="41" on="1"/>
        <pt x="263" y="41" on="0"/>
        <pt x="316" y="97" on="0"/>
        <pt x="316" y="142" on="1"/>
        <pt x="316" y="187" on="0"/>
        <pt x="263" y="241" on="0"/>
      </contour>
      <contour>
        <pt x="1412" y="448" on="1"/>
        <pt x="1406" y="427" on="0"/>
        <pt x="1406" y="401" on="1"/>
        <pt x="1406" y="363" on="0"/>
        <pt x="1442" y="318" on="0"/>
        <pt x="1474" y="318" on="1"/>
        <pt x="1502" y="318" on="0"/>
        <pt x="1534" y="353" on="0"/>
        <pt x="1534" y="379" on="1"/>
        <pt x="1534" y="414" on="0"/>
        <pt x="1485" y="448" on="0"/>
        <pt x="1440" y="448" on="1"/>
      </contour>
    </TTGlyph>
    <TTGlyph name="HaPulli.tm" xMin="30" yMin="-277" xMax="1277" yMax="696">
      <contour>
        <pt x="850" y="499" on="1"/>
        <pt x="874" y="499" on="0"/>
        <pt x="914" y="483" on="0"/>
        <pt x="945" y="458" on="0"/>
        <pt x="965" y="427" on="0"/>
        <pt x="969" y="412" on="1"/>
        <pt x="972" y="427" on="0"/>
        <pt x="990" y="458" on="0"/>
        <pt x="1020" y="483" on="0"/>
        <pt x="1063" y="499" on="0"/>
        <pt x="1090" y="499" on="1"/>
        <pt x="1124" y="499" on="0"/>
        <pt x="1191" y="466" on="0"/>
        <pt x="1244" y="394" on="0"/>
        <pt x="1277" y="280" on="0"/>
        <pt x="1277" y="199" on="1"/>
        <pt x="1277" y="38" on="0"/>
        <pt x="1122" y="-132" on="0"/>
        <pt x="966" y="-132" on="1"/>
        <pt x="150" y="-132" on="1"/>
        <pt x="119" y="-132" on="0"/>
        <pt x="87" y="-161" on="0"/>
        <pt x="87" y="-187" on="1"/>
        <pt x="87" y="-206" on="0"/>
        <pt x="102" y="-238" on="0"/>
        <pt x="111" y="-251" on="1"/>
        <pt x="66" y="-277" on="1"/>
        <pt x="52" y="-260" on="0"/>
        <pt x="30" y="-211" on="0"/>
        <pt x="30" y="-182" on="1"/>
        <pt x="30" y="-129" on="0"/>
        <pt x="95" y="-84" on="0"/>
        <pt x="142" y="-84" on="1"/>
        <pt x="968" y="-84" on="1"/>
        <pt x="1097" y="-84" on="0"/>
        <pt x="1217" y="63" on="0"/>
        <pt x="1217" y="202" on="1"/>
        <pt x="1217" y="270" on="0"/>
        <pt x="1194" y="365" on="0"/>
        <pt x="1156" y="424" on="0"/>
        <pt x="1108" y="451" on="0"/>
        <pt x="1083" y="451" on="1"/>
        <pt x="1043" y="451" on="0"/>
        <pt x="997" y="396" on="0"/>
        <pt x="997" y="345" on="1"/>
        <pt x="997" y="0" on="1"/>
        <pt x="941" y="0" on="1"/>
        <pt x="941" y="340" on="1"/>
        <pt x="941" y="390" on="0"/>
        <pt x="893" y="451" on="0"/>
        <pt x="850" y="451" on="1"/>
        <pt x="808" y="451" on="0"/>
        <pt x="764" y="396" on="0"/>
        <pt x="764" y="345" on="1"/>
        <pt x="764" y="0" on="1"/>
        <pt x="479" y="0" on="1"/>
        <pt x="460" y="39" on="1"/>
        <pt x="490" y="77" on="0"/>
        <pt x="522" y="175" on="0"/>
        <pt x="522" y="232" on="1"/>
        <pt x="522" y="282" on="0"/>
        <pt x="493" y="362" on="0"/>
        <pt x="440" y="419" on="0"/>
        <pt x="364" y="450" on="0"/>
        <pt x="317" y="450" on="1"/>
        <pt x="269" y="450" on="0"/>
        <pt x="189" y="416" on="0"/>
        <pt x="133" y="355" on="0"/>
        <pt x="102" y="269" on="0"/>
        <pt x="102" y="218" on="1"/>
        <pt x="102" y="208" on="1"/>
        <pt x="119" y="245" on="0"/>
        <pt x="186" y="288" on="0"/>
        <pt x="228" y="288" on="1"/>
        <pt x="259" y="288" on="0"/>
        <pt x="312" y="266" on="0"/>
        <pt x="351" y="228" on="0"/>
        <pt x="373" y="175" on="0"/>
        <pt x="373" y="145" on="1"/>
        <pt x="373" y="112" on="0"/>
        <pt x="350" y="56" on="0"/>
        <pt x="309" y="16" on="0"/>
        <pt x="253" y="-6" on="0"/>
        <pt x="219" y="-6" on="1"/>
        <pt x="182" y="-6" on="0"/>
        <pt x="120" y="25" on="0"/>
        <pt x="76" y="82" on="0"/>
        <pt x="51" y="164" on="0"/>
        <pt x="51" y="215" on="1"/>
        <pt x="51" y="279" on="0"/>
        <pt x="91" y="383" on="0"/>
        <pt x="163" y="458" on="0"/>
        <pt x="262" y="499" on="0"/>
        <pt x="322" y="499" on="1"/>
        <pt x="378" y="499" on="0"/>
        <pt x="473" y="460" on="0"/>
        <pt x="542" y="390" on="0"/>
        <pt x="581" y="293" on="0"/>
        <pt x="581" y="235" on="1"/>
        <pt x="581" y="170" on="0"/>
        <pt x="546" y="72" on="0"/>
        <pt x="529" y="47" on="1"/>
        <pt x="708" y="47" on="1"/>
        <pt x="708" y="339" on="1"/>
        <pt x="708" y="422" on="0"/>
        <pt x="786" y="499" on="0"/>
      </contour>
      <contour>
        <pt x="217" y="241" on="1"/>
        <pt x="197" y="241" on="0"/>
        <pt x="162" y="226" on="0"/>
        <pt x="134" y="200" on="0"/>
        <pt x="114" y="165" on="0"/>
        <pt x="110" y="146" on="1"/>
        <pt x="120" y="92" on="0"/>
        <pt x="182" y="41" on="0"/>
        <pt x="219" y="41" on="1"/>
        <pt x="263" y="41" on="0"/>
        <pt x="316" y="97" on="0"/>
        <pt x="316" y="142" on="1"/>
        <pt x="316" y="187" on="0"/>
        <pt x="263" y="241" on="0"/>
      </contour>
      <contour>
        <pt x="646" y="696" on="1"/>
        <pt x="668" y="696" on="0"/>
        <pt x="696" y="667" on="0"/>
        <pt x="696" y="647" on="1"/>
        <pt x="696" y="627" on="0"/>
        <pt x="668" y="598" on="0"/>
        <pt x="648" y="598" on="1"/>
        <pt x="625" y="598" on="0"/>
        <pt x="597" y="627" on="0"/>
        <pt x="597" y="647" on="1"/>
        <pt x="597" y="667" on="0"/>
        <pt x="625" y="696" on="0"/>
      </contour>
    </TTGlyph>
    <TTGlyph name="Hbar" xMin="20" yMin="0" xMax="623" yMax="630">
      <contour>
        <pt x="623" y="540" on="1"/>
        <pt x="623" y="488" on="1"/>
        <pt x="553" y="488" on="1"/>
        <pt x="553" y="0" on="1"/>
        <pt x="481" y="0" on="1"/>
        <pt x="481" y="296" on="1"/>
        <pt x="162" y="296" on="1"/>
        <pt x="162" y="0" on="1"/>
        <pt x="90" y="0" on="1"/>
        <pt x="90" y="488" on="1"/>
        <pt x="20" y="488" on="1"/>
        <pt x="20" y="540" on="1"/>
        <pt x="90" y="540" on="1"/>
        <pt x="90" y="630" on="1"/>
        <pt x="162" y="630" on="1"/>
        <pt x="162" y="540" on="1"/>
        <pt x="481" y="540" on="1"/>
        <pt x="481" y="630" on="1"/>
        <pt x="553" y="630" on="1"/>
        <pt x="553" y="540" on="1"/>
      </contour>
      <contour>
        <pt x="481" y="356" on="1"/>
        <pt x="481" y="488" on="1"/>
        <pt x="162" y="488" on="1"/>
        <pt x="162" y="356" on="1"/>
      </contour>
    </TTGlyph>
    <TTGlyph name="Hcircumflex" xMin="80" yMin="0" xMax="543" yMax="844">
      <contour>
        <pt x="80" y="0" on="1"/>
        <pt x="80" y="630" on="1"/>
        <pt x="152" y="630" on="1"/>
        <pt x="152" y="356" on="1"/>
        <pt x="471" y="356" on="1"/>
        <pt x="471" y="630" on="1"/>
        <pt x="543" y="630" on="1"/>
        <pt x="543" y="0" on="1"/>
        <pt x="471" y="0" on="1"/>
        <pt x="471" y="296" on="1"/>
        <pt x="152" y="296" on="1"/>
        <pt x="152" y="0" on="1"/>
      </contour>
      <contour>
        <pt x="283" y="844" on="1"/>
        <pt x="342" y="844" on="1"/>
        <pt x="467" y="710" on="1"/>
        <pt x="397" y="710" on="1"/>
        <pt x="312" y="801" on="1"/>
        <pt x="227" y="710" on="1"/>
        <pt x="161" y="710" on="1"/>
      </contour>
    </TTGlyph>
    <TTGlyph name="Hsmall" xMin="74" yMin="0" xMax="437" yMax="470">
      <contour>
        <pt x="74" y="0" on="1"/>
        <pt x="74" y="470" on="1"/>
        <pt x="140" y="470" on="1"/>
        <pt x="140" y="274" on="1"/>
        <pt x="370" y="274" on="1"/>
        <pt x="370" y="470" on="1"/>
        <pt x="437" y="470" on="1"/>
        <pt x="437" y="0" on="1"/>
        <pt x="370" y="0" on="1"/>
        <pt x="370" y="219" on="1"/>
        <pt x="140" y="219" on="1"/>
        <pt x="140" y="0" on="1"/>
      </contour>
    </TTGlyph>
    <TTGlyph name="Hundred.tm" xMin="74" yMin="0" xMax="755" yMax="499">
      <contour>
        <pt x="755" y="495" on="1"/>
        <pt x="755" y="448" on="1"/>
        <pt x="644" y="448" on="1"/>
        <pt x="644" y="0" on="1"/>
        <pt x="588" y="0" on="1"/>
        <pt x="588" y="448" on="1"/>
        <pt x="366" y="448" on="1"/>
        <pt x="366" y="0" on="1"/>
        <pt x="311" y="0" on="1"/>
        <pt x="311" y="336" on="1"/>
        <pt x="311" y="387" on="0"/>
        <pt x="260" y="450" on="0"/>
        <pt x="217" y="450" on="1"/>
        <pt x="176" y="450" on="0"/>
        <pt x="129" y="396" on="0"/>
        <pt x="129" y="344" on="1"/>
        <pt x="129" y="0" on="1"/>
        <pt x="74" y="0" on="1"/>
        <pt x="74" y="341" on="1"/>
        <pt x="74" y="421" on="0"/>
        <pt x="150" y="499" on="0"/>
        <pt x="213" y="499" on="1"/>
        <pt x="246" y="499" on="0"/>
        <pt x="300" y="465" on="0"/>
        <pt x="314" y="441" on="1"/>
        <pt x="314" y="495" on="1"/>
      </contour>
    </TTGlyph>
    <TTGlyph name="I" xMin="80" yMin="0" xMax="152" yMax="630">
      <contour>
        <pt x="152" y="630" on="1"/>
        <pt x="152" y="0" on="1"/>
        <pt x="80" y="0" on="1"/>
        <pt x="80" y="630" on="1"/>
      </contour>
    </TTGlyph>
    <TTGlyph name="IJ" xMin="80" yMin="-145" xMax="395" yMax="630">
      <contour>
        <pt x="152" y="630" on="1"/>
        <pt x="152" y="0" on="1"/>
        <pt x="80" y="0" on="1"/>
        <pt x="80" y="630" on="1"/>
      </contour>
      <contour>
        <pt x="395" y="630" on="1"/>
        <pt x="395" y="109" on="1"/>
        <pt x="395" y="43" on="0"/>
        <pt x="382" y="-39" on="0"/>
        <pt x="360" y="-70" on="1"/>
        <pt x="346" y="-91" on="0"/>
        <pt x="307" y="-119" on="0"/>
        <pt x="263" y="-137" on="0"/>
        <pt x="215" y="-145" on="0"/>
        <pt x="193" y="-145" on="1"/>
        <pt x="193" y="-89" on="1"/>
        <pt x="224" y="-88" on="0"/>
        <pt x="270" y="-71" on="0"/>
        <pt x="287" y="-55" on="1"/>
        <pt x="309" y="-34" on="0"/>
        <pt x="323" y="30" on="0"/>
        <pt x="323" y="68" on="1"/>
        <pt x="323" y="630" on="1"/>
      </contour>
    </TTGlyph>
    <TTGlyph name="Iacute" xMin="80" yMin="0" xMax="252" yMax="834">
      <contour>
        <pt x="152" y="630" on="1"/>
        <pt x="152" y="0" on="1"/>
        <pt x="80" y="0" on="1"/>
        <pt x="80" y="630" on="1"/>
      </contour>
      <contour>
        <pt x="141" y="710" on="1"/>
        <pt x="84" y="710" on="1"/>
        <pt x="169" y="834" on="1"/>
        <pt x="252" y="834" on="1"/>
      </contour>
    </TTGlyph>
    <TTGlyph name="Ibreve" xMin="-19" yMin="0" xMax="250" yMax="834">
      <contour>
        <pt x="152" y="630" on="1"/>
        <pt x="152" y="0" on="1"/>
        <pt x="80" y="0" on="1"/>
        <pt x="80" y="630" on="1"/>
      </contour>
      <contour>
        <pt x="37" y="834" on="1"/>
        <pt x="39" y="799" on="0"/>
        <pt x="73" y="757" on="0"/>
        <pt x="117" y="757" on="1"/>
        <pt x="154" y="757" on="0"/>
        <pt x="193" y="797" on="0"/>
        <pt x="195" y="834" on="1"/>
        <pt x="250" y="834" on="1"/>
        <pt x="250" y="780" on="0"/>
        <pt x="182" y="710" on="0"/>
        <pt x="117" y="710" on="1"/>
        <pt x="81" y="710" on="0"/>
        <pt x="30" y="731" on="0"/>
        <pt x="-3" y="765" on="0"/>
        <pt x="-19" y="810" on="0"/>
        <pt x="-19" y="834" on="1"/>
      </contour>
    </TTGlyph>
    <TTGlyph name="Icircumflex" xMin="-35" yMin="0" xMax="271" yMax="844">
      <contour>
        <pt x="152" y="630" on="1"/>
        <pt x="152" y="0" on="1"/>
        <pt x="80" y="0" on="1"/>
        <pt x="80" y="630" on="1"/>
      </contour>
      <contour>
        <pt x="87" y="844" on="1"/>
        <pt x="146" y="844" on="1"/>
        <pt x="271" y="710" on="1"/>
        <pt x="201" y="710" on="1"/>
        <pt x="116" y="801" on="1"/>
        <pt x="31" y="710" on="1"/>
        <pt x="-35" y="710" on="1"/>
      </contour>
    </TTGlyph>
    <TTGlyph name="Idieresis" xMin="-14" yMin="0" xMax="244" yMax="810">
      <contour>
        <pt x="152" y="630" on="1"/>
        <pt x="152" y="0" on="1"/>
        <pt x="80" y="0" on="1"/>
        <pt x="80" y="630" on="1"/>
      </contour>
      <contour>
        <pt x="-14" y="763" on="1"/>
        <pt x="-14" y="783" on="0"/>
        <pt x="12" y="810" on="0"/>
        <pt x="31" y="810" on="1"/>
        <pt x="49" y="810" on="0"/>
        <pt x="76" y="783" on="0"/>
        <pt x="76" y="763" on="1"/>
        <pt x="76" y="743" on="0"/>
        <pt x="49" y="716" on="0"/>
        <pt x="31" y="716" on="1"/>
        <pt x="12" y="716" on="0"/>
        <pt x="-14" y="743" on="0"/>
      </contour>
      <contour>
        <pt x="154" y="763" on="1"/>
        <pt x="154" y="783" on="0"/>
        <pt x="180" y="810" on="0"/>
        <pt x="199" y="810" on="1"/>
        <pt x="217" y="810" on="0"/>
        <pt x="244" y="783" on="0"/>
        <pt x="244" y="763" on="1"/>
        <pt x="244" y="743" on="0"/>
        <pt x="217" y="716" on="0"/>
        <pt x="199" y="716" on="1"/>
        <pt x="180" y="716" on="0"/>
        <pt x="154" y="743" on="0"/>
      </contour>
    </TTGlyph>
    <TTGlyph name="Idotaccent" xMin="67" yMin="0" xMax="163" yMax="822">
      <contour>
        <pt x="152" y="630" on="1"/>
        <pt x="152" y="0" on="1"/>
        <pt x="80" y="0" on="1"/>
        <pt x="80" y="630" on="1"/>
      </contour>
      <contour>
        <pt x="67" y="772" on="1"/>
        <pt x="67" y="792" on="0"/>
        <pt x="95" y="822" on="0"/>
        <pt x="115" y="822" on="1"/>
        <pt x="135" y="822" on="0"/>
        <pt x="163" y="792" on="0"/>
        <pt x="163" y="772" on="1"/>
        <pt x="163" y="750" on="0"/>
        <pt x="135" y="722" on="0"/>
        <pt x="115" y="722" on="1"/>
        <pt x="95" y="722" on="0"/>
        <pt x="67" y="750" on="0"/>
      </contour>
    </TTGlyph>
    <TTGlyph name="Igrave" xMin="-21" yMin="0" xMax="152" yMax="834">
      <contour>
        <pt x="152" y="630" on="1"/>
        <pt x="152" y="0" on="1"/>
        <pt x="80" y="0" on="1"/>
        <pt x="80" y="630" on="1"/>
      </contour>
      <contour>
        <pt x="-21" y="834" on="1"/>
        <pt x="62" y="834" on="1"/>
        <pt x="147" y="710" on="1"/>
        <pt x="90" y="710" on="1"/>
      </contour>
    </TTGlyph>
    <TTGlyph name="Imacron" xMin="-5" yMin="0" xMax="240" yMax="772">
      <contour>
        <pt x="152" y="630" on="1"/>
        <pt x="152" y="0" on="1"/>
        <pt x="80" y="0" on="1"/>
        <pt x="80" y="630" on="1"/>
      </contour>
      <contour>
        <pt x="240" y="772" on="1"/>
        <pt x="240" y="720" on="1"/>
        <pt x="-5" y="720" on="1"/>
        <pt x="-5" y="772" on="1"/>
      </contour>
    </TTGlyph>
    <TTGlyph name="Iogonek" xMin="2" yMin="-206" xMax="189" yMax="630">
      <contour>
        <pt x="152" y="0" on="1"/>
        <pt x="109" y="-23" on="0"/>
        <pt x="61" y="-68" on="0"/>
        <pt x="61" y="-100" on="1"/>
        <pt x="61" y="-126" on="0"/>
        <pt x="97" y="-156" on="0"/>
        <pt x="126" y="-156" on="1"/>
        <pt x="142" y="-156" on="0"/>
        <pt x="168" y="-151" on="0"/>
        <pt x="178" y="-147" on="1"/>
        <pt x="189" y="-185" on="1"/>
        <pt x="173" y="-195" on="0"/>
        <pt x="134" y="-206" on="0"/>
        <pt x="111" y="-206" on="1"/>
        <pt x="65" y="-206" on="0"/>
        <pt x="2" y="-155" on="0"/>
        <pt x="2" y="-108" on="1"/>
        <pt x="2" y="-70" on="0"/>
        <pt x="49" y="-15" on="0"/>
        <pt x="80" y="0" on="1"/>
        <pt x="80" y="630" on="1"/>
        <pt x="152" y="630" on="1"/>
      </contour>
    </TTGlyph>
    <TTGlyph name="Ismall" xMin="74" yMin="0" xMax="142" yMax="470">
      <contour>
        <pt x="142" y="470" on="1"/>
        <pt x="142" y="0" on="1"/>
        <pt x="74" y="0" on="1"/>
        <pt x="74" y="470" on="1"/>
      </contour>
    </TTGlyph>
    <TTGlyph name="Itilde" xMin="-40" yMin="0" xMax="263" yMax="821">
      <contour>
        <pt x="152" y="630" on="1"/>
        <pt x="152" y="0" on="1"/>
        <pt x="80" y="0" on="1"/>
        <pt x="80" y="630" on="1"/>
      </contour>
      <contour>
        <pt x="-40" y="713" on="1"/>
        <pt x="-40" y="757" on="0"/>
        <pt x="1" y="818" on="0"/>
        <pt x="47" y="818" on="1"/>
        <pt x="69" y="818" on="0"/>
        <pt x="101" y="803" on="0"/>
        <pt x="130" y="784" on="0"/>
        <pt x="157" y="769" on="0"/>
        <pt x="174" y="769" on="1"/>
        <pt x="197" y="769" on="0"/>
        <pt x="216" y="800" on="0"/>
        <pt x="218" y="821" on="1"/>
        <pt x="263" y="821" on="1"/>
        <pt x="263" y="801" on="0"/>
        <pt x="253" y="764" on="0"/>
        <pt x="232" y="735" on="0"/>
        <pt x="201" y="717" on="0"/>
        <pt x="180" y="717" on="1"/>
        <pt x="157" y="717" on="0"/>
        <pt x="121" y="732" on="0"/>
        <pt x="90" y="751" on="0"/>
        <pt x="63" y="766" on="0"/>
        <pt x="50" y="766" on="1"/>
        <pt x="27" y="766" on="0"/>
        <pt x="7" y="735" on="0"/>
        <pt x="5" y="713" on="1"/>
      </contour>
    </TTGlyph>
    <TTGlyph name="J" xMin="-15" yMin="-145" xMax="187" yMax="630">
      <contour>
        <pt x="187" y="630" on="1"/>
        <pt x="187" y="109" on="1"/>
        <pt x="187" y="43" on="0"/>
        <pt x="173" y="-39" on="0"/>
        <pt x="151" y="-70" on="1"/>
        <pt x="137" y="-91" on="0"/>
        <pt x="98" y="-119" on="0"/>
        <pt x="54" y="-137" on="0"/>
        <pt x="7" y="-145" on="0"/>
        <pt x="-15" y="-145" on="1"/>
        <pt x="-15" y="-89" on="1"/>
        <pt x="44" y="-88" on="0"/>
        <pt x="78" y="-55" on="1"/>
        <pt x="101" y="-34" on="0"/>
        <pt x="115" y="30" on="0"/>
        <pt x="115" y="68" on="1"/>
        <pt x="115" y="630" on="1"/>
      </contour>
    </TTGlyph>
    <TTGlyph name="Ja.tm" xMin="46" yMin="-270" xMax="750" yMax="499">
      <contour>
        <pt x="239" y="499" on="1"/>
        <pt x="273" y="499" on="0"/>
        <pt x="331" y="478" on="0"/>
        <pt x="377" y="442" on="0"/>
        <pt x="408" y="395" on="0"/>
        <pt x="416" y="368" on="1"/>
        <pt x="420" y="395" on="0"/>
        <pt x="445" y="443" on="0"/>
        <pt x="486" y="479" on="0"/>
        <pt x="539" y="499" on="0"/>
        <pt x="571" y="499" on="1"/>
        <pt x="608" y="499" on="0"/>
        <pt x="671" y="473" on="0"/>
        <pt x="717" y="427" on="0"/>
        <pt x="742" y="363" on="0"/>
        <pt x="742" y="325" on="1"/>
        <pt x="742" y="278" on="0"/>
        <pt x="709" y="205" on="0"/>
        <pt x="647" y="150" on="0"/>
        <pt x="558" y="111" on="0"/>
        <pt x="503" y="98" on="1"/>
        <pt x="275" y="44" on="1"/>
        <pt x="204" y="27" on="0"/>
        <pt x="122" y="-46" on="0"/>
        <pt x="122" y="-108" on="1"/>
        <pt x="122" y="-159" on="0"/>
        <pt x="182" y="-220" on="0"/>
        <pt x="229" y="-220" on="1"/>
        <pt x="272" y="-220" on="0"/>
        <pt x="336" y="-171" on="0"/>
        <pt x="363" y="-138" on="1"/>
        <pt x="416" y="-74" on="1"/>
        <pt x="462" y="-17" on="0"/>
        <pt x="548" y="39" on="0"/>
        <pt x="602" y="39" on="1"/>
        <pt x="635" y="39" on="0"/>
        <pt x="689" y="17" on="0"/>
        <pt x="728" y="-24" on="0"/>
        <pt x="750" y="-81" on="0"/>
        <pt x="750" y="-115" on="1"/>
        <pt x="750" y="-186" on="0"/>
        <pt x="667" y="-270" on="0"/>
        <pt x="600" y="-270" on="1"/>
        <pt x="576" y="-270" on="0"/>
        <pt x="537" y="-258" on="0"/>
        <pt x="506" y="-238" on="0"/>
        <pt x="483" y="-214" on="0"/>
        <pt x="476" y="-203" on="1"/>
        <pt x="514" y="-171" on="1"/>
        <pt x="526" y="-188" on="0"/>
        <pt x="567" y="-220" on="0"/>
        <pt x="601" y="-220" on="1"/>
        <pt x="642" y="-220" on="0"/>
        <pt x="693" y="-165" on="0"/>
        <pt x="693" y="-115" on="1"/>
        <pt x="693" y="-66" on="0"/>
        <pt x="639" y="-11" on="0"/>
        <pt x="598" y="-11" on="1"/>
        <pt x="562" y="-11" on="0"/>
        <pt x="499" y="-56" on="0"/>
        <pt x="466" y="-98" on="1"/>
        <pt x="413" y="-165" on="1"/>
        <pt x="378" y="-209" on="0"/>
        <pt x="289" y="-270" on="0"/>
        <pt x="227" y="-270" on="1"/>
        <pt x="191" y="-270" on="0"/>
        <pt x="131" y="-247" on="0"/>
        <pt x="88" y="-204" on="0"/>
        <pt x="64" y="-144" on="0"/>
        <pt x="64" y="-108" on="1"/>
        <pt x="64" y="-26" on="0"/>
        <pt x="168" y="69" on="0"/>
        <pt x="264" y="92" on="1"/>
        <pt x="502" y="150" on="1"/>
        <pt x="586" y="170" on="0"/>
        <pt x="684" y="253" on="0"/>
        <pt x="684" y="323" on="1"/>
        <pt x="684" y="381" on="0"/>
        <pt x="620" y="450" on="0"/>
        <pt x="566" y="450" on="1"/>
        <pt x="514" y="450" on="0"/>
        <pt x="443" y="369" on="0"/>
        <pt x="443" y="292" on="1"/>
        <pt x="443" y="210" on="1"/>
        <pt x="388" y="210" on="1"/>
        <pt x="388" y="286" on="1"/>
        <pt x="388" y="323" on="0"/>
        <pt x="366" y="384" on="0"/>
        <pt x="326" y="427" on="0"/>
        <pt x="271" y="450" on="0"/>
        <pt x="238" y="450" on="1"/>
        <pt x="180" y="450" on="0"/>
        <pt x="103" y="384" on="0"/>
        <pt x="96" y="321" on="1"/>
        <pt x="110" y="344" on="0"/>
        <pt x="159" y="372" on="0"/>
        <pt x="191" y="372" on="1"/>
        <pt x="214" y="372" on="0"/>
        <pt x="256" y="356" on="0"/>
        <pt x="287" y="327" on="0"/>
        <pt x="305" y="285" on="0"/>
        <pt x="305" y="259" on="1"/>
        <pt x="305" y="205" on="0"/>
        <pt x="233" y="138" on="0"/>
        <pt x="177" y="138" on="1"/>
        <pt x="153" y="138" on="0"/>
        <pt x="106" y="157" on="0"/>
        <pt x="69" y="196" on="0"/>
        <pt x="46" y="257" on="0"/>
        <pt x="46" y="298" on="1"/>
        <pt x="46" y="345" on="0"/>
        <pt x="76" y="420" on="0"/>
        <pt x="128" y="472" on="0"/>
        <pt x="198" y="499" on="0"/>
      </contour>
      <contour>
        <pt x="177" y="331" on="1"/>
        <pt x="147" y="331" on="0"/>
        <pt x="103" y="288" on="0"/>
        <pt x="98" y="257" on="1"/>
        <pt x="106" y="217" on="0"/>
        <pt x="153" y="184" on="0"/>
        <pt x="178" y="184" on="1"/>
        <pt x="210" y="184" on="0"/>
        <pt x="251" y="224" on="0"/>
        <pt x="251" y="258" on="1"/>
        <pt x="251" y="292" on="0"/>
        <pt x="210" y="331" on="0"/>
      </contour>
    </TTGlyph>
    <TTGlyph name="JaAlt.tm" xMin="50" yMin="-10" xMax="613" yMax="501">
      <contour>
        <pt x="207" y="501" on="1"/>
        <pt x="265" y="501" on="0"/>
        <pt x="337" y="444" on="0"/>
        <pt x="351" y="403" on="1"/>
        <pt x="359" y="446" on="0"/>
        <pt x="426" y="501" on="0"/>
        <pt x="474" y="501" on="1"/>
        <pt x="535" y="501" on="0"/>
        <pt x="608" y="427" on="0"/>
        <pt x="608" y="367" on="1"/>
        <pt x="608" y="320" on="0"/>
        <pt x="562" y="247" on="0"/>
        <pt x="518" y="229" on="1"/>
        <pt x="559" y="222" on="0"/>
        <pt x="613" y="161" on="0"/>
        <pt x="613" y="114" on="1"/>
        <pt x="613" y="57" on="0"/>
        <pt x="542" y="-10" on="0"/>
        <pt x="482" y="-10" on="1"/>
        <pt x="444" y="-10" on="0"/>
        <pt x="383" y="25" on="0"/>
        <pt x="366" y="57" on="1"/>
        <pt x="400" y="85" on="1"/>
        <pt x="414" y="61" on="0"/>
        <pt x="454" y="36" on="0"/>
        <pt x="483" y="36" on="1"/>
        <pt x="518" y="36" on="0"/>
        <pt x="561" y="81" on="0"/>
        <pt x="561" y="119" on="1"/>
        <pt x="561" y="157" on="0"/>
        <pt x="516" y="200" on="0"/>
        <pt x="482" y="200" on="1"/>
        <pt x="452" y="200" on="0"/>
        <pt x="408" y="169" on="0"/>
        <pt x="385" y="144" on="1"/>
        <pt x="320" y="70" on="1"/>
        <pt x="293" y="39" on="0"/>
        <pt x="225" y="-10" on="0"/>
        <pt x="176" y="-10" on="1"/>
        <pt x="122" y="-10" on="0"/>
        <pt x="58" y="48" on="0"/>
        <pt x="58" y="96" on="1"/>
        <pt x="58" y="144" on="0"/>
        <pt x="118" y="206" on="0"/>
        <pt x="172" y="211" on="1"/>
        <pt x="393" y="229" on="1"/>
        <pt x="470" y="235" on="0"/>
        <pt x="554" y="308" on="0"/>
        <pt x="554" y="360" on="1"/>
        <pt x="554" y="405" on="0"/>
        <pt x="508" y="455" on="0"/>
        <pt x="469" y="455" on="1"/>
        <pt x="428" y="455" on="0"/>
        <pt x="378" y="397" on="0"/>
        <pt x="378" y="343" on="1"/>
        <pt x="378" y="274" on="1"/>
        <pt x="327" y="274" on="1"/>
        <pt x="327" y="335" on="1"/>
        <pt x="327" y="392" on="0"/>
        <pt x="260" y="458" on="0"/>
        <pt x="206" y="458" on="1"/>
        <pt x="164" y="458" on="0"/>
        <pt x="107" y="421" on="0"/>
        <pt x="97" y="385" on="1"/>
        <pt x="108" y="399" on="0"/>
        <pt x="143" y="417" on="0"/>
        <pt x="166" y="417" on="1"/>
        <pt x="203" y="417" on="0"/>
        <pt x="256" y="369" on="0"/>
        <pt x="256" y="327" on="1"/>
        <pt x="256" y="285" on="0"/>
        <pt x="199" y="231" on="0"/>
        <pt x="154" y="231" on="1"/>
        <pt x="134" y="231" on="0"/>
        <pt x="97" y="245" on="0"/>
        <pt x="68" y="274" on="0"/>
        <pt x="50" y="318" on="0"/>
        <pt x="50" y="349" on="1"/>
        <pt x="50" y="385" on="0"/>
        <pt x="74" y="441" on="0"/>
        <pt x="117" y="480" on="0"/>
        <pt x="174" y="501" on="0"/>
      </contour>
      <contour>
        <pt x="332" y="148" on="1"/>
        <pt x="346" y="163" on="0"/>
        <pt x="364" y="181" on="0"/>
        <pt x="375" y="190" on="1"/>
        <pt x="184" y="169" on="1"/>
        <pt x="149" y="165" on="0"/>
        <pt x="110" y="126" on="0"/>
        <pt x="110" y="97" on="1"/>
        <pt x="110" y="68" on="0"/>
        <pt x="148" y="36" on="0"/>
        <pt x="178" y="36" on="1"/>
        <pt x="205" y="36" on="0"/>
        <pt x="251" y="65" on="0"/>
        <pt x="274" y="88" on="1"/>
      </contour>
      <contour>
        <pt x="153" y="381" on="1"/>
        <pt x="131" y="381" on="0"/>
        <pt x="100" y="352" on="0"/>
        <pt x="94" y="332" on="1"/>
        <pt x="96" y="298" on="0"/>
        <pt x="134" y="271" on="0"/>
        <pt x="154" y="271" on="1"/>
        <pt x="178" y="271" on="0"/>
        <pt x="208" y="301" on="0"/>
        <pt x="208" y="326" on="1"/>
        <pt x="208" y="351" on="0"/>
        <pt x="179" y="381" on="0"/>
      </contour>
    </TTGlyph>
    <TTGlyph name="JaAltMatraI.tm" xMin="50" yMin="-10" xMax="795" yMax="747">
      <contour>
        <pt x="620" y="747" on="1"/>
        <pt x="699" y="747" on="0"/>
        <pt x="795" y="643" on="0"/>
        <pt x="795" y="548" on="1"/>
        <pt x="795" y="0" on="1"/>
        <pt x="739" y="0" on="1"/>
        <pt x="739" y="542" on="1"/>
        <pt x="739" y="619" on="0"/>
        <pt x="675" y="699" on="0"/>
        <pt x="616" y="699" on="1"/>
        <pt x="565" y="699" on="0"/>
        <pt x="508" y="640" on="0"/>
        <pt x="508" y="592" on="1"/>
        <pt x="508" y="554" on="0"/>
        <pt x="548" y="478" on="0"/>
        <pt x="577" y="449" on="1"/>
        <pt x="591" y="432" on="0"/>
        <pt x="608" y="391" on="0"/>
        <pt x="608" y="365" on="1"/>
        <pt x="608" y="320" on="0"/>
        <pt x="562" y="247" on="0"/>
        <pt x="518" y="229" on="1"/>
        <pt x="559" y="222" on="0"/>
        <pt x="613" y="161" on="0"/>
        <pt x="613" y="114" on="1"/>
        <pt x="613" y="57" on="0"/>
        <pt x="542" y="-10" on="0"/>
        <pt x="482" y="-10" on="1"/>
        <pt x="444" y="-10" on="0"/>
        <pt x="383" y="25" on="0"/>
        <pt x="366" y="57" on="1"/>
        <pt x="400" y="85" on="1"/>
        <pt x="414" y="61" on="0"/>
        <pt x="454" y="36" on="0"/>
        <pt x="483" y="36" on="1"/>
        <pt x="518" y="36" on="0"/>
        <pt x="561" y="81" on="0"/>
        <pt x="561" y="119" on="1"/>
        <pt x="561" y="157" on="0"/>
        <pt x="516" y="200" on="0"/>
        <pt x="482" y="200" on="1"/>
        <pt x="452" y="200" on="0"/>
        <pt x="409" y="169" on="0"/>
        <pt x="386" y="144" on="1"/>
        <pt x="321" y="70" on="1"/>
        <pt x="294" y="39" on="0"/>
        <pt x="225" y="-10" on="0"/>
        <pt x="176" y="-10" on="1"/>
        <pt x="122" y="-10" on="0"/>
        <pt x="58" y="48" on="0"/>
        <pt x="58" y="96" on="1"/>
        <pt x="58" y="144" on="0"/>
        <pt x="118" y="205" on="0"/>
        <pt x="172" y="210" on="1"/>
        <pt x="393" y="228" on="1"/>
        <pt x="470" y="234" on="0"/>
        <pt x="554" y="306" on="0"/>
        <pt x="554" y="359" on="1"/>
        <pt x="554" y="404" on="0"/>
        <pt x="508" y="454" on="0"/>
        <pt x="469" y="454" on="1"/>
        <pt x="428" y="454" on="0"/>
        <pt x="378" y="396" on="0"/>
        <pt x="378" y="342" on="1"/>
        <pt x="378" y="274" on="1"/>
        <pt x="327" y="274" on="1"/>
        <pt x="327" y="335" on="1"/>
        <pt x="327" y="392" on="0"/>
        <pt x="260" y="458" on="0"/>
        <pt x="206" y="458" on="1"/>
        <pt x="164" y="458" on="0"/>
        <pt x="107" y="421" on="0"/>
        <pt x="97" y="385" on="1"/>
        <pt x="108" y="399" on="0"/>
        <pt x="143" y="417" on="0"/>
        <pt x="166" y="417" on="1"/>
        <pt x="203" y="417" on="0"/>
        <pt x="256" y="369" on="0"/>
        <pt x="256" y="327" on="1"/>
        <pt x="256" y="285" on="0"/>
        <pt x="199" y="231" on="0"/>
        <pt x="154" y="231" on="1"/>
        <pt x="134" y="231" on="0"/>
        <pt x="97" y="245" on="0"/>
        <pt x="68" y="274" on="0"/>
        <pt x="50" y="318" on="0"/>
        <pt x="50" y="349" on="1"/>
        <pt x="50" y="385" on="0"/>
        <pt x="74" y="441" on="0"/>
        <pt x="117" y="480" on="0"/>
        <pt x="174" y="501" on="0"/>
        <pt x="207" y="501" on="1"/>
        <pt x="265" y="501" on="0"/>
        <pt x="337" y="444" on="0"/>
        <pt x="351" y="403" on="1"/>
        <pt x="359" y="444" on="0"/>
        <pt x="426" y="495" on="0"/>
        <pt x="474" y="495" on="1"/>
        <pt x="484" y="495" on="0"/>
        <pt x="489" y="494" on="1"/>
        <pt x="473" y="514" on="0"/>
        <pt x="454" y="565" on="0"/>
        <pt x="454" y="597" on="1"/>
        <pt x="454" y="628" on="0"/>
        <pt x="477" y="683" on="0"/>
        <pt x="519" y="724" on="0"/>
        <pt x="581" y="747" on="0"/>
      </contour>
      <contour>
        <pt x="332" y="148" on="1"/>
        <pt x="346" y="163" on="0"/>
        <pt x="364" y="181" on="0"/>
        <pt x="375" y="190" on="1"/>
        <pt x="184" y="169" on="1"/>
        <pt x="149" y="165" on="0"/>
        <pt x="110" y="126" on="0"/>
        <pt x="110" y="97" on="1"/>
        <pt x="110" y="68" on="0"/>
        <pt x="148" y="36" on="0"/>
        <pt x="178" y="36" on="1"/>
        <pt x="205" y="36" on="0"/>
        <pt x="251" y="65" on="0"/>
        <pt x="274" y="88" on="1"/>
      </contour>
      <contour>
        <pt x="153" y="381" on="1"/>
        <pt x="131" y="381" on="0"/>
        <pt x="100" y="352" on="0"/>
        <pt x="94" y="332" on="1"/>
        <pt x="96" y="298" on="0"/>
        <pt x="134" y="271" on="0"/>
        <pt x="154" y="271" on="1"/>
        <pt x="178" y="271" on="0"/>
        <pt x="208" y="301" on="0"/>
        <pt x="208" y="326" on="1"/>
        <pt x="208" y="351" on="0"/>
        <pt x="179" y="381" on="0"/>
      </contour>
    </TTGlyph>
    <TTGlyph name="JaAltMatraIi.tm" xMin="50" yMin="-10" xMax="777" yMax="782">
      <contour>
        <pt x="624" y="782" on="1"/>
        <pt x="697" y="782" on="0"/>
        <pt x="777" y="717" on="0"/>
        <pt x="777" y="668" on="1"/>
        <pt x="777" y="621" on="0"/>
        <pt x="714" y="565" on="0"/>
        <pt x="666" y="565" on="1"/>
        <pt x="621" y="565" on="0"/>
        <pt x="562" y="620" on="0"/>
        <pt x="562" y="662" on="1"/>
        <pt x="562" y="689" on="0"/>
        <pt x="585" y="730" on="0"/>
        <pt x="604" y="743" on="1"/>
        <pt x="580" y="741" on="0"/>
        <pt x="538" y="721" on="0"/>
        <pt x="506" y="686" on="0"/>
        <pt x="488" y="637" on="0"/>
        <pt x="488" y="608" on="1"/>
        <pt x="488" y="588" on="0"/>
        <pt x="503" y="546" on="0"/>
        <pt x="527" y="505" on="0"/>
        <pt x="556" y="470" on="0"/>
        <pt x="569" y="457" on="1"/>
        <pt x="587" y="437" on="0"/>
        <pt x="608" y="393" on="0"/>
        <pt x="608" y="365" on="1"/>
        <pt x="608" y="320" on="0"/>
        <pt x="562" y="247" on="0"/>
        <pt x="518" y="229" on="1"/>
        <pt x="559" y="222" on="0"/>
        <pt x="613" y="161" on="0"/>
        <pt x="613" y="114" on="1"/>
        <pt x="613" y="57" on="0"/>
        <pt x="542" y="-10" on="0"/>
        <pt x="482" y="-10" on="1"/>
        <pt x="444" y="-10" on="0"/>
        <pt x="383" y="25" on="0"/>
        <pt x="366" y="57" on="1"/>
        <pt x="400" y="85" on="1"/>
        <pt x="414" y="61" on="0"/>
        <pt x="454" y="36" on="0"/>
        <pt x="483" y="36" on="1"/>
        <pt x="518" y="36" on="0"/>
        <pt x="561" y="81" on="0"/>
        <pt x="561" y="119" on="1"/>
        <pt x="561" y="157" on="0"/>
        <pt x="516" y="200" on="0"/>
        <pt x="482" y="200" on="1"/>
        <pt x="452" y="200" on="0"/>
        <pt x="409" y="169" on="0"/>
        <pt x="386" y="144" on="1"/>
        <pt x="321" y="70" on="1"/>
        <pt x="294" y="39" on="0"/>
        <pt x="225" y="-10" on="0"/>
        <pt x="176" y="-10" on="1"/>
        <pt x="122" y="-10" on="0"/>
        <pt x="58" y="48" on="0"/>
        <pt x="58" y="96" on="1"/>
        <pt x="58" y="144" on="0"/>
        <pt x="118" y="205" on="0"/>
        <pt x="172" y="210" on="1"/>
        <pt x="393" y="228" on="1"/>
        <pt x="470" y="234" on="0"/>
        <pt x="554" y="306" on="0"/>
        <pt x="554" y="359" on="1"/>
        <pt x="554" y="404" on="0"/>
        <pt x="508" y="454" on="0"/>
        <pt x="469" y="454" on="1"/>
        <pt x="428" y="454" on="0"/>
        <pt x="378" y="396" on="0"/>
        <pt x="378" y="342" on="1"/>
        <pt x="378" y="274" on="1"/>
        <pt x="327" y="274" on="1"/>
        <pt x="327" y="335" on="1"/>
        <pt x="327" y="392" on="0"/>
        <pt x="260" y="458" on="0"/>
        <pt x="206" y="458" on="1"/>
        <pt x="164" y="458" on="0"/>
        <pt x="107" y="421" on="0"/>
        <pt x="97" y="385" on="1"/>
        <pt x="108" y="399" on="0"/>
        <pt x="143" y="417" on="0"/>
        <pt x="166" y="417" on="1"/>
        <pt x="203" y="417" on="0"/>
        <pt x="256" y="369" on="0"/>
        <pt x="256" y="327" on="1"/>
        <pt x="256" y="285" on="0"/>
        <pt x="199" y="231" on="0"/>
        <pt x="154" y="231" on="1"/>
        <pt x="134" y="231" on="0"/>
        <pt x="97" y="245" on="0"/>
        <pt x="68" y="274" on="0"/>
        <pt x="50" y="318" on="0"/>
        <pt x="50" y="349" on="1"/>
        <pt x="50" y="385" on="0"/>
        <pt x="74" y="441" on="0"/>
        <pt x="117" y="480" on="0"/>
        <pt x="174" y="501" on="0"/>
        <pt x="207" y="501" on="1"/>
        <pt x="265" y="501" on="0"/>
        <pt x="337" y="444" on="0"/>
        <pt x="351" y="403" on="1"/>
        <pt x="359" y="444" on="0"/>
        <pt x="427" y="495" on="0"/>
        <pt x="475" y="495" on="1"/>
        <pt x="455" y="518" on="0"/>
        <pt x="432" y="580" on="0"/>
        <pt x="432" y="610" on="1"/>
        <pt x="432" y="650" on="0"/>
        <pt x="462" y="714" on="0"/>
        <pt x="513" y="759" on="0"/>
        <pt x="583" y="782" on="0"/>
      </contour>
      <contour>
        <pt x="332" y="148" on="1"/>
        <pt x="346" y="163" on="0"/>
        <pt x="364" y="181" on="0"/>
        <pt x="375" y="190" on="1"/>
        <pt x="184" y="169" on="1"/>
        <pt x="149" y="165" on="0"/>
        <pt x="110" y="126" on="0"/>
        <pt x="110" y="97" on="1"/>
        <pt x="110" y="68" on="0"/>
        <pt x="148" y="36" on="0"/>
        <pt x="178" y="36" on="1"/>
        <pt x="205" y="36" on="0"/>
        <pt x="251" y="65" on="0"/>
        <pt x="274" y="88" on="1"/>
      </contour>
      <contour>
        <pt x="726" y="669" on="1"/>
        <pt x="726" y="700" on="0"/>
        <pt x="688" y="737" on="0"/>
        <pt x="660" y="740" on="1"/>
        <pt x="639" y="732" on="0"/>
        <pt x="610" y="693" on="0"/>
        <pt x="610" y="667" on="1"/>
        <pt x="610" y="641" on="0"/>
        <pt x="642" y="608" on="0"/>
        <pt x="668" y="608" on="1"/>
        <pt x="694" y="608" on="0"/>
        <pt x="726" y="640" on="0"/>
      </contour>
      <contour>
        <pt x="153" y="381" on="1"/>
        <pt x="131" y="381" on="0"/>
        <pt x="100" y="352" on="0"/>
        <pt x="94" y="332" on="1"/>
        <pt x="96" y="298" on="0"/>
        <pt x="134" y="271" on="0"/>
        <pt x="154" y="271" on="1"/>
        <pt x="178" y="271" on="0"/>
        <pt x="208" y="301" on="0"/>
        <pt x="208" y="326" on="1"/>
        <pt x="208" y="351" on="0"/>
        <pt x="179" y="381" on="0"/>
      </contour>
    </TTGlyph>
    <TTGlyph name="JaAltMatraU.tm" xMin="50" yMin="-10" xMax="944" yMax="501">
      <contour>
        <pt x="207" y="501" on="1"/>
        <pt x="265" y="501" on="0"/>
        <pt x="337" y="444" on="0"/>
        <pt x="351" y="403" on="1"/>
        <pt x="359" y="443" on="0"/>
        <pt x="426" y="495" on="0"/>
        <pt x="474" y="495" on="1"/>
        <pt x="786" y="495" on="1"/>
        <pt x="861" y="495" on="0"/>
        <pt x="944" y="426" on="0"/>
        <pt x="944" y="369" on="1"/>
        <pt x="944" y="345" on="0"/>
        <pt x="927" y="304" on="0"/>
        <pt x="897" y="274" on="0"/>
        <pt x="853" y="256" on="0"/>
        <pt x="826" y="256" on="1"/>
        <pt x="775" y="256" on="0"/>
        <pt x="710" y="317" on="0"/>
        <pt x="710" y="363" on="1"/>
        <pt x="710" y="391" on="0"/>
        <pt x="733" y="435" on="0"/>
        <pt x="753" y="450" on="1"/>
        <pt x="574" y="450" on="1"/>
        <pt x="608" y="417" on="0"/>
        <pt x="608" y="364" on="1"/>
        <pt x="608" y="319" on="0"/>
        <pt x="562" y="247" on="0"/>
        <pt x="519" y="229" on="1"/>
        <pt x="559" y="222" on="0"/>
        <pt x="613" y="161" on="0"/>
        <pt x="613" y="114" on="1"/>
        <pt x="613" y="57" on="0"/>
        <pt x="542" y="-10" on="0"/>
        <pt x="482" y="-10" on="1"/>
        <pt x="444" y="-10" on="0"/>
        <pt x="383" y="25" on="0"/>
        <pt x="366" y="57" on="1"/>
        <pt x="400" y="85" on="1"/>
        <pt x="414" y="61" on="0"/>
        <pt x="454" y="36" on="0"/>
        <pt x="483" y="36" on="1"/>
        <pt x="518" y="36" on="0"/>
        <pt x="561" y="81" on="0"/>
        <pt x="561" y="119" on="1"/>
        <pt x="561" y="157" on="0"/>
        <pt x="516" y="200" on="0"/>
        <pt x="482" y="200" on="1"/>
        <pt x="452" y="200" on="0"/>
        <pt x="409" y="169" on="0"/>
        <pt x="386" y="144" on="1"/>
        <pt x="321" y="70" on="1"/>
        <pt x="294" y="39" on="0"/>
        <pt x="225" y="-10" on="0"/>
        <pt x="176" y="-10" on="1"/>
        <pt x="122" y="-10" on="0"/>
        <pt x="58" y="48" on="0"/>
        <pt x="58" y="96" on="1"/>
        <pt x="58" y="144" on="0"/>
        <pt x="118" y="205" on="0"/>
        <pt x="172" y="210" on="1"/>
        <pt x="393" y="228" on="1"/>
        <pt x="471" y="234" on="0"/>
        <pt x="555" y="306" on="0"/>
        <pt x="555" y="359" on="1"/>
        <pt x="555" y="402" on="0"/>
        <pt x="509" y="451" on="0"/>
        <pt x="469" y="451" on="1"/>
        <pt x="428" y="451" on="0"/>
        <pt x="378" y="395" on="0"/>
        <pt x="378" y="342" on="1"/>
        <pt x="378" y="274" on="1"/>
        <pt x="327" y="274" on="1"/>
        <pt x="327" y="335" on="1"/>
        <pt x="327" y="392" on="0"/>
        <pt x="260" y="458" on="0"/>
        <pt x="206" y="458" on="1"/>
        <pt x="164" y="458" on="0"/>
        <pt x="107" y="421" on="0"/>
        <pt x="97" y="385" on="1"/>
        <pt x="108" y="399" on="0"/>
        <pt x="143" y="417" on="0"/>
        <pt x="166" y="417" on="1"/>
        <pt x="203" y="417" on="0"/>
        <pt x="256" y="369" on="0"/>
        <pt x="256" y="327" on="1"/>
        <pt x="256" y="285" on="0"/>
        <pt x="199" y="231" on="0"/>
        <pt x="154" y="231" on="1"/>
        <pt x="134" y="231" on="0"/>
        <pt x="97" y="245" on="0"/>
        <pt x="68" y="274" on="0"/>
        <pt x="50" y="318" on="0"/>
        <pt x="50" y="349" on="1"/>
        <pt x="50" y="385" on="0"/>
        <pt x="74" y="441" on="0"/>
        <pt x="117" y="480" on="0"/>
        <pt x="174" y="501" on="0"/>
      </contour>
      <contour>
        <pt x="332" y="148" on="1"/>
        <pt x="347" y="163" on="0"/>
        <pt x="365" y="181" on="0"/>
        <pt x="376" y="190" on="1"/>
        <pt x="185" y="169" on="1"/>
        <pt x="150" y="165" on="0"/>
        <pt x="111" y="126" on="0"/>
        <pt x="111" y="97" on="1"/>
        <pt x="111" y="68" on="0"/>
        <pt x="148" y="36" on="0"/>
        <pt x="178" y="36" on="1"/>
        <pt x="206" y="36" on="0"/>
        <pt x="251" y="65" on="0"/>
        <pt x="274" y="88" on="1"/>
      </contour>
      <contour>
        <pt x="891" y="369" on="1"/>
        <pt x="891" y="404" on="0"/>
        <pt x="849" y="444" on="0"/>
        <pt x="822" y="447" on="1"/>
        <pt x="793" y="439" on="0"/>
        <pt x="762" y="393" on="0"/>
        <pt x="762" y="367" on="1"/>
        <pt x="762" y="337" on="0"/>
        <pt x="799" y="301" on="0"/>
        <pt x="828" y="301" on="1"/>
        <pt x="855" y="301" on="0"/>
        <pt x="891" y="338" on="0"/>
      </contour>
      <contour>
        <pt x="153" y="381" on="1"/>
        <pt x="131" y="381" on="0"/>
        <pt x="100" y="352" on="0"/>
        <pt x="94" y="332" on="1"/>
        <pt x="96" y="298" on="0"/>
        <pt x="134" y="271" on="0"/>
        <pt x="154" y="271" on="1"/>
        <pt x="178" y="271" on="0"/>
        <pt x="208" y="301" on="0"/>
        <pt x="208" y="326" on="1"/>
        <pt x="208" y="351" on="0"/>
        <pt x="179" y="381" on="0"/>
      </contour>
    </TTGlyph>
    <TTGlyph name="JaAltMatraUu.tm" xMin="50" yMin="-10" xMax="1122" yMax="620">
      <contour>
        <pt x="910" y="620" on="1"/>
        <pt x="958" y="620" on="0"/>
        <pt x="1037" y="589" on="0"/>
        <pt x="1092" y="533" on="0"/>
        <pt x="1122" y="455" on="0"/>
        <pt x="1122" y="409" on="1"/>
        <pt x="1122" y="328" on="0"/>
        <pt x="1038" y="209" on="0"/>
        <pt x="963" y="177" on="1"/>
        <pt x="940" y="223" on="1"/>
        <pt x="998" y="249" on="0"/>
        <pt x="1065" y="348" on="0"/>
        <pt x="1065" y="409" on="1"/>
        <pt x="1065" y="484" on="0"/>
        <pt x="983" y="573" on="0"/>
        <pt x="905" y="573" on="1"/>
        <pt x="857" y="573" on="0"/>
        <pt x="781" y="529" on="0"/>
        <pt x="765" y="494" on="1"/>
        <pt x="782" y="494" on="1"/>
        <pt x="853" y="494" on="0"/>
        <pt x="925" y="428" on="0"/>
        <pt x="925" y="379" on="1"/>
        <pt x="925" y="334" on="0"/>
        <pt x="861" y="273" on="0"/>
        <pt x="808" y="273" on="1"/>
        <pt x="781" y="273" on="0"/>
        <pt x="738" y="293" on="0"/>
        <pt x="708" y="327" on="0"/>
        <pt x="692" y="374" on="0"/>
        <pt x="692" y="401" on="1"/>
        <pt x="692" y="425" on="0"/>
        <pt x="697" y="450" on="1"/>
        <pt x="561" y="450" on="1"/>
        <pt x="595" y="416" on="0"/>
        <pt x="595" y="361" on="1"/>
        <pt x="595" y="317" on="0"/>
        <pt x="550" y="246" on="0"/>
        <pt x="510" y="229" on="1"/>
        <pt x="549" y="222" on="0"/>
        <pt x="601" y="161" on="0"/>
        <pt x="601" y="114" on="1"/>
        <pt x="601" y="57" on="0"/>
        <pt x="531" y="-10" on="0"/>
        <pt x="473" y="-10" on="1"/>
        <pt x="436" y="-10" on="0"/>
        <pt x="377" y="25" on="0"/>
        <pt x="359" y="54" on="1"/>
        <pt x="393" y="83" on="1"/>
        <pt x="407" y="60" on="0"/>
        <pt x="447" y="35" on="0"/>
        <pt x="474" y="35" on="1"/>
        <pt x="507" y="35" on="0"/>
        <pt x="549" y="82" on="0"/>
        <pt x="549" y="120" on="1"/>
        <pt x="549" y="158" on="0"/>
        <pt x="506" y="202" on="0"/>
        <pt x="474" y="202" on="1"/>
        <pt x="445" y="202" on="0"/>
        <pt x="403" y="170" on="0"/>
        <pt x="381" y="145" on="1"/>
        <pt x="317" y="69" on="1"/>
        <pt x="291" y="37" on="0"/>
        <pt x="223" y="-10" on="0"/>
        <pt x="174" y="-10" on="1"/>
        <pt x="121" y="-10" on="0"/>
        <pt x="58" y="48" on="0"/>
        <pt x="58" y="96" on="1"/>
        <pt x="58" y="144" on="0"/>
        <pt x="118" y="206" on="0"/>
        <pt x="172" y="210" on="1"/>
        <pt x="388" y="226" on="1"/>
        <pt x="462" y="232" on="0"/>
        <pt x="542" y="306" on="0"/>
        <pt x="542" y="359" on="1"/>
        <pt x="542" y="402" on="0"/>
        <pt x="499" y="451" on="0"/>
        <pt x="461" y="451" on="1"/>
        <pt x="422" y="451" on="0"/>
        <pt x="374" y="396" on="0"/>
        <pt x="374" y="345" on="1"/>
        <pt x="374" y="274" on="1"/>
        <pt x="323" y="274" on="1"/>
        <pt x="323" y="337" on="1"/>
        <pt x="323" y="394" on="0"/>
        <pt x="256" y="458" on="0"/>
        <pt x="204" y="458" on="1"/>
        <pt x="163" y="458" on="0"/>
        <pt x="107" y="421" on="0"/>
        <pt x="97" y="385" on="1"/>
        <pt x="108" y="399" on="0"/>
        <pt x="143" y="417" on="0"/>
        <pt x="166" y="417" on="1"/>
        <pt x="203" y="417" on="0"/>
        <pt x="256" y="369" on="0"/>
        <pt x="256" y="327" on="1"/>
        <pt x="256" y="285" on="0"/>
        <pt x="199" y="231" on="0"/>
        <pt x="154" y="231" on="1"/>
        <pt x="134" y="231" on="0"/>
        <pt x="97" y="245" on="0"/>
        <pt x="68" y="274" on="0"/>
        <pt x="50" y="318" on="0"/>
        <pt x="50" y="349" on="1"/>
        <pt x="50" y="385" on="0"/>
        <pt x="74" y="441" on="0"/>
        <pt x="116" y="480" on="0"/>
        <pt x="172" y="501" on="0"/>
        <pt x="205" y="501" on="1"/>
        <pt x="262" y="501" on="0"/>
        <pt x="333" y="444" on="0"/>
        <pt x="347" y="403" on="1"/>
        <pt x="355" y="443" on="0"/>
        <pt x="419" y="495" on="0"/>
        <pt x="466" y="495" on="1"/>
        <pt x="711" y="495" on="1"/>
        <pt x="720" y="516" on="0"/>
        <pt x="753" y="561" on="0"/>
        <pt x="803" y="597" on="0"/>
        <pt x="869" y="620" on="0"/>
      </contour>
      <contour>
        <pt x="328" y="148" on="1"/>
        <pt x="342" y="163" on="0"/>
        <pt x="361" y="181" on="0"/>
        <pt x="372" y="190" on="1"/>
        <pt x="185" y="169" on="1"/>
        <pt x="150" y="165" on="0"/>
        <pt x="110" y="126" on="0"/>
        <pt x="110" y="96" on="1"/>
        <pt x="110" y="68" on="0"/>
        <pt x="148" y="36" on="0"/>
        <pt x="177" y="36" on="1"/>
        <pt x="203" y="36" on="0"/>
        <pt x="248" y="64" on="0"/>
        <pt x="271" y="87" on="1"/>
      </contour>
      <contour>
        <pt x="751" y="448" on="1"/>
        <pt x="748" y="437" on="0"/>
        <pt x="744" y="415" on="0"/>
        <pt x="744" y="401" on="1"/>
        <pt x="744" y="363" on="0"/>
        <pt x="780" y="318" on="0"/>
        <pt x="812" y="318" on="1"/>
        <pt x="840" y="318" on="0"/>
        <pt x="872" y="353" on="0"/>
        <pt x="872" y="379" on="1"/>
        <pt x="872" y="414" on="0"/>
        <pt x="823" y="448" on="0"/>
        <pt x="778" y="448" on="1"/>
      </contour>
      <contour>
        <pt x="153" y="381" on="1"/>
        <pt x="131" y="381" on="0"/>
        <pt x="100" y="352" on="0"/>
        <pt x="94" y="332" on="1"/>
        <pt x="96" y="298" on="0"/>
        <pt x="134" y="271" on="0"/>
        <pt x="154" y="271" on="1"/>
        <pt x="178" y="271" on="0"/>
        <pt x="208" y="301" on="0"/>
        <pt x="208" y="326" on="1"/>
        <pt x="208" y="351" on="0"/>
        <pt x="179" y="381" on="0"/>
      </contour>
    </TTGlyph>
    <TTGlyph name="JaAltPulli.tm" xMin="50" yMin="-10" xMax="613" yMax="696">
      <contour>
        <pt x="207" y="501" on="1"/>
        <pt x="265" y="501" on="0"/>
        <pt x="337" y="444" on="0"/>
        <pt x="351" y="403" on="1"/>
        <pt x="359" y="446" on="0"/>
        <pt x="426" y="501" on="0"/>
        <pt x="474" y="501" on="1"/>
        <pt x="535" y="501" on="0"/>
        <pt x="608" y="427" on="0"/>
        <pt x="608" y="367" on="1"/>
        <pt x="608" y="320" on="0"/>
        <pt x="562" y="247" on="0"/>
        <pt x="518" y="229" on="1"/>
        <pt x="559" y="222" on="0"/>
        <pt x="613" y="161" on="0"/>
        <pt x="613" y="114" on="1"/>
        <pt x="613" y="57" on="0"/>
        <pt x="542" y="-10" on="0"/>
        <pt x="482" y="-10" on="1"/>
        <pt x="444" y="-10" on="0"/>
        <pt x="383" y="25" on="0"/>
        <pt x="366" y="57" on="1"/>
        <pt x="400" y="85" on="1"/>
        <pt x="414" y="61" on="0"/>
        <pt x="454" y="36" on="0"/>
        <pt x="483" y="36" on="1"/>
        <pt x="518" y="36" on="0"/>
        <pt x="561" y="81" on="0"/>
        <pt x="561" y="119" on="1"/>
        <pt x="561" y="157" on="0"/>
        <pt x="516" y="200" on="0"/>
        <pt x="482" y="200" on="1"/>
        <pt x="452" y="200" on="0"/>
        <pt x="408" y="169" on="0"/>
        <pt x="385" y="144" on="1"/>
        <pt x="320" y="70" on="1"/>
        <pt x="293" y="39" on="0"/>
        <pt x="225" y="-10" on="0"/>
        <pt x="176" y="-10" on="1"/>
        <pt x="122" y="-10" on="0"/>
        <pt x="58" y="48" on="0"/>
        <pt x="58" y="96" on="1"/>
        <pt x="58" y="144" on="0"/>
        <pt x="118" y="206" on="0"/>
        <pt x="172" y="211" on="1"/>
        <pt x="393" y="229" on="1"/>
        <pt x="470" y="235" on="0"/>
        <pt x="554" y="308" on="0"/>
        <pt x="554" y="360" on="1"/>
        <pt x="554" y="405" on="0"/>
        <pt x="508" y="455" on="0"/>
        <pt x="469" y="455" on="1"/>
        <pt x="428" y="455" on="0"/>
        <pt x="378" y="397" on="0"/>
        <pt x="378" y="343" on="1"/>
        <pt x="378" y="274" on="1"/>
        <pt x="327" y="274" on="1"/>
        <pt x="327" y="335" on="1"/>
        <pt x="327" y="392" on="0"/>
        <pt x="260" y="458" on="0"/>
        <pt x="206" y="458" on="1"/>
        <pt x="164" y="458" on="0"/>
        <pt x="107" y="421" on="0"/>
        <pt x="97" y="385" on="1"/>
        <pt x="108" y="399" on="0"/>
        <pt x="143" y="417" on="0"/>
        <pt x="166" y="417" on="1"/>
        <pt x="203" y="417" on="0"/>
        <pt x="256" y="369" on="0"/>
        <pt x="256" y="327" on="1"/>
        <pt x="256" y="285" on="0"/>
        <pt x="199" y="231" on="0"/>
        <pt x="154" y="231" on="1"/>
        <pt x="134" y="231" on="0"/>
        <pt x="97" y="245" on="0"/>
        <pt x="68" y="274" on="0"/>
        <pt x="50" y="318" on="0"/>
        <pt x="50" y="349" on="1"/>
        <pt x="50" y="385" on="0"/>
        <pt x="74" y="441" on="0"/>
        <pt x="117" y="480" on="0"/>
        <pt x="174" y="501" on="0"/>
      </contour>
      <contour>
        <pt x="332" y="148" on="1"/>
        <pt x="346" y="163" on="0"/>
        <pt x="364" y="181" on="0"/>
        <pt x="375" y="190" on="1"/>
        <pt x="184" y="169" on="1"/>
        <pt x="149" y="165" on="0"/>
        <pt x="110" y="126" on="0"/>
        <pt x="110" y="97" on="1"/>
        <pt x="110" y="68" on="0"/>
        <pt x="148" y="36" on="0"/>
        <pt x="178" y="36" on="1"/>
        <pt x="205" y="36" on="0"/>
        <pt x="251" y="65" on="0"/>
        <pt x="274" y="88" on="1"/>
      </contour>
      <contour>
        <pt x="153" y="381" on="1"/>
        <pt x="131" y="381" on="0"/>
        <pt x="100" y="352" on="0"/>
        <pt x="94" y="332" on="1"/>
        <pt x="96" y="298" on="0"/>
        <pt x="134" y="271" on="0"/>
        <pt x="154" y="271" on="1"/>
        <pt x="178" y="271" on="0"/>
        <pt x="208" y="301" on="0"/>
        <pt x="208" y="326" on="1"/>
        <pt x="208" y="351" on="0"/>
        <pt x="179" y="381" on="0"/>
      </contour>
      <contour>
        <pt x="327" y="696" on="1"/>
        <pt x="349" y="696" on="0"/>
        <pt x="377" y="667" on="0"/>
        <pt x="377" y="647" on="1"/>
        <pt x="377" y="627" on="0"/>
        <pt x="349" y="598" on="0"/>
        <pt x="329" y="598" on="1"/>
        <pt x="306" y="598" on="0"/>
        <pt x="278" y="627" on="0"/>
        <pt x="278" y="647" on="1"/>
        <pt x="278" y="667" on="0"/>
        <pt x="306" y="696" on="0"/>
      </contour>
    </TTGlyph>
</ttFont>
